<svg id="Layer_1" data-name="Layer 1" xmlns="http://www.w3.org/2000/svg" viewBox="0 0 162 162"><defs><style>.cls-1{fill:none;stroke:#fff;stroke-miterlimit:10;}</style></defs><polygon class="cls-1" points="0.04 -0.02 0.03 -161.99 162.03 -162 162.04 0 0.04 -0.02"/><polygon class="cls-1" points="0.05 161.99 0.04 0.01 162.04 0 162.05 162 0.05 161.99"/><polygon class="cls-1" points="0.06 324 0.05 162.01 162.05 162 162.06 324 0.06 324"/><polygon class="cls-1" points="162.04 -0.02 162.03 -161.99 324.03 -162 324.04 0 162.04 -0.02"/><polygon class="cls-1" points="162.05 161.99 162.04 0.01 324.04 0 324.05 162 162.05 161.99"/><polygon class="cls-1" points="162.06 324 162.05 162.01 324.05 162 324.06 324 162.06 324"/><g id="NEW_PUZZLE" data-name="NEW PUZZLE"><path class="cls-1" d="M217.7-99.54c-24.9-.19-69.58,37.6-84,62.72a67,67,0,0,0-8.61,33.31L125.5,72H310.78l-.44-74a67.38,67.38,0,0,0-9.29-34.48C286.23-61.2,242.51-99.35,217.7-99.54Z"/><path class="cls-1" d="M94.86,185.39H68.31V126.82a13.26,13.26,0,0,1,13.26-13.26h0a13.26,13.26,0,0,1,13.26,13.26Z"/><path class="cls-1" d="M122.75,185.39H96.2V126.82a13.26,13.26,0,0,1,13.26-13.26h0a13.26,13.26,0,0,1,13.26,13.26Z"/><path class="cls-1" d="M150.64,185.39H124.09V126.82a13.26,13.26,0,0,1,13.26-13.26h0a13.26,13.26,0,0,1,13.26,13.26Z"/><path class="cls-1" d="M178.53,185.39H152V126.82a13.27,13.27,0,0,1,13.27-13.26h0a13.26,13.26,0,0,1,13.26,13.26Z"/><rect class="cls-1" x="60.14" y="88.37" width="851.72" height="12.26"/><polygon class="cls-1" points="926.16 72.03 45.84 72.03 45.84 88.37 60.14 88.37 911.86 88.37 926.16 88.37 926.16 72.03"/><path class="cls-1" d="M177.26-23.89c-1.43,1.28-22.59,8.74-23.56,33V72h47.11V7.7C199.12-15.88,178.66-22.63,177.26-23.89Z"/><line class="cls-1" x1="153.82" y1="10.96" x2="125.35" y2="10.96"/><polygon class="cls-1" points="925.61 61.33 925.61 -114.57 944.16 -114.57 944.16 -311.38 938.52 -311.38 938.52 -545.41 923.19 -545.41 923.19 -596.7 583.51 -596.7 583.51 -545.41 568.18 -545.41 568.18 -307.71 549.01 -307.71 415.44 -307.71 404.9 -307.71 404.9 -546.37 389.56 -546.37 389.56 -597.66 49.89 -597.66 49.89 -546.37 34.55 -546.37 34.55 -322.89 27.84 -322.89 27.84 -114.57 45.09 -114.57 45.09 61.33 27.84 61.33 27.84 209.64 45.09 209.64 45.09 435.66 342.21 435.66 346.05 435.66 622.23 435.66 627.98 435.66 923.19 435.66 923.19 209.64 940.44 209.64 940.44 61.33 925.61 61.33"/></g></svg>