<svg id="Layer_1" data-name="Layer 1" xmlns="http://www.w3.org/2000/svg" viewBox="0 0 162 162"><defs><style>.cls-1{fill:none;stroke:#fff;stroke-miterlimit:10;}</style></defs><polygon class="cls-1" points="-161.98 -0.04 -161.99 -161.99 0.01 -162 0.02 0 -161.98 -0.04"/><polygon class="cls-1" points="-161.97 161.97 -161.98 0.01 0.02 0 0.03 162 -161.97 161.97"/><polygon class="cls-1" points="-161.96 323.98 -161.97 162.01 0.03 162 0.04 324 -161.96 323.98"/><polygon class="cls-1" points="0.02 -0.04 0.01 -161.99 162 -162 162.02 0 0.02 -0.04"/><polygon class="cls-1" points="0.03 161.97 0.02 0.01 162.02 0 162.03 162 0.03 161.97"/><polygon class="cls-1" points="0.04 323.98 0.03 162.01 162.03 162 162.04 324 0.04 323.98"/><polygon class="cls-1" points="162.02 -0.04 162 -161.99 324 -162 324.02 0 162.02 -0.04"/><polygon class="cls-1" points="162.03 161.97 162.02 0.01 324.02 0 324.03 162 162.03 161.97"/><polygon class="cls-1" points="162.04 323.98 162.03 162.01 324.03 162 324.04 324 162.04 323.98"/><g id="NEW_PUZZLE" data-name="NEW PUZZLE"><path class="cls-1" d="M3.11-202.33c16.76,0,32.23,12.26,38.9,31.73A79.25,79.25,0,0,1,46.22-147c0,1,0,2,0,3V28.42H-40V-144c0-1,0-2,0-3a79.24,79.24,0,0,1,4.2-23.55c6.68-19.47,22.15-31.73,38.9-31.73Z"/><path class="cls-1" d="M2.6-172.8c-1.56,1.2-24.76,19.37-25.82,42V28.53H28.42V-132.06C26.56-154.11,4.13-171.62,2.6-172.8Z"/><path class="cls-1" d="M111-202.33c16.75,0,32.23,12.26,38.9,31.73a78.92,78.92,0,0,1,4.2,23.55c0,1,0,2,0,3V28.42H67.83V-144c0-1,0-2,0-3a78.92,78.92,0,0,1,4.2-23.55c6.67-19.47,22.14-31.73,38.9-31.73Z"/><path class="cls-1" d="M110.45-172.8c-1.56,1.2-24.76,19.37-25.82,42V28.53h51.64V-132.06C134.42-154.11,112-171.62,110.45-172.8Z"/><path class="cls-1" d="M-17.31,63c-1.42,1.09-22.58,10.85-23.55,31.51V186H6.24V93.35C4.55,73.23-15.91,64.07-17.31,63Z"/><path class="cls-1" d="M-6.24,89.61c3.34,0,6.43,2.61,7.76,6.76a17.76,17.76,0,0,1,.84,5c0,.21,0,.43,0,.64V186H-14.85V102c0-.21,0-.43,0-.64a17.41,17.41,0,0,1,.84-5c1.33-4.15,4.42-6.76,7.76-6.76Z"/><path class="cls-1" d="M32.1,63C30.68,64.09,9.52,73.85,8.55,94.51V186h47.1V93.35C54,73.23,33.5,64.07,32.1,63Z"/><path class="cls-1" d="M21,89.61c3.35,0,6.43,2.61,7.77,6.76a17.76,17.76,0,0,1,.83,5c0,.21,0,.43,0,.64V186H12.42V102c0-.21,0-.43,0-.64a18.12,18.12,0,0,1,.84-5c1.33-4.15,4.42-6.76,7.76-6.76Z"/><path class="cls-1" d="M43.17,89.61c3.34,0,6.43,2.61,7.76,6.76a17.76,17.76,0,0,1,.84,5c0,.21,0,.43,0,.64V186H34.56V102c0-.21,0-.43,0-.64a17.41,17.41,0,0,1,.84-5c1.33-4.15,4.42-6.76,7.76-6.76Z"/><path class="cls-1" d="M81.51,63C80.09,64.09,58.93,73.85,58,94.51V186h47.1V93.35C103.37,73.23,82.91,64.07,81.51,63Z"/><path class="cls-1" d="M70.44,89.61c3.35,0,6.43,2.61,7.76,6.76a17.41,17.41,0,0,1,.84,5c0,.21,0,.43,0,.64V186H61.83V102c0-.21,0-.43,0-.64a17.76,17.76,0,0,1,.84-5c1.33-4.15,4.42-6.76,7.76-6.76Z"/><path class="cls-1" d="M92.58,89.61c3.34,0,6.43,2.61,7.76,6.76a17.76,17.76,0,0,1,.84,5c0,.21,0,.43,0,.64V186H84V102c0-.21,0-.43,0-.64a17.41,17.41,0,0,1,.84-5c1.33-4.15,4.41-6.76,7.76-6.76Z"/><path class="cls-1" d="M130.92,63c-1.42,1.09-22.58,10.85-23.55,31.51V186h47.1V93.35C152.78,73.23,132.32,64.07,130.92,63Z"/><path class="cls-1" d="M119.85,89.61c3.35,0,6.43,2.61,7.76,6.76a17.41,17.41,0,0,1,.84,5c0,.21,0,.43,0,.64V186H111.24V102c0-.21,0-.43,0-.64a17.76,17.76,0,0,1,.84-5c1.33-4.15,4.42-6.76,7.76-6.76Z"/><path class="cls-1" d="M142,89.61c3.34,0,6.43,2.61,7.76,6.76a17.76,17.76,0,0,1,.84,5c0,.21,0,.43,0,.64V186H133.38V102c0-.21,0-.43,0-.64a17.41,17.41,0,0,1,.84-5c1.33-4.15,4.41-6.76,7.76-6.76Z"/><rect class="cls-1" x="-101.86" y="44.72" width="851.72" height="12.25"/><polygon class="cls-1" points="764.16 28.38 -116.16 28.38 -116.16 44.72 -101.86 44.72 749.86 44.72 764.16 44.72 764.16 28.38"/><polygon class="cls-1" points="763.61 385.33 763.61 209.43 782.16 209.43 782.16 12.62 776.52 12.62 776.52 -221.41 761.19 -221.41 761.19 -272.7 421.51 -272.7 421.51 -221.41 406.18 -221.41 406.18 16.29 387.01 16.29 253.44 16.29 242.9 16.29 242.9 -222.37 227.56 -222.37 227.56 -273.66 -112.11 -273.66 -112.11 -222.37 -127.45 -222.37 -127.45 1.11 -134.16 1.11 -134.16 209.43 -116.91 209.43 -116.91 385.33 -134.16 385.33 -134.16 533.64 -116.91 533.64 -116.91 759.66 180.21 759.66 184.04 759.66 460.23 759.66 465.98 759.66 761.19 759.66 761.19 533.64 778.44 533.64 778.44 385.33 763.61 385.33"/></g></svg>