<svg id="Layer_1" data-name="Layer 1" xmlns="http://www.w3.org/2000/svg" viewBox="0 0 162 162"><defs><style>.cls-1{fill:none;stroke:#fff;stroke-miterlimit:10;}</style></defs><polygon class="cls-1" points="-161.97 -0.03 -161.98 -161.99 0.02 -162 0.03 0 -161.97 -0.03"/><polygon class="cls-1" points="-161.96 161.98 -161.97 0.01 0.03 0 0.04 162 -161.96 161.98"/><polygon class="cls-1" points="-161.95 323.99 -161.96 162.01 0.04 162 0.05 324 -161.95 323.99"/><polygon class="cls-1" points="0.03 -0.03 0.02 -161.99 162.02 -162 162.03 0 0.03 -0.03"/><polygon class="cls-1" points="0.04 161.98 0.03 0.01 162.03 0 162.04 162 0.04 161.98"/><polygon class="cls-1" points="0.05 323.99 0.04 162.01 162.04 162 162.05 324 0.05 323.99"/><polygon class="cls-1" points="162.03 -0.03 162.02 -161.99 324.02 -162 324.03 0 162.03 -0.03"/><polygon class="cls-1" points="162.04 161.98 162.03 0.01 324.03 0 324.04 162 162.04 161.98"/><polygon class="cls-1" points="162.05 323.99 162.04 162.01 324.04 162 324.05 324 162.05 323.99"/><g id="NEW_PUZZLE" data-name="NEW PUZZLE"><path class="cls-1" d="M55.7,62.46c-24.9-.19-69.58,37.6-84,62.72a67,67,0,0,0-8.61,33.31L-36.5,234H148.78l-.44-74a67.38,67.38,0,0,0-9.29-34.48C124.23,100.8,80.51,62.65,55.7,62.46Z"/><path class="cls-1" d="M-17.31-99c-1.42,1.09-22.58,10.85-23.55,31.51V24H6.24v-92.6C4.55-88.77-15.91-97.93-17.31-99Z"/><path class="cls-1" d="M-6.24-72.39c3.34,0,6.43,2.61,7.76,6.76a17.76,17.76,0,0,1,.84,5c0,.21,0,.43,0,.64V24H-14.85V-60c0-.21,0-.43,0-.64a17.41,17.41,0,0,1,.84-5c1.33-4.15,4.42-6.76,7.76-6.76Z"/><path class="cls-1" d="M32.1-99C30.68-97.91,9.52-88.15,8.55-67.49V24h47.1v-92.6C54-88.77,33.5-97.93,32.1-99Z"/><path class="cls-1" d="M21-72.39c3.35,0,6.43,2.61,7.77,6.76a17.76,17.76,0,0,1,.83,5c0,.21,0,.43,0,.64V24H12.42V-60c0-.21,0-.43,0-.64a18.12,18.12,0,0,1,.84-5c1.33-4.15,4.42-6.76,7.76-6.76Z"/><path class="cls-1" d="M43.17-72.39c3.34,0,6.43,2.61,7.76,6.76a17.76,17.76,0,0,1,.84,5c0,.21,0,.43,0,.64V24H34.56V-60c0-.21,0-.43,0-.64a17.41,17.41,0,0,1,.84-5c1.33-4.15,4.42-6.76,7.76-6.76Z"/><path class="cls-1" d="M81.51-99C80.09-97.91,58.93-88.15,58-67.49V24h47.1v-92.6C103.37-88.77,82.91-97.93,81.51-99Z"/><path class="cls-1" d="M70.44-72.39c3.35,0,6.43,2.61,7.76,6.76a17.41,17.41,0,0,1,.84,5c0,.21,0,.43,0,.64V24H61.83V-60c0-.21,0-.43,0-.64a17.76,17.76,0,0,1,.84-5c1.33-4.15,4.42-6.76,7.76-6.76Z"/><path class="cls-1" d="M92.58-72.39c3.34,0,6.43,2.61,7.76,6.76a17.76,17.76,0,0,1,.84,5c0,.21,0,.43,0,.64V24H84V-60c0-.21,0-.43,0-.64a17.41,17.41,0,0,1,.84-5c1.33-4.15,4.41-6.76,7.76-6.76Z"/><path class="cls-1" d="M130.92-99c-1.42,1.09-22.58,10.85-23.55,31.51V24h47.1v-92.6C152.78-88.77,132.32-97.93,130.92-99Z"/><path class="cls-1" d="M119.85-72.39c3.35,0,6.43,2.61,7.76,6.76a17.41,17.41,0,0,1,.84,5c0,.21,0,.43,0,.64V24H111.24V-60c0-.21,0-.43,0-.64a17.76,17.76,0,0,1,.84-5c1.33-4.15,4.42-6.76,7.76-6.76Z"/><path class="cls-1" d="M142-72.39c3.34,0,6.43,2.61,7.76,6.76a17.76,17.76,0,0,1,.84,5c0,.21,0,.43,0,.64V24H133.38V-60c0-.21,0-.43,0-.64a17.41,17.41,0,0,1,.84-5c1.33-4.15,4.41-6.76,7.76-6.76Z"/><path class="cls-1" d="M143.45,69h.06v-.06a7.11,7.11,0,0,0,6.88-7.1h0a7.1,7.1,0,0,0-6.88-7.1h-.06a7.1,7.1,0,0,0-7.1-7h0a7.1,7.1,0,0,0-7.1,7h0a7.11,7.11,0,0,0-7.11,7.11h0a7.1,7.1,0,0,0,7.11,7.1h0V69h0a7.1,7.1,0,0,0,7.1,7h0A7.1,7.1,0,0,0,143.45,69Z"/><circle class="cls-1" cx="55.23" cy="115.56" r="28.59" transform="translate(-67.71 151.5) rotate(-80.75)"/><path class="cls-1" d="M48,94.75a7.11,7.11,0,0,0-7.11,7h0a7.11,7.11,0,0,0,0,14.21l14-.31.22-13.9A7.1,7.1,0,0,0,48,94.75Z"/><path class="cls-1" d="M55.14,115.64l13.89.47h0a7.11,7.11,0,0,0,7.2-6.89h0a7.1,7.1,0,0,0-6.77-7.31h0a7.11,7.11,0,0,0-6.89-7.32h0a7.1,7.1,0,0,0-7.31,6.89h0Z"/><path class="cls-1" d="M59.22,115.72a4.09,4.09,0,1,1-4.08-4.08A4.09,4.09,0,0,1,59.22,115.72Z"/><path class="cls-1" d="M15.26,138.11c-1.43,1.28-22.59,8.74-23.56,33v63H38.81V169.7C37.12,146.12,16.66,139.37,15.26,138.11Z"/><path class="cls-1" d="M94.91,138.11c-1.42,1.28-22.58,8.74-23.55,33V234l47.11,0V169.7C116.77,146.12,96.31,139.37,94.91,138.11Z"/><path class="cls-1" d="M62.13,136.92a7.1,7.1,0,0,0,7.1-7h0a7.11,7.11,0,0,0,0-14.21l-14,.31L55,129.93A7.1,7.1,0,0,0,62.13,136.92Z"/><path class="cls-1" d="M55,116l-13.89-.46h0a7.09,7.09,0,0,0-7.2,6.88h0a7.09,7.09,0,0,0,6.77,7.31h0a7.11,7.11,0,0,0,6.89,7.32h0a7.1,7.1,0,0,0,7.31-6.89h0Z"/><polygon class="cls-1" points="763.61 223.33 763.61 47.43 782.16 47.43 782.16 -149.38 776.52 -149.38 776.52 -383.41 761.19 -383.41 761.19 -434.7 421.51 -434.7 421.51 -383.41 406.18 -383.41 406.18 -145.71 387.01 -145.71 253.44 -145.71 242.9 -145.71 242.9 -384.37 227.56 -384.37 227.56 -435.66 -112.11 -435.66 -112.11 -384.37 -127.45 -384.37 -127.45 -160.89 -134.16 -160.89 -134.16 47.43 -116.91 47.43 -116.91 223.33 -134.16 223.33 -134.16 371.64 -116.91 371.64 -116.91 597.66 180.21 597.66 184.04 597.66 460.23 597.66 465.98 597.66 761.19 597.66 761.19 371.64 778.44 371.64 778.44 223.33 763.61 223.33"/></g></svg>