<svg id="Layer_1" data-name="Layer 1" xmlns="http://www.w3.org/2000/svg" viewBox="0 0 162 162"><defs><style>.cls-1{fill:none;stroke:#fff;stroke-miterlimit:10;}</style></defs><polygon class="cls-1" points="-161.98 -0.04 -162 -161.99 0.01 -162 0.02 0 -161.98 -0.04"/><polygon class="cls-1" points="-161.97 161.97 -161.98 0.01 0.02 0 0.03 162 -161.97 161.97"/><polygon class="cls-1" points="-161.96 323.98 -161.97 162.01 0.03 162 0.04 324 -161.96 323.98"/><polygon class="cls-1" points="0.02 -0.04 0.01 -161.99 162 -162 162.02 0 0.02 -0.04"/><polygon class="cls-1" points="0.03 161.97 0.02 0.01 162.02 0 162.03 162 0.03 161.97"/><polygon class="cls-1" points="0.04 323.98 0.03 162.01 162.03 162 162.04 324 0.04 323.98"/><polygon class="cls-1" points="162.02 -0.04 162 -161.99 324 -162 324.02 0 162.02 -0.04"/><polygon class="cls-1" points="162.03 161.97 162.02 0.01 324.02 0 324.03 162 162.03 161.97"/><polygon class="cls-1" points="162.04 323.98 162.03 162.01 324.03 162 324.04 324 162.04 323.98"/><g id="NEW_PUZZLE" data-name="NEW PUZZLE"><path class="cls-1" d="M86.22,63c-1.43,1.09-22.59,10.85-23.56,31.51V186h47.11V93.35C108.08,73.23,87.62,64.07,86.22,63Z"/><path class="cls-1" d="M75.15,89.61c3.34,0,6.43,2.61,7.76,6.76a17.76,17.76,0,0,1,.84,5c0,.21,0,.43,0,.64V186H66.54V102c0-.21,0-.43,0-.64a17.41,17.41,0,0,1,.84-5c1.33-4.15,4.42-6.76,7.76-6.76Z"/><path class="cls-1" d="M97.28,89.61c3.35,0,6.43,2.61,7.77,6.76a18.12,18.12,0,0,1,.84,5V186H88.68V101.38a18.12,18.12,0,0,1,.84-5c1.33-4.15,4.42-6.76,7.76-6.76Z"/><path class="cls-1" d="M135.63,63C134.2,64.09,113,73.85,112.07,94.51V186h47.11V93.35C157.49,73.23,137,64.07,135.63,63Z"/><path class="cls-1" d="M124.56,89.61c3.34,0,6.43,2.61,7.76,6.76a17.76,17.76,0,0,1,.84,5c0,.21,0,.43,0,.64V186H116V102c0-.21,0-.43,0-.64a17.41,17.41,0,0,1,.84-5c1.33-4.15,4.41-6.76,7.76-6.76Z"/><path class="cls-1" d="M146.69,89.61c3.35,0,6.43,2.61,7.77,6.76a17.76,17.76,0,0,1,.83,5c0,.21,0,.43,0,.64V186H138.09V101.38a18.12,18.12,0,0,1,.84-5c1.33-4.15,4.42-6.76,7.76-6.76Z"/><path class="cls-1" d="M185,63c-1.43,1.09-22.59,10.85-23.56,31.51V186h47.11V93.35C206.9,73.23,186.44,64.07,185,63Z"/><rect class="cls-1" x="5.75" y="56.97" width="46.98" height="128.68"/><path class="cls-1" d="M18.36,88.69c3.35,0,6.43,2.62,7.76,6.8a17.67,17.67,0,0,1,.84,5c0,.22,0,.43,0,.65v84.47H9.75V101.18c0-.22,0-.43,0-.65a18,18,0,0,1,.84-5c1.33-4.18,4.42-6.8,7.76-6.8Z"/><path class="cls-1" d="M40.5,88.69c3.34,0,6.43,2.62,7.76,6.8a18,18,0,0,1,.84,5c0,.22,0,.43,0,.65v84.47H31.89V101.18c0-.22,0-.43,0-.65a17.67,17.67,0,0,1,.84-5c1.33-4.18,4.41-6.8,7.76-6.8Z"/><path class="cls-1" d="M38.43,73.31a8.17,8.17,0,1,1-8.17-8.17A8.17,8.17,0,0,1,38.43,73.31Z"/><path class="cls-1" d="M30.26,28.38H3.71V-181A13.26,13.26,0,0,1,17-194.25h0A13.27,13.27,0,0,1,30.26-181Z"/><rect class="cls-1" x="-263.86" y="44.72" width="851.72" height="12.25"/><polygon class="cls-1" points="602.16 28.38 -278.16 28.38 -278.16 44.72 -263.86 44.72 587.86 44.72 602.16 44.72 602.16 28.38"/><polygon class="cls-1" points="601.61 385.33 601.61 209.43 620.16 209.43 620.16 12.62 614.52 12.62 614.52 -221.41 599.19 -221.41 599.19 -272.7 259.51 -272.7 259.51 -221.41 244.18 -221.41 244.18 16.29 225.01 16.29 91.44 16.29 80.9 16.29 80.9 -222.37 65.56 -222.37 65.56 -273.66 -274.11 -273.66 -274.11 -222.37 -289.45 -222.37 -289.45 1.11 -296.16 1.11 -296.16 209.43 -278.91 209.43 -278.91 385.33 -296.16 385.33 -296.16 533.64 -278.91 533.64 -278.91 759.66 18.21 759.66 22.05 759.66 298.23 759.66 303.98 759.66 599.19 759.66 599.19 533.64 616.44 533.64 616.44 385.33 601.61 385.33"/></g></svg>