<svg id="Layer_1" data-name="Layer 1" xmlns="http://www.w3.org/2000/svg" viewBox="0 0 162 162"><defs><style>.cls-1{fill:none;stroke:#fff;stroke-miterlimit:10;}</style></defs><polygon class="cls-1" points="-161.95 -0.01 -161.96 -161.99 0.04 -162 0.05 0 -161.95 -0.01"/><polygon class="cls-1" points="-161.94 162 -161.95 0.01 0.05 0 0.06 162 -161.94 162"/><rect class="cls-1" x="-161.94" y="162.01" width="162" height="162"/><polygon class="cls-1" points="0.05 -0.01 0.04 -161.99 162.04 -162 162.05 0 0.05 -0.01"/><polygon class="cls-1" points="0.06 162 0.05 0.01 162.05 0 162.06 162 0.06 162"/><rect class="cls-1" x="0.07" y="162.01" width="162" height="162"/><g id="NEW_PUZZLE" data-name="NEW PUZZLE"><path class="cls-1" d="M-147.53,257.25V154.61c0-80.2,92.12-125,92.12-125S37.81,64.33,37.81,152.21v105Z"/><path class="cls-1" d="M-131.19,251.13V158.69c0-71,75.78-111.44,75.78-111.44S21.47,78.49,21.47,156.3v94.83Z"/><path class="cls-1" d="M-114.85,245V164.82c0-77.57,61.42-99.5,61.42-99.5S5.13,94.67,5.13,162.42V245Z"/><rect class="cls-1" x="54.88" y="161.26" width="46.98" height="96"/><rect class="cls-1" x="54.88" y="102.02" width="46.98" height="65.36"/><path class="cls-1" d="M91.65,155.13H65.1V127.54a13.26,13.26,0,0,1,13.26-13.26h0a13.27,13.27,0,0,1,13.27,13.26Z"/><path class="cls-1" d="M10,23.39H-16.53V-35.18A13.26,13.26,0,0,1-3.27-48.44h0A13.27,13.27,0,0,1,10-35.18Z"/><path class="cls-1" d="M37.91,23.39H11.36V-35.18A13.26,13.26,0,0,1,24.62-48.44h0A13.26,13.26,0,0,1,37.91-35.18Z"/><path class="cls-1" d="M65.8,23.39H39.25V-35.18A13.26,13.26,0,0,1,52.51-48.44h0A13.26,13.26,0,0,1,65.8-35.18Z"/><path class="cls-1" d="M93.69,23.39H67.14V-35.18A13.26,13.26,0,0,1,80.4-48.44h0A13.26,13.26,0,0,1,93.69-35.18Z"/><polygon class="cls-1" points="115.61 -100.67 115.61 -276.57 134.16 -276.57 134.16 -473.38 128.52 -473.38 128.52 -707.41 113.19 -707.41 113.19 -758.7 -226.49 -758.7 -226.49 -707.41 -241.82 -707.41 -241.82 -469.71 -260.99 -469.71 -394.56 -469.71 -405.1 -469.71 -405.1 -708.37 -420.44 -708.37 -420.44 -759.66 -760.11 -759.66 -760.11 -708.37 -775.45 -708.37 -775.45 -484.89 -782.16 -484.89 -782.16 -276.57 -764.91 -276.57 -764.91 -100.67 -782.16 -100.67 -782.16 47.64 -764.91 47.64 -764.91 273.66 -467.79 273.66 -463.95 273.66 -187.77 273.66 -182.02 273.66 113.19 273.66 113.19 47.64 130.44 47.64 130.44 -100.67 115.61 -100.67"/></g></svg>