<svg id="Layer_1" data-name="Layer 1" xmlns="http://www.w3.org/2000/svg" viewBox="0 0 162 162"><defs><style>.cls-1{fill:none;stroke:#fff;stroke-miterlimit:10;}</style></defs><polygon class="cls-1" points="-161.94 0 -161.95 -161.99 0.05 -162 0.06 0 -161.94 0"/><rect class="cls-1" x="-161.94" y="0.01" width="162" height="162"/><polygon class="cls-1" points="0.06 0 0.05 -161.99 162.05 -162 162.06 0 0.06 0"/><rect class="cls-1" x="0.07" y="0.01" width="162" height="162"/><g id="NEW_PUZZLE" data-name="NEW PUZZLE"><path class="cls-1" d="M-147.53,95.25V-7.39c0-80.2,92.12-125,92.12-125S37.81-97.67,37.81-9.79v105Z"/><path class="cls-1" d="M-131.19,89.13V-3.31c0-71,75.78-111.44,75.78-111.44S21.47-83.51,21.47-5.7V89.13Z"/><path class="cls-1" d="M-114.85,83V2.82c0-77.57,61.42-99.5,61.42-99.5S5.13-67.33,5.13.42V83Z"/><rect class="cls-1" x="54.88" y="-0.74" width="46.98" height="96"/><rect class="cls-1" x="54.88" y="-59.98" width="46.98" height="65.36"/><polygon class="cls-1" points="115.61 -262.67 115.61 -438.57 134.16 -438.57 134.16 -635.38 128.52 -635.38 128.52 -869.41 113.19 -869.41 113.19 -920.7 -226.49 -920.7 -226.49 -869.41 -241.82 -869.41 -241.82 -631.71 -260.99 -631.71 -394.56 -631.71 -405.1 -631.71 -405.1 -870.37 -420.44 -870.37 -420.44 -921.66 -760.11 -921.66 -760.11 -870.37 -775.45 -870.37 -775.45 -646.89 -782.16 -646.89 -782.16 -438.57 -764.91 -438.57 -764.91 -262.67 -782.16 -262.67 -782.16 -114.36 -764.91 -114.36 -764.91 111.66 -467.79 111.66 -463.95 111.66 -187.77 111.66 -182.02 111.66 113.19 111.66 113.19 -114.36 130.44 -114.36 130.44 -262.67 115.61 -262.67"/></g></svg>