<svg id="Layer_1" data-name="Layer 1" xmlns="http://www.w3.org/2000/svg" viewBox="0 0 162 162"><defs><style>.cls-1{fill:none;stroke:#fff;stroke-miterlimit:10;}</style></defs><polygon class="cls-1" points="-161.96 -0.02 -161.97 -161.99 0.03 -162 0.04 0 -161.96 -0.02"/><polygon class="cls-1" points="-161.95 161.99 -161.96 0.01 0.04 0 0.05 162 -161.95 161.99"/><polygon class="cls-1" points="-161.94 324 -161.95 162.01 0.05 162 0.06 324 -161.94 324"/><polygon class="cls-1" points="0.04 -0.02 0.03 -161.99 162.03 -162 162.04 0 0.04 -0.02"/><polygon class="cls-1" points="0.05 161.99 0.04 0.01 162.04 0 162.05 162 0.05 161.99"/><polygon class="cls-1" points="0.06 324 0.05 162.01 162.05 162 162.06 324 0.06 324"/><polygon class="cls-1" points="162.04 -0.02 162.03 -161.99 324.03 -162 324.04 0 162.04 -0.02"/><polygon class="cls-1" points="162.05 161.99 162.04 0.01 324.04 0 324.05 162 162.05 161.99"/><polygon class="cls-1" points="162.06 324 162.05 162.01 324.05 162 324.06 324 162.06 324"/><g id="NEW_PUZZLE" data-name="NEW PUZZLE"><circle class="cls-1" cx="162.67" cy="-26.01" r="83.74" transform="translate(150.05 138.24) rotate(-76.52)"/><path class="cls-1" d="M21.88,185.39H-4.68V126.82A13.27,13.27,0,0,1,8.59,113.56h0a13.27,13.27,0,0,1,13.27,13.26Z"/><path class="cls-1" d="M49.77,185.39H23.22V126.82a13.26,13.26,0,0,1,13.26-13.26h0a13.27,13.27,0,0,1,13.27,13.26Z"/><path class="cls-1" d="M77.66,185.39H51.11V126.82a13.26,13.26,0,0,1,13.26-13.26h0a13.27,13.27,0,0,1,13.27,13.26Z"/><path class="cls-1" d="M105.55,185.39H79V126.82a13.26,13.26,0,0,1,13.26-13.26h0a13.26,13.26,0,0,1,13.26,13.26Z"/><path class="cls-1" d="M133.44,185.39H106.89V126.82a13.26,13.26,0,0,1,13.26-13.26h0a13.26,13.26,0,0,1,13.26,13.26Z"/><path class="cls-1" d="M161.33,185.39H134.78V126.82A13.26,13.26,0,0,1,148,113.56h0a13.26,13.26,0,0,1,13.26,13.26Z"/><rect class="cls-1" x="-263.86" y="88.37" width="851.72" height="12.26"/><polygon class="cls-1" points="602.16 72.03 -278.16 72.03 -278.16 88.37 -263.86 88.37 587.86 88.37 602.16 88.37 602.16 72.03"/><polygon class="cls-1" points="601.61 61.33 601.61 -114.57 620.16 -114.57 620.16 -311.38 614.52 -311.38 614.52 -545.41 599.19 -545.41 599.19 -596.7 259.51 -596.7 259.51 -545.41 244.18 -545.41 244.18 -307.71 225.01 -307.71 91.44 -307.71 80.9 -307.71 80.9 -546.37 65.56 -546.37 65.56 -597.66 -274.11 -597.66 -274.11 -546.37 -289.45 -546.37 -289.45 -322.89 -296.16 -322.89 -296.16 -114.57 -278.91 -114.57 -278.91 61.33 -296.16 61.33 -296.16 209.64 -278.91 209.64 -278.91 435.66 18.21 435.66 22.05 435.66 298.23 435.66 303.98 435.66 599.19 435.66 599.19 209.64 616.44 209.64 616.44 61.33 601.61 61.33"/></g></svg>