<svg id="Layer_1" data-name="Layer 1" xmlns="http://www.w3.org/2000/svg" viewBox="0 0 162 162"><defs><style>.cls-1{fill:none;stroke:#fff;stroke-miterlimit:10;}</style></defs><polygon class="cls-1" points="-161.95 -0.01 -161.96 -161.99 0.04 -162 0.05 0 -161.95 -0.01"/><polygon class="cls-1" points="-161.94 162 -161.95 0.01 0.05 0 0.06 162 -161.94 162"/><rect class="cls-1" x="-161.94" y="162.01" width="162" height="162"/><polygon class="cls-1" points="0.05 -0.01 0.04 -161.99 162.04 -162 162.05 0 0.05 -0.01"/><polygon class="cls-1" points="0.06 162 0.05 0.01 162.05 0 162.06 162 0.06 162"/><rect class="cls-1" x="0.06" y="162.01" width="162" height="162"/><polygon class="cls-1" points="162.05 -0.01 162.04 -161.99 324.04 -162 324.05 0 162.05 -0.01"/><polygon class="cls-1" points="162.06 162 162.05 0.01 324.05 0 324.06 162 162.06 162"/><rect class="cls-1" x="162.06" y="162.01" width="162" height="162"/><g id="NEW_PUZZLE" data-name="NEW PUZZLE"><rect class="cls-1" x="7.79" y="161.26" width="46.98" height="96"/><rect class="cls-1" x="7.79" y="102.02" width="46.98" height="65.36"/><path class="cls-1" d="M44.56,155.13H18V127.54a13.27,13.27,0,0,1,13.27-13.26h0a13.27,13.27,0,0,1,13.27,13.26Z"/><path class="cls-1" d="M21.88,23.39H-4.68V-35.18A13.27,13.27,0,0,1,8.59-48.44h0A13.27,13.27,0,0,1,21.88-35.18Z"/><path class="cls-1" d="M49.77,23.39H23.22V-35.18A13.26,13.26,0,0,1,36.48-48.44h0A13.27,13.27,0,0,1,49.77-35.18Z"/><path class="cls-1" d="M77.66,23.39H51.11V-35.18A13.26,13.26,0,0,1,64.37-48.44h0A13.27,13.27,0,0,1,77.66-35.18Z"/><path class="cls-1" d="M105.55,23.39H79V-35.18A13.26,13.26,0,0,1,92.26-48.44h0a13.26,13.26,0,0,1,13.26,13.26Z"/><path class="cls-1" d="M133.44,23.39H106.89V-35.18a13.26,13.26,0,0,1,13.26-13.26h0a13.26,13.26,0,0,1,13.26,13.26Z"/><path class="cls-1" d="M161.33,23.39H134.78V-35.18A13.26,13.26,0,0,1,148-48.44h0a13.26,13.26,0,0,1,13.26,13.26Z"/><path class="cls-1" d="M68.82,257.74V155.1c0-80.2,92.12-125,92.12-125s93.22,34.77,93.22,122.65v105Z"/><path class="cls-1" d="M85.16,251.61V159.18c0-71.06,75.78-111.45,75.78-111.45S237.82,79,237.82,156.78v94.83Z"/><path class="cls-1" d="M101.5,245.49V165.31c0-77.57,61.42-99.51,61.42-99.51s58.56,29.36,58.56,97.11v82.58Z"/><path class="cls-1" d="M162.74,84.37s-44.9,14.06-44.9,80.94v74.05h87.3V162.91C205.14,104.55,162.74,84.37,162.74,84.37Z"/><polygon class="cls-1" points="601.61 -100.67 601.61 -276.57 620.16 -276.57 620.16 -473.38 614.52 -473.38 614.52 -707.41 599.19 -707.41 599.19 -758.7 259.51 -758.7 259.51 -707.41 244.18 -707.41 244.18 -469.71 225.01 -469.71 91.44 -469.71 80.9 -469.71 80.9 -708.37 65.56 -708.37 65.56 -759.66 -274.11 -759.66 -274.11 -708.37 -289.45 -708.37 -289.45 -484.89 -296.16 -484.89 -296.16 -276.57 -278.91 -276.57 -278.91 -100.67 -296.16 -100.67 -296.16 47.64 -278.91 47.64 -278.91 273.66 18.21 273.66 22.05 273.66 298.23 273.66 303.98 273.66 599.19 273.66 599.19 47.64 616.44 47.64 616.44 -100.67 601.61 -100.67"/></g></svg>