<svg id="Layer_1" data-name="Layer 1" xmlns="http://www.w3.org/2000/svg" viewBox="0 0 162 162"><defs><style>.cls-1{fill:none;stroke:#fff;stroke-miterlimit:10;}</style></defs><polygon class="cls-1" points="0.06 0 0.05 -161.99 162.05 -162 162.06 0 0.06 0"/><rect class="cls-1" x="0.07" y="0.01" width="162" height="162"/><polygon class="cls-1" points="162.06 0 162.05 -161.99 324.05 -162 324.06 0 162.06 0"/><rect class="cls-1" x="162.06" y="0.01" width="162" height="162"/><g id="NEW_PUZZLE" data-name="NEW PUZZLE"><rect class="cls-1" x="60.14" y="-0.74" width="46.98" height="96"/><rect class="cls-1" x="60.14" y="-59.98" width="46.98" height="65.36"/><path class="cls-1" d="M125.29,95.25V-7.39c0-80.2,92.12-125,92.12-125S310.63-97.67,310.63-9.79v105Z"/><path class="cls-1" d="M141.63,89.13V-3.31c0-71,75.78-111.44,75.78-111.44S294.29-83.51,294.29-5.7V89.13Z"/><path class="cls-1" d="M158,83V2.82c0-77.57,61.43-99.5,61.43-99.5S278-67.33,278,.42V83Z"/><polygon class="cls-1" points="925.61 -262.67 925.61 -438.57 944.16 -438.57 944.16 -635.38 938.52 -635.38 938.52 -869.41 923.19 -869.41 923.19 -920.7 583.51 -920.7 583.51 -869.41 568.18 -869.41 568.18 -631.71 549.01 -631.71 415.44 -631.71 404.9 -631.71 404.9 -870.37 389.56 -870.37 389.56 -921.66 49.89 -921.66 49.89 -870.37 34.55 -870.37 34.55 -646.89 27.84 -646.89 27.84 -438.57 45.09 -438.57 45.09 -262.67 27.84 -262.67 27.84 -114.36 45.09 -114.36 45.09 111.66 342.21 111.66 346.05 111.66 622.23 111.66 627.98 111.66 923.19 111.66 923.19 -114.36 940.44 -114.36 940.44 -262.67 925.61 -262.67"/></g></svg>