<svg id="Layer_1" data-name="Layer 1" xmlns="http://www.w3.org/2000/svg" viewBox="0 0 162 162"><defs><style>.cls-1{fill:none;stroke:#fff;stroke-miterlimit:10;}</style></defs><polygon class="cls-1" points="0.05 -0.01 0.04 -161.99 162.04 -162 162.05 0 0.05 -0.01"/><polygon class="cls-1" points="0.06 162 0.05 0.01 162.05 0 162.06 162 0.06 162"/><rect class="cls-1" x="0.07" y="162.01" width="162" height="162"/><polygon class="cls-1" points="162.05 -0.01 162.04 -161.99 324.04 -162 324.05 0 162.05 -0.01"/><polygon class="cls-1" points="162.06 162 162.05 0.01 324.05 0 324.06 162 162.06 162"/><rect class="cls-1" x="162.06" y="162.01" width="162" height="162"/><g id="NEW_PUZZLE" data-name="NEW PUZZLE"><rect class="cls-1" x="60.14" y="161.26" width="46.98" height="96"/><rect class="cls-1" x="60.14" y="102.02" width="46.98" height="65.36"/><path class="cls-1" d="M125.29,257.25V154.61c0-80.2,92.12-125,92.12-125s93.22,34.77,93.22,122.65v105Z"/><path class="cls-1" d="M141.63,251.13V158.69c0-71,75.78-111.44,75.78-111.44s76.88,31.24,76.88,109.05v94.83Z"/><path class="cls-1" d="M158,245V164.82c0-77.57,61.43-99.5,61.43-99.5S278,94.67,278,162.42V245Z"/><path class="cls-1" d="M96.9,155.13H70.35V127.54a13.27,13.27,0,0,1,13.27-13.26h0A13.26,13.26,0,0,1,96.9,127.54Z"/><path class="cls-1" d="M94.86,23.39H68.31V-35.18A13.26,13.26,0,0,1,81.57-48.44h0A13.26,13.26,0,0,1,94.86-35.18Z"/><path class="cls-1" d="M122.75,23.39H96.2V-35.18a13.26,13.26,0,0,1,13.26-13.26h0a13.26,13.26,0,0,1,13.26,13.26Z"/><path class="cls-1" d="M150.64,23.39H124.09V-35.18a13.26,13.26,0,0,1,13.26-13.26h0a13.26,13.26,0,0,1,13.26,13.26Z"/><path class="cls-1" d="M178.53,23.39H152V-35.18a13.27,13.27,0,0,1,13.27-13.26h0a13.26,13.26,0,0,1,13.26,13.26Z"/><polygon class="cls-1" points="925.61 -100.67 925.61 -276.57 944.16 -276.57 944.16 -473.38 938.52 -473.38 938.52 -707.41 923.19 -707.41 923.19 -758.7 583.51 -758.7 583.51 -707.41 568.18 -707.41 568.18 -469.71 549.01 -469.71 415.44 -469.71 404.9 -469.71 404.9 -708.37 389.56 -708.37 389.56 -759.66 49.89 -759.66 49.89 -708.37 34.55 -708.37 34.55 -484.89 27.84 -484.89 27.84 -276.57 45.09 -276.57 45.09 -100.67 27.84 -100.67 27.84 47.64 45.09 47.64 45.09 273.66 342.21 273.66 346.05 273.66 622.23 273.66 627.98 273.66 923.19 273.66 923.19 47.64 940.44 47.64 940.44 -100.67 925.61 -100.67"/></g></svg>