<svg id="Layer_1" data-name="Layer 1" xmlns="http://www.w3.org/2000/svg" viewBox="0 0 162 162"><defs><style>.cls-1{fill:none;stroke:#fff;stroke-miterlimit:10;}</style></defs><polygon class="cls-1" points="-161.97 -0.03 -161.98 -161.99 0.02 -162 0.03 0 -161.97 -0.03"/><polygon class="cls-1" points="-161.96 161.98 -161.97 0.01 0.03 0 0.04 162 -161.96 161.98"/><polygon class="cls-1" points="-161.95 323.99 -161.96 162.01 0.04 162 0.05 324 -161.95 323.99"/><polygon class="cls-1" points="0.03 -0.03 0.02 -161.99 162.02 -162 162.03 0 0.03 -0.03"/><polygon class="cls-1" points="0.04 161.98 0.03 0.01 162.03 0 162.04 162 0.04 161.98"/><polygon class="cls-1" points="0.05 323.99 0.04 162.01 162.04 162 162.05 324 0.05 323.99"/><polygon class="cls-1" points="162.03 -0.03 162.02 -161.99 324.02 -162 324.03 0 162.03 -0.03"/><polygon class="cls-1" points="162.04 161.98 162.03 0.01 324.03 0 324.04 162 162.04 161.98"/><polygon class="cls-1" points="162.05 323.99 162.04 162.01 324.04 162 324.05 324 162.05 323.99"/><g id="NEW_PUZZLE" data-name="NEW PUZZLE"><path class="cls-1" d="M86.22-99c-1.43,1.09-22.59,10.85-23.56,31.51V24h47.11v-92.6C108.08-88.77,87.62-97.93,86.22-99Z"/><path class="cls-1" d="M75.15-72.39c3.34,0,6.43,2.61,7.76,6.76a17.76,17.76,0,0,1,.84,5c0,.21,0,.43,0,.64V24H66.54V-60c0-.21,0-.43,0-.64a17.41,17.41,0,0,1,.84-5c1.33-4.15,4.42-6.76,7.76-6.76Z"/><path class="cls-1" d="M97.28-72.39c3.35,0,6.43,2.61,7.77,6.76a18.12,18.12,0,0,1,.84,5V24H88.68V-60.62a18.12,18.12,0,0,1,.84-5c1.33-4.15,4.42-6.76,7.76-6.76Z"/><path class="cls-1" d="M135.63-99C134.2-97.91,113-88.15,112.07-67.49V24h47.11v-92.6C157.49-88.77,137-97.93,135.63-99Z"/><path class="cls-1" d="M124.56-72.39c3.34,0,6.43,2.61,7.76,6.76a17.76,17.76,0,0,1,.84,5c0,.21,0,.43,0,.64V24H116V-60c0-.21,0-.43,0-.64a17.41,17.41,0,0,1,.84-5c1.33-4.15,4.41-6.76,7.76-6.76Z"/><path class="cls-1" d="M146.69-72.39c3.35,0,6.43,2.61,7.77,6.76a17.76,17.76,0,0,1,.83,5c0,.21,0,.43,0,.64V24H138.09V-60.62a18.12,18.12,0,0,1,.84-5c1.33-4.15,4.42-6.76,7.76-6.76Z"/><path class="cls-1" d="M185-99c-1.43,1.09-22.59,10.85-23.56,31.51V24h47.11v-92.6C206.9-88.77,186.44-97.93,185-99Z"/><path class="cls-1" d="M89.7,69h.06v-.06a7.11,7.11,0,0,0,6.88-7.1h0a7.1,7.1,0,0,0-6.88-7.1H89.7a7.1,7.1,0,0,0-7.1-7h0a7.1,7.1,0,0,0-7.1,7h0a7.1,7.1,0,0,0-7.1,7.11h0a7.1,7.1,0,0,0,7.1,7.1h0V69h0a7.1,7.1,0,0,0,7.1,7h0A7.1,7.1,0,0,0,89.7,69Z"/><rect class="cls-1" x="5.75" y="-105.03" width="46.98" height="128.68"/><path class="cls-1" d="M18.36-73.31c3.35,0,6.43,2.62,7.76,6.8a17.67,17.67,0,0,1,.84,5c0,.22,0,.43,0,.65V23.65H9.75V-60.82c0-.22,0-.43,0-.65a18,18,0,0,1,.84-5c1.33-4.18,4.42-6.8,7.76-6.8Z"/><path class="cls-1" d="M40.5-73.31c3.34,0,6.43,2.62,7.76,6.8a18,18,0,0,1,.84,5c0,.22,0,.43,0,.65V23.65H31.89V-60.82c0-.22,0-.43,0-.65a17.67,17.67,0,0,1,.84-5c1.33-4.18,4.41-6.8,7.76-6.8Z"/><circle class="cls-1" cx="162.67" cy="135.99" r="83.74" transform="translate(-7.49 262.49) rotate(-76.52)"/><polygon class="cls-1" points="601.61 223.33 601.61 47.43 620.16 47.43 620.16 -149.38 614.52 -149.38 614.52 -383.41 599.19 -383.41 599.19 -434.7 259.51 -434.7 259.51 -383.41 244.18 -383.41 244.18 -145.71 225.01 -145.71 91.44 -145.71 80.9 -145.71 80.9 -384.37 65.56 -384.37 65.56 -435.66 -274.11 -435.66 -274.11 -384.37 -289.45 -384.37 -289.45 -160.89 -296.16 -160.89 -296.16 47.43 -278.91 47.43 -278.91 223.33 -296.16 223.33 -296.16 371.64 -278.91 371.64 -278.91 597.66 18.21 597.66 22.05 597.66 298.23 597.66 303.98 597.66 599.19 597.66 599.19 371.64 616.44 371.64 616.44 223.33 601.61 223.33"/></g></svg>