<svg id="Layer_1" data-name="Layer 1" xmlns="http://www.w3.org/2000/svg" viewBox="0 0 162 162"><defs><style>.cls-1{fill:none;stroke:#fff;stroke-miterlimit:10;}</style></defs><polygon class="cls-1" points="0.01 162 -161.99 161.95 -162 0.01 0 0 0.01 162"/><polygon class="cls-1" points="-161.98 323.95 -161.99 162.01 0.01 162 0.02 324 -161.98 323.95"/><polygon class="cls-1" points="162 162 0.01 161.95 -0.01 0.01 162 0 162 162"/><polygon class="cls-1" points="0.02 323.95 0.01 162.01 162 162 162.02 324 0.02 323.95"/><polygon class="cls-1" points="324 162 162 161.95 162 0.01 324 0 324 162"/><polygon class="cls-1" points="162.02 323.95 162 162.01 324 162 324.02 324 162.02 323.95"/><g id="NEW_PUZZLE" data-name="NEW PUZZLE"><path class="cls-1" d="M3.11,121.67c16.76,0,32.23,12.26,38.9,31.73A79.25,79.25,0,0,1,46.22,177c0,1,0,2,0,3V352.42H-40V180c0-1,0-2,0-3a79.24,79.24,0,0,1,4.2-23.55c6.68-19.47,22.15-31.73,38.9-31.73Z"/><path class="cls-1" d="M2.6,151.2c-1.56,1.2-24.76,19.37-25.82,42V352.53H28.42V191.94C26.56,169.89,4.13,152.38,2.6,151.2Z"/><path class="cls-1" d="M111,121.67c16.75,0,32.23,12.26,38.9,31.73a78.92,78.92,0,0,1,4.2,23.55c0,1,0,2,0,3V352.42H67.83V180c0-1,0-2,0-3a78.92,78.92,0,0,1,4.2-23.55c6.67-19.47,22.14-31.73,38.9-31.73Z"/><path class="cls-1" d="M110.45,151.2c-1.56,1.2-24.76,19.37-25.82,42V352.53h51.64V191.94C134.42,169.89,112,152.38,110.45,151.2Z"/><rect class="cls-1" x="-94.63" y="77.72" width="309.27" height="10"/><rect class="cls-1" x="-99.82" y="64.39" width="319.65" height="13.33"/><polygon class="cls-1" points="763.61 709.33 763.61 533.43 782.16 533.43 782.16 336.62 776.52 336.62 776.52 102.59 761.19 102.59 761.19 51.3 421.51 51.3 421.51 102.59 406.18 102.59 406.18 340.29 387.01 340.29 253.44 340.29 242.9 340.29 242.9 101.63 227.56 101.63 227.56 50.34 -112.11 50.34 -112.11 101.63 -127.45 101.63 -127.45 325.11 -134.16 325.11 -134.16 533.43 -116.91 533.43 -116.91 709.33 -134.16 709.33 -134.16 857.64 -116.91 857.64 -116.91 1083.66 180.21 1083.66 184.04 1083.66 460.23 1083.66 465.98 1083.66 761.19 1083.66 761.19 857.64 778.44 857.64 778.44 709.33 763.61 709.33"/></g></svg>