<svg id="Layer_1" data-name="Layer 1" xmlns="http://www.w3.org/2000/svg" viewBox="0 0 162 162"><defs><style>.cls-1{fill:none;stroke:#fff;stroke-miterlimit:10;}</style></defs><polygon class="cls-1" points="0.01 162 -162 161.95 -162 0.01 -0.01 0 0.01 162"/><polygon class="cls-1" points="-161.98 323.95 -162 162.01 0.01 162 0.02 324 -161.98 323.95"/><polygon class="cls-1" points="162 162 0.01 161.95 -0.01 0.01 162 0 162 162"/><polygon class="cls-1" points="0.02 323.95 0.01 162.01 162 162 162.02 324 0.02 323.95"/><polygon class="cls-1" points="324 162 162 161.95 162 0.01 324 0 324 162"/><polygon class="cls-1" points="162.02 323.95 162 162.01 324 162 324.02 324 162.02 323.95"/><g id="NEW_PUZZLE" data-name="NEW PUZZLE"><path class="cls-1" d="M154.21,352.38H127.66V143a13.26,13.26,0,0,1,13.26-13.26h0A13.27,13.27,0,0,1,154.21,143Z"/><rect class="cls-1" x="114.47" y="77.72" width="309.27" height="10"/><rect class="cls-1" x="109.27" y="64.39" width="319.65" height="13.33"/><polygon class="cls-1" points="439.61 709.33 439.61 533.43 458.16 533.43 458.16 336.62 452.52 336.62 452.52 102.59 437.19 102.59 437.19 51.3 97.51 51.3 97.51 102.59 82.18 102.59 82.18 340.29 63.01 340.29 -70.56 340.29 -81.1 340.29 -81.1 101.63 -96.44 101.63 -96.44 50.34 -436.11 50.34 -436.11 101.63 -451.45 101.63 -451.45 325.11 -458.16 325.11 -458.16 533.43 -440.91 533.43 -440.91 709.33 -458.16 709.33 -458.16 857.64 -440.91 857.64 -440.91 1083.66 -143.79 1083.66 -139.96 1083.66 136.23 1083.66 141.98 1083.66 437.19 1083.66 437.19 857.64 454.44 857.64 454.44 709.33 439.61 709.33"/></g></svg>