<svg id="Layer_1" data-name="Layer 1" xmlns="http://www.w3.org/2000/svg" viewBox="0 0 162 162"><defs><style>.cls-1{fill:none;stroke:#fff;stroke-miterlimit:10;}</style></defs><polygon class="cls-1" points="-161.94 0 -161.95 -161.99 0.05 -162 0.06 0 -161.94 0"/><rect class="cls-1" x="-161.94" y="0.01" width="162" height="162"/><polygon class="cls-1" points="0.06 0 0.05 -161.99 162.05 -162 162.06 0 0.06 0"/><rect class="cls-1" x="0.06" y="0.01" width="162" height="162"/><polygon class="cls-1" points="162.06 0 162.05 -161.99 324.05 -162 324.06 0 162.06 0"/><rect class="cls-1" x="162.06" y="0.01" width="162" height="162"/><g id="NEW_PUZZLE" data-name="NEW PUZZLE"><rect class="cls-1" x="7.79" y="-0.74" width="46.98" height="96"/><rect class="cls-1" x="7.79" y="-59.98" width="46.98" height="65.36"/><path class="cls-1" d="M68.82,95.74V-6.9c0-80.2,92.12-125,92.12-125S254.16-97.18,254.16-9.3v105Z"/><path class="cls-1" d="M85.16,89.61V-2.82c0-71.06,75.78-111.45,75.78-111.45S237.82-83,237.82-5.22V89.61Z"/><path class="cls-1" d="M101.5,83.49V3.31c0-77.57,61.42-99.51,61.42-99.51S221.48-66.84,221.48.91V83.49Z"/><path class="cls-1" d="M162.74-77.63s-44.9,14.06-44.9,80.94V77.36h87.3V.91C205.14-57.45,162.74-77.63,162.74-77.63Z"/><polygon class="cls-1" points="601.61 -262.67 601.61 -438.57 620.16 -438.57 620.16 -635.38 614.52 -635.38 614.52 -869.41 599.19 -869.41 599.19 -920.7 259.51 -920.7 259.51 -869.41 244.18 -869.41 244.18 -631.71 225.01 -631.71 91.44 -631.71 80.9 -631.71 80.9 -870.37 65.56 -870.37 65.56 -921.66 -274.11 -921.66 -274.11 -870.37 -289.45 -870.37 -289.45 -646.89 -296.16 -646.89 -296.16 -438.57 -278.91 -438.57 -278.91 -262.67 -296.16 -262.67 -296.16 -114.36 -278.91 -114.36 -278.91 111.66 18.21 111.66 22.05 111.66 298.23 111.66 303.98 111.66 599.19 111.66 599.19 -114.36 616.44 -114.36 616.44 -262.67 601.61 -262.67"/></g></svg>