<svg id="Layer_1" data-name="Layer 1" xmlns="http://www.w3.org/2000/svg" viewBox="0 0 162 162"><defs><style>.cls-1{fill:none;stroke:#fff;stroke-miterlimit:10;}</style></defs><polygon class="cls-1" points="-161.95 -0.01 -161.96 -161.99 0.04 -162 0.05 0 -161.95 -0.01"/><polygon class="cls-1" points="-161.94 162 -161.95 0.01 0.05 0 0.06 162 -161.94 162"/><rect class="cls-1" x="-161.93" y="162.01" width="162" height="162"/><polygon class="cls-1" points="0.05 -0.01 0.04 -161.99 162.04 -162 162.05 0 0.05 -0.01"/><polygon class="cls-1" points="0.06 162 0.05 0.01 162.05 0 162.06 162 0.06 162"/><rect class="cls-1" x="0.06" y="162.01" width="162" height="162"/><polygon class="cls-1" points="162.05 -0.01 162.04 -161.99 324.04 -162 324.05 0 162.05 -0.01"/><polygon class="cls-1" points="162.06 162 162.05 0.01 324.05 0 324.06 162 162.06 162"/><rect class="cls-1" x="162.06" y="162.01" width="162" height="162"/><g id="NEW_PUZZLE" data-name="NEW PUZZLE"><path class="cls-1" d="M-36.71,257.25V154.61c0-80.2,92.12-125,92.12-125s93.22,34.77,93.22,122.65v105Z"/><path class="cls-1" d="M-20.37,251.13V158.69c0-71,75.78-111.44,75.78-111.44s76.88,31.24,76.88,109.05v94.83Z"/><path class="cls-1" d="M-4,245V164.82c0-77.57,61.43-99.5,61.43-99.5S116,94.67,116,162.42V245Z"/><path class="cls-1" d="M57.22,83.88S12.31,97.94,12.31,164.82v74.05h87.3V162.42C99.61,104.07,57.22,83.88,57.22,83.88Z"/><path class="cls-1" d="M16.53,23.39H-10V-35.18A13.27,13.27,0,0,1,3.25-48.44h0A13.26,13.26,0,0,1,16.53-35.18Z"/><path class="cls-1" d="M44.42,23.39H17.87V-35.18A13.27,13.27,0,0,1,31.14-48.44h0A13.26,13.26,0,0,1,44.42-35.18Z"/><path class="cls-1" d="M72.31,23.39H45.76V-35.18A13.27,13.27,0,0,1,59-48.44h0A13.26,13.26,0,0,1,72.31-35.18Z"/><path class="cls-1" d="M100.21,23.39H73.65V-35.18A13.27,13.27,0,0,1,86.92-48.44h0a13.27,13.27,0,0,1,13.27,13.26Z"/><path class="cls-1" d="M128.1,23.39H101.54V-35.18a13.27,13.27,0,0,1,13.27-13.26h0A13.27,13.27,0,0,1,128.1-35.18Z"/><path class="cls-1" d="M156,23.39H129.43V-35.18A13.27,13.27,0,0,1,142.7-48.44h0A13.27,13.27,0,0,1,156-35.18Z"/><path class="cls-1" d="M183.88,23.39H157.32V-35.18a13.27,13.27,0,0,1,13.27-13.26h0a13.27,13.27,0,0,1,13.27,13.26Z"/><polygon class="cls-1" points="763.61 -100.67 763.61 -276.57 782.16 -276.57 782.16 -473.38 776.52 -473.38 776.52 -707.41 761.19 -707.41 761.19 -758.7 421.51 -758.7 421.51 -707.41 406.18 -707.41 406.18 -469.71 387.01 -469.71 253.44 -469.71 242.9 -469.71 242.9 -708.37 227.56 -708.37 227.56 -759.66 -112.11 -759.66 -112.11 -708.37 -127.45 -708.37 -127.45 -484.89 -134.16 -484.89 -134.16 -276.57 -116.91 -276.57 -116.91 -100.67 -134.16 -100.67 -134.16 47.64 -116.91 47.64 -116.91 273.66 180.21 273.66 184.04 273.66 460.23 273.66 465.98 273.66 761.19 273.66 761.19 47.64 778.44 47.64 778.44 -100.67 763.61 -100.67"/></g></svg>