<svg id="Layer_1" data-name="Layer 1" xmlns="http://www.w3.org/2000/svg" viewBox="0 0 162 162"><defs><style>.cls-1{fill:none;stroke:#fff;stroke-miterlimit:10;}</style></defs><polygon class="cls-1" points="-161.94 0 -161.95 -161.99 0.05 -162 0.06 0 -161.94 0"/><rect class="cls-1" x="-161.94" y="0.01" width="162" height="162"/><polygon class="cls-1" points="0.06 0 0.05 -161.99 162.05 -162 162.06 0 0.06 0"/><rect class="cls-1" x="0.06" y="0.01" width="162" height="162"/><polygon class="cls-1" points="162.06 0 162.05 -161.99 324.05 -162 324.06 0 162.06 0"/><rect class="cls-1" x="162.06" y="0.01" width="162" height="162"/><g id="NEW_PUZZLE" data-name="NEW PUZZLE"><rect class="cls-1" x="111.32" y="-0.74" width="46.98" height="96"/><rect class="cls-1" x="111.32" y="-59.98" width="46.98" height="65.36"/><path class="cls-1" d="M-93.18,95.74V-6.9c0-80.2,92.12-125,92.12-125S92.16-97.18,92.16-9.3v105Z"/><path class="cls-1" d="M-76.84,89.61V-2.82c0-71.06,75.78-111.45,75.78-111.45S75.82-83,75.82-5.22V89.61Z"/><path class="cls-1" d="M-60.5,83.49V3.31C-60.5-74.26.92-96.2.92-96.2S59.48-66.84,59.48.91V83.49Z"/><path class="cls-1" d="M.74-77.63s-44.9,14.06-44.9,80.94V77.36h87.3V.91C43.14-57.45.74-77.63.74-77.63Z"/><polygon class="cls-1" points="439.61 -262.67 439.61 -438.57 458.16 -438.57 458.16 -635.38 452.52 -635.38 452.52 -869.41 437.19 -869.41 437.19 -920.7 97.51 -920.7 97.51 -869.41 82.18 -869.41 82.18 -631.71 63.01 -631.71 -70.56 -631.71 -81.1 -631.71 -81.1 -870.37 -96.44 -870.37 -96.44 -921.66 -436.11 -921.66 -436.11 -870.37 -451.45 -870.37 -451.45 -646.89 -458.16 -646.89 -458.16 -438.57 -440.91 -438.57 -440.91 -262.67 -458.16 -262.67 -458.16 -114.36 -440.91 -114.36 -440.91 111.66 -143.79 111.66 -139.96 111.66 136.23 111.66 141.98 111.66 437.19 111.66 437.19 -114.36 454.44 -114.36 454.44 -262.67 439.61 -262.67"/></g></svg>