<svg id="Layer_1" data-name="Layer 1" xmlns="http://www.w3.org/2000/svg" viewBox="0 0 162 162"><defs><style>.cls-1{fill:none;stroke:#fff;stroke-miterlimit:10;}</style></defs><polygon class="cls-1" points="0.01 162 -162 161.95 -162 0.01 -0.01 0 0.01 162"/><polygon class="cls-1" points="-161.98 323.95 -162 162.01 0.01 162 0.02 324 -161.98 323.95"/><polygon class="cls-1" points="162 162 0.01 161.95 -0.01 0.01 162 0 162 162"/><polygon class="cls-1" points="0.02 323.95 0.01 162.01 162 162 162.02 324 0.02 323.95"/><polygon class="cls-1" points="324 162 162 161.95 162 0.01 324 0 324 162"/><polygon class="cls-1" points="162.02 323.95 162 162.01 324 162 324.02 324 162.02 323.95"/><g id="NEW_PUZZLE" data-name="NEW PUZZLE"><path class="cls-1" d="M30.26,352.38H3.71V143A13.26,13.26,0,0,1,17,129.75h0A13.27,13.27,0,0,1,30.26,143Z"/><rect class="cls-1" x="-256.63" y="77.72" width="309.27" height="10"/><rect class="cls-1" x="-261.82" y="64.39" width="319.65" height="13.33"/><polygon class="cls-1" points="601.61 709.33 601.61 533.43 620.16 533.43 620.16 336.62 614.52 336.62 614.52 102.59 599.19 102.59 599.19 51.3 259.51 51.3 259.51 102.59 244.18 102.59 244.18 340.29 225.01 340.29 91.44 340.29 80.9 340.29 80.9 101.63 65.56 101.63 65.56 50.34 -274.11 50.34 -274.11 101.63 -289.45 101.63 -289.45 325.11 -296.16 325.11 -296.16 533.43 -278.91 533.43 -278.91 709.33 -296.16 709.33 -296.16 857.64 -278.91 857.64 -278.91 1083.66 18.21 1083.66 22.05 1083.66 298.23 1083.66 303.98 1083.66 599.19 1083.66 599.19 857.64 616.44 857.64 616.44 709.33 601.61 709.33"/></g></svg>