<svg id="Layer_1" data-name="Layer 1" xmlns="http://www.w3.org/2000/svg" viewBox="0 0 162 162"><defs><style>.cls-1{fill:none;stroke:#fff;stroke-miterlimit:10;}</style></defs><polygon class="cls-1" points="0.01 162 -162 161.95 -162 0.01 -0.01 0 0.01 162"/><polygon class="cls-1" points="-161.98 323.95 -162 162.01 0.01 162 0.02 324 -161.98 323.95"/><polygon class="cls-1" points="162 162 0.01 161.95 -0.01 0.01 162 0 162 162"/><polygon class="cls-1" points="0.02 323.95 0.01 162.01 162 162 162.02 324 0.02 323.95"/><polygon class="cls-1" points="324.01 162 162.01 161.95 162 0.01 324 0 324.01 162"/><polygon class="cls-1" points="162.02 323.95 162.01 162.01 324.01 162 324.02 324 162.02 323.95"/><g id="NEW_PUZZLE" data-name="NEW PUZZLE"><path class="cls-1" d="M54.29,121.67c16.76,0,32.23,12.26,38.9,31.73A78.92,78.92,0,0,1,97.39,177c0,1,0,2,0,3V352.42H11.15V180c0-1,0-2,0-3a78.92,78.92,0,0,1,4.2-23.55c6.67-19.47,22.14-31.73,38.9-31.73Z"/><path class="cls-1" d="M53.78,151.2c-1.56,1.2-24.76,19.37-25.83,42V352.53H79.6V191.94C77.74,169.89,55.31,152.38,53.78,151.2Z"/><path class="cls-1" d="M162.15,121.67c16.75,0,32.22,12.26,38.9,31.73a79.24,79.24,0,0,1,4.2,23.55c0,1,0,2,0,3V352.42H119V180c0-1,0-2,0-3a79.25,79.25,0,0,1,4.21-23.55c6.67-19.47,22.14-31.73,38.9-31.73Z"/><path class="cls-1" d="M161.63,151.2c-1.56,1.2-24.76,19.37-25.82,42V352.53h51.64V191.94C185.6,169.89,163.17,152.38,161.63,151.2Z"/><rect class="cls-1" x="-47.53" y="77.72" width="309.27" height="10"/><rect class="cls-1" x="-52.73" y="64.39" width="319.65" height="13.33"/><polygon class="cls-1" points="277.61 709.33 277.61 533.43 296.16 533.43 296.16 336.62 290.52 336.62 290.52 102.59 275.19 102.59 275.19 51.3 -64.49 51.3 -64.49 102.59 -79.82 102.59 -79.82 340.29 -98.99 340.29 -232.56 340.29 -243.1 340.29 -243.1 101.63 -258.44 101.63 -258.44 50.34 -598.11 50.34 -598.11 101.63 -613.45 101.63 -613.45 325.11 -620.16 325.11 -620.16 533.43 -602.91 533.43 -602.91 709.33 -620.16 709.33 -620.16 857.64 -602.91 857.64 -602.91 1083.66 -305.79 1083.66 -301.95 1083.66 -25.77 1083.66 -20.02 1083.66 275.19 1083.66 275.19 857.64 292.44 857.64 292.44 709.33 277.61 709.33"/></g></svg>