<svg id="Layer_1" data-name="Layer 1" xmlns="http://www.w3.org/2000/svg" viewBox="0 0 162 162"><defs><style>.cls-1{fill:none;stroke:#fff;stroke-miterlimit:10;}</style></defs><polygon class="cls-1" points="0.01 0 -161.99 -0.05 -162 -161.99 0 -162 0.01 0"/><polygon class="cls-1" points="-161.98 161.96 -161.99 0.01 0.01 0 0.02 162 -161.98 161.96"/><polygon class="cls-1" points="-161.97 323.97 -161.98 162.01 0.02 162 0.03 324 -161.97 323.97"/><polygon class="cls-1" points="162 0 0.01 -0.05 -0.01 -161.99 162 -162 162 0"/><polygon class="cls-1" points="0.02 161.96 0.01 0.01 162 0 162.02 162 0.02 161.96"/><polygon class="cls-1" points="0.03 323.97 0.02 162.01 162.02 162 162.03 324 0.03 323.97"/><polygon class="cls-1" points="324 0 162 -0.05 162 -161.99 324 -162 324 0"/><polygon class="cls-1" points="162.02 161.96 162 0.01 324 0 324.02 162 162.02 161.96"/><polygon class="cls-1" points="162.03 323.97 162.02 162.01 324.02 162 324.03 324 162.03 323.97"/><g id="NEW_PUZZLE" data-name="NEW PUZZLE"><path class="cls-1" d="M3.11-40.33C19.87-40.33,35.34-28.07,42-8.6A79.25,79.25,0,0,1,46.22,15c0,1,0,2,0,3V190.42H-40V18c0-1,0-2,0-3A79.24,79.24,0,0,1-35.79-8.6c6.68-19.47,22.15-31.73,38.9-31.73Z"/><path class="cls-1" d="M2.6-10.8C1-9.6-22.16,8.57-23.22,31.22V190.53H28.42V29.94C26.56,7.89,4.13-9.62,2.6-10.8Z"/><path class="cls-1" d="M111-40.33c16.75,0,32.23,12.26,38.9,31.73A78.92,78.92,0,0,1,154.07,15c0,1,0,2,0,3V190.42H67.83V18c0-1,0-2,0-3A78.92,78.92,0,0,1,72.07-8.6C78.74-28.07,94.21-40.33,111-40.33Z"/><path class="cls-1" d="M110.45-10.8c-1.56,1.2-24.76,19.37-25.82,42V190.53h51.64V29.94C134.42,7.89,112-9.62,110.45-10.8Z"/><polygon class="cls-1" points="763.61 547.33 763.61 371.43 782.16 371.43 782.16 174.62 776.52 174.62 776.52 -59.41 761.19 -59.41 761.19 -110.7 421.51 -110.7 421.51 -59.41 406.18 -59.41 406.18 178.29 387.01 178.29 253.44 178.29 242.9 178.29 242.9 -60.37 227.56 -60.37 227.56 -111.66 -112.11 -111.66 -112.11 -60.37 -127.45 -60.37 -127.45 163.11 -134.16 163.11 -134.16 371.43 -116.91 371.43 -116.91 547.33 -134.16 547.33 -134.16 695.64 -116.91 695.64 -116.91 921.66 180.21 921.66 184.04 921.66 460.23 921.66 465.98 921.66 761.19 921.66 761.19 695.64 778.44 695.64 778.44 547.33 763.61 547.33"/></g></svg>