<svg id="Layer_1" data-name="Layer 1" xmlns="http://www.w3.org/2000/svg" viewBox="0 0 162 162"><defs><style>.cls-1{fill:none;stroke:#fff;stroke-miterlimit:10;}</style></defs><polygon class="cls-1" points="0.01 0 -162 -0.05 -162 -161.99 -0.01 -162 0.01 0"/><polygon class="cls-1" points="-161.98 161.96 -162 0.01 0.01 0 0.02 162 -161.98 161.96"/><polygon class="cls-1" points="-161.97 323.97 -161.98 162.01 0.02 162 0.03 324 -161.97 323.97"/><polygon class="cls-1" points="162 0 0.01 -0.05 -0.01 -161.99 162 -162 162 0"/><polygon class="cls-1" points="0.02 161.96 0.01 0.01 162 0 162.02 162 0.02 161.96"/><polygon class="cls-1" points="0.03 323.97 0.02 162.01 162.02 162 162.03 324 0.03 323.97"/><polygon class="cls-1" points="324 0 162 -0.05 162 -161.99 324 -162 324 0"/><polygon class="cls-1" points="162.02 161.96 162 0.01 324 0 324.02 162 162.02 161.96"/><polygon class="cls-1" points="162.03 323.97 162.02 162.01 324.02 162 324.03 324 162.03 323.97"/><g id="NEW_PUZZLE" data-name="NEW PUZZLE"><path class="cls-1" d="M154.21,190.38H127.66V-19a13.26,13.26,0,0,1,13.26-13.26h0A13.27,13.27,0,0,1,154.21-19Z"/><polygon class="cls-1" points="439.61 547.33 439.61 371.43 458.16 371.43 458.16 174.62 452.52 174.62 452.52 -59.41 437.19 -59.41 437.19 -110.7 97.51 -110.7 97.51 -59.41 82.18 -59.41 82.18 178.29 63.01 178.29 -70.56 178.29 -81.1 178.29 -81.1 -60.37 -96.44 -60.37 -96.44 -111.66 -436.11 -111.66 -436.11 -60.37 -451.45 -60.37 -451.45 163.11 -458.16 163.11 -458.16 371.43 -440.91 371.43 -440.91 547.33 -458.16 547.33 -458.16 695.64 -440.91 695.64 -440.91 921.66 -143.79 921.66 -139.96 921.66 136.23 921.66 141.98 921.66 437.19 921.66 437.19 695.64 454.44 695.64 454.44 547.33 439.61 547.33"/></g></svg>