<svg id="Layer_1" data-name="Layer 1" xmlns="http://www.w3.org/2000/svg" viewBox="0 0 162 162"><defs><style>.cls-1{fill:none;stroke:#fff;stroke-miterlimit:10;}</style></defs><polygon class="cls-1" points="0.01 0 -162 -0.05 -162 -161.99 -0.01 -162 0.01 0"/><polygon class="cls-1" points="-161.98 161.96 -162 0.01 0.01 0 0.02 162 -161.98 161.96"/><polygon class="cls-1" points="-161.97 323.97 -161.98 162.01 0.02 162 0.03 324 -161.97 323.97"/><polygon class="cls-1" points="162.01 0 0.01 -0.05 0 -161.99 162 -162 162.01 0"/><polygon class="cls-1" points="0.02 161.96 0.01 0.01 162.01 0 162.02 162 0.02 161.96"/><polygon class="cls-1" points="0.03 323.97 0.02 162.01 162.02 162 162.03 324 0.03 323.97"/><g id="NEW_PUZZLE" data-name="NEW PUZZLE"><path class="cls-1" d="M.15-40.33c16.75,0,32.22,12.26,38.9,31.73A79.24,79.24,0,0,1,43.25,15c0,1,0,2,0,3V190.42H-43V18c0-1,0-2,0-3A79.25,79.25,0,0,1-38.75-8.6C-32.08-28.07-16.61-40.33.15-40.33Z"/><path class="cls-1" d="M-.37-10.8c-1.56,1.2-24.76,19.37-25.82,42V190.53H25.45V29.94C23.6,7.89,1.17-9.62-.37-10.8Z"/><path class="cls-1" d="M81.44,190.38H54.88V-19A13.27,13.27,0,0,1,68.15-32.25h0A13.27,13.27,0,0,1,81.44-19Z"/><polygon class="cls-1" points="115.61 547.33 115.61 371.43 134.16 371.43 134.16 174.62 128.52 174.62 128.52 -59.41 113.19 -59.41 113.19 -110.7 -226.49 -110.7 -226.49 -59.41 -241.82 -59.41 -241.82 178.29 -260.99 178.29 -394.56 178.29 -405.1 178.29 -405.1 -60.37 -420.44 -60.37 -420.44 -111.66 -760.11 -111.66 -760.11 -60.37 -775.45 -60.37 -775.45 163.11 -782.16 163.11 -782.16 371.43 -764.91 371.43 -764.91 547.33 -782.16 547.33 -782.16 695.64 -764.91 695.64 -764.91 921.66 -467.79 921.66 -463.95 921.66 -187.77 921.66 -182.02 921.66 113.19 921.66 113.19 695.64 130.44 695.64 130.44 547.33 115.61 547.33"/></g></svg>