<svg id="Layer_1" data-name="Layer 1" xmlns="http://www.w3.org/2000/svg" viewBox="0 0 162 162"><defs><style>.cls-1{fill:none;stroke:#fff;stroke-miterlimit:10;}</style></defs><polygon class="cls-1" points="-161.95 -0.01 -161.96 -161.99 0.04 -162 0.05 0 -161.95 -0.01"/><polygon class="cls-1" points="-161.94 162 -161.95 0.01 0.05 0 0.06 162 -161.94 162"/><rect class="cls-1" x="-161.94" y="162.01" width="162" height="162"/><polygon class="cls-1" points="0.05 -0.01 0.04 -161.99 162.04 -162 162.05 0 0.05 -0.01"/><polygon class="cls-1" points="0.06 162 0.05 0.01 162.05 0 162.06 162 0.06 162"/><rect class="cls-1" x="0.06" y="162.01" width="162" height="162"/><polygon class="cls-1" points="162.05 -0.01 162.04 -161.99 324.04 -162 324.05 0 162.05 -0.01"/><polygon class="cls-1" points="162.06 162 162.05 0.01 324.05 0 324.06 162 162.06 162"/><rect class="cls-1" x="162.07" y="162.01" width="162" height="162"/><g id="NEW_PUZZLE" data-name="NEW PUZZLE"><path class="cls-1" d="M14.47,257.25V154.61c0-80.2,92.12-125,92.12-125s93.22,34.77,93.22,122.65v105Z"/><path class="cls-1" d="M30.81,251.13V158.69c0-71,75.78-111.44,75.78-111.44s76.88,31.24,76.88,109.05v94.83Z"/><path class="cls-1" d="M47.15,245V164.82c0-77.57,61.42-99.5,61.42-99.5s58.56,29.35,58.56,97.1V245Z"/><path class="cls-1" d="M108.4,83.88S63.49,97.94,63.49,164.82v74.05h87.3V162.42C150.79,104.07,108.4,83.88,108.4,83.88Z"/><path class="cls-1" d="M4.68,23.39H-21.88V-35.18A13.27,13.27,0,0,1-8.61-48.44h0A13.27,13.27,0,0,1,4.68-35.18Z"/><path class="cls-1" d="M32.57,23.39H6V-35.18A13.27,13.27,0,0,1,19.28-48.44h0A13.27,13.27,0,0,1,32.57-35.18Z"/><path class="cls-1" d="M60.46,23.39H33.9V-35.18A13.27,13.27,0,0,1,47.17-48.44h0A13.27,13.27,0,0,1,60.46-35.18Z"/><path class="cls-1" d="M88.35,23.39H61.79V-35.18A13.27,13.27,0,0,1,75.06-48.44h0A13.27,13.27,0,0,1,88.35-35.18Z"/><path class="cls-1" d="M116.24,23.39H89.69V-35.18A13.26,13.26,0,0,1,103-48.44h0a13.27,13.27,0,0,1,13.27,13.26Z"/><path class="cls-1" d="M144.13,23.39H117.58V-35.18a13.26,13.26,0,0,1,13.26-13.26h0a13.27,13.27,0,0,1,13.27,13.26Z"/><path class="cls-1" d="M172,23.39H145.47V-35.18a13.26,13.26,0,0,1,13.26-13.26h0A13.27,13.27,0,0,1,172-35.18Z"/><polygon class="cls-1" points="277.61 -100.67 277.61 -276.57 296.16 -276.57 296.16 -473.38 290.52 -473.38 290.52 -707.41 275.19 -707.41 275.19 -758.7 -64.49 -758.7 -64.49 -707.41 -79.82 -707.41 -79.82 -469.71 -98.99 -469.71 -232.56 -469.71 -243.1 -469.71 -243.1 -708.37 -258.44 -708.37 -258.44 -759.66 -598.11 -759.66 -598.11 -708.37 -613.45 -708.37 -613.45 -484.89 -620.16 -484.89 -620.16 -276.57 -602.91 -276.57 -602.91 -100.67 -620.16 -100.67 -620.16 47.64 -602.91 47.64 -602.91 273.66 -305.79 273.66 -301.95 273.66 -25.77 273.66 -20.02 273.66 275.19 273.66 275.19 47.64 292.44 47.64 292.44 -100.67 277.61 -100.67"/></g></svg>