<svg id="Layer_1" data-name="Layer 1" xmlns="http://www.w3.org/2000/svg" viewBox="0 0 162 162"><defs><style>.cls-1{fill:none;stroke:#fff;stroke-miterlimit:10;}</style></defs><polygon class="cls-1" points="-161.97 -0.03 -161.98 -161.99 0.02 -162 0.03 0 -161.97 -0.03"/><polygon class="cls-1" points="-161.96 161.98 -161.97 0.01 0.03 0 0.04 162 -161.96 161.98"/><polygon class="cls-1" points="-161.95 323.99 -161.96 162.01 0.04 162 0.05 324 -161.95 323.99"/><polygon class="cls-1" points="0.03 -0.03 0.02 -161.99 162.02 -162 162.03 0 0.03 -0.03"/><polygon class="cls-1" points="0.04 161.98 0.03 0.01 162.03 0 162.04 162 0.04 161.98"/><polygon class="cls-1" points="0.05 323.99 0.04 162.01 162.04 162 162.05 324 0.05 323.99"/><polygon class="cls-1" points="162.03 -0.03 162.02 -161.99 324.02 -162 324.03 0 162.03 -0.03"/><polygon class="cls-1" points="162.04 161.98 162.03 0.01 324.03 0 324.04 162 162.04 161.98"/><polygon class="cls-1" points="162.05 323.99 162.04 162.01 324.04 162 324.05 324 162.05 323.99"/><g id="NEW_PUZZLE" data-name="NEW PUZZLE"><path class="cls-1" d="M29.78-99C28.36-97.91,7.2-88.15,6.23-67.49V24H53.34v-92.6C51.64-88.77,31.18-97.93,29.78-99Z"/><path class="cls-1" d="M18.72-72.39c3.34,0,6.43,2.61,7.76,6.76a18.12,18.12,0,0,1,.84,5V24H10.11V-60c0-.21,0-.43,0-.64a17.76,17.76,0,0,1,.83-5c1.34-4.15,4.42-6.76,7.77-6.76Z"/><path class="cls-1" d="M40.85-72.39c3.35,0,6.43,2.61,7.76,6.76a17.41,17.41,0,0,1,.84,5c0,.21,0,.43,0,.64V24H32.24V-60c0-.21,0-.43,0-.64a17.76,17.76,0,0,1,.84-5c1.33-4.15,4.42-6.76,7.76-6.76Z"/><path class="cls-1" d="M79.19-99c-1.42,1.09-22.58,10.85-23.55,31.51V24h47.11v-92.6C101.05-88.77,80.59-97.93,79.19-99Z"/><path class="cls-1" d="M68.13-72.39c3.34,0,6.43,2.61,7.76,6.76a18.12,18.12,0,0,1,.84,5V24H59.52V-60c0-.21,0-.43,0-.64a17.76,17.76,0,0,1,.83-5c1.34-4.15,4.42-6.76,7.77-6.76Z"/><path class="cls-1" d="M90.26-72.39c3.34,0,6.43,2.61,7.76,6.76a17.41,17.41,0,0,1,.84,5c0,.21,0,.43,0,.64V24H81.65V-60c0-.21,0-.43,0-.64a17.76,17.76,0,0,1,.84-5c1.33-4.15,4.42-6.76,7.76-6.76Z"/><path class="cls-1" d="M128.6-99c-1.42,1.09-22.58,10.85-23.55,31.51V24h47.11v-92.6C150.46-88.77,130-97.93,128.6-99Z"/><path class="cls-1" d="M117.53-72.39c3.35,0,6.44,2.61,7.77,6.76a18.12,18.12,0,0,1,.84,5V24H108.93V-60.62a18.12,18.12,0,0,1,.84-5c1.33-4.15,4.42-6.76,7.76-6.76Z"/><path class="cls-1" d="M139.67-72.39c3.34,0,6.43,2.61,7.76,6.76a17.41,17.41,0,0,1,.84,5c0,.21,0,.43,0,.64V24H131.06V-60c0-.21,0-.43,0-.64a17.76,17.76,0,0,1,.84-5c1.33-4.15,4.42-6.76,7.76-6.76Z"/><path class="cls-1" d="M178-99c-1.42,1.09-22.58,10.85-23.55,31.51V24h47.11v-92.6C199.87-88.77,179.41-97.93,178-99Z"/><path class="cls-1" d="M166.94-72.39c3.35,0,6.43,2.61,7.77,6.76a17.76,17.76,0,0,1,.83,5c0,.21,0,.43,0,.64V24H158.34V-60.62a18.12,18.12,0,0,1,.84-5c1.33-4.15,4.42-6.76,7.76-6.76Z"/><path class="cls-1" d="M106.88,62.46c-24.9-.19-69.58,37.6-84,62.72a67,67,0,0,0-8.61,33.31V234H199.52v-74a67.38,67.38,0,0,0-9.29-34.48C175.41,100.8,131.69,62.65,106.88,62.46Z"/><path class="cls-1" d="M33.27,69h.06v-.06a7.11,7.11,0,0,0,6.88-7.1h0a7.1,7.1,0,0,0-6.88-7.1h-.06a7.1,7.1,0,0,0-7.1-7h0a7.1,7.1,0,0,0-7.1,7h0A7.11,7.11,0,0,0,12,61.79h0a7.1,7.1,0,0,0,7.11,7.1h0V69h0a7.1,7.1,0,0,0,7.1,7h0A7.1,7.1,0,0,0,33.27,69Z"/><circle class="cls-1" cx="106.59" cy="115.56" r="28.59" transform="translate(-24.61 202.19) rotate(-80.75)"/><path class="cls-1" d="M99.39,94.75a7.1,7.1,0,0,0-7.1,7h0a7.11,7.11,0,0,0,0,14.21l14-.31.22-13.9A7.11,7.11,0,0,0,99.39,94.75Z"/><path class="cls-1" d="M106.5,115.64l13.89.47h0a7.11,7.11,0,0,0,7.2-6.89h0a7.1,7.1,0,0,0-6.77-7.31h0a7.12,7.12,0,0,0-6.89-7.32h0a7.1,7.1,0,0,0-7.31,6.89h0Z"/><path class="cls-1" d="M110.58,115.72a4.09,4.09,0,1,1-4.08-4.08A4.09,4.09,0,0,1,110.58,115.72Z"/><path class="cls-1" d="M66.62,138.11c-1.43,1.28-22.59,8.74-23.56,33v63H90.17V169.7C88.48,146.12,68,139.37,66.62,138.11Z"/><path class="cls-1" d="M146.27,138.11c-1.42,1.28-22.58,8.74-23.55,33V234l47.11,0V169.7C168.13,146.12,147.67,139.37,146.27,138.11Z"/><path class="cls-1" d="M113.49,136.92a7.1,7.1,0,0,0,7.1-7h0a7.11,7.11,0,1,0,0-14.21l-14,.31-.21,13.9A7.1,7.1,0,0,0,113.49,136.92Z"/><path class="cls-1" d="M106.39,116l-13.89-.46h0a7.09,7.09,0,0,0-7.2,6.88h0a7.09,7.09,0,0,0,6.77,7.31h0A7.1,7.1,0,0,0,99,137.08h0a7.1,7.1,0,0,0,7.31-6.89h0Z"/><polygon class="cls-1" points="277.61 223.33 277.61 47.43 296.16 47.43 296.16 -149.38 290.52 -149.38 290.52 -383.41 275.19 -383.41 275.19 -434.7 -64.49 -434.7 -64.49 -383.41 -79.82 -383.41 -79.82 -145.71 -98.99 -145.71 -232.56 -145.71 -243.1 -145.71 -243.1 -384.37 -258.44 -384.37 -258.44 -435.66 -598.11 -435.66 -598.11 -384.37 -613.45 -384.37 -613.45 -160.89 -620.16 -160.89 -620.16 47.43 -602.91 47.43 -602.91 223.33 -620.16 223.33 -620.16 371.64 -602.91 371.64 -602.91 597.66 -305.79 597.66 -301.95 597.66 -25.77 597.66 -20.02 597.66 275.19 597.66 275.19 371.64 292.44 371.64 292.44 223.33 277.61 223.33"/></g></svg>