<svg id="Layer_1" data-name="Layer 1" xmlns="http://www.w3.org/2000/svg" viewBox="0 0 162 162"><defs><style>.cls-1{fill:none;stroke:#fff;stroke-miterlimit:10;}</style></defs><polygon class="cls-1" points="0.02 -0.04 0.01 -161.99 162.01 -162 162.02 0 0.02 -0.04"/><polygon class="cls-1" points="0.03 161.97 0.02 0.01 162.02 0 162.03 162 0.03 161.97"/><polygon class="cls-1" points="0.04 323.98 0.03 162.01 162.03 162 162.04 324 0.04 323.98"/><polygon class="cls-1" points="162.02 -0.04 162 -161.99 324 -162 324.02 0 162.02 -0.04"/><polygon class="cls-1" points="162.03 161.97 162.02 0.01 324.02 0 324.03 162 162.03 161.97"/><polygon class="cls-1" points="162.04 323.98 162.03 162.01 324.03 162 324.04 324 162.04 323.98"/><g id="NEW_PUZZLE" data-name="NEW PUZZLE"><path class="cls-1" d="M165.11-202.33c16.76,0,32.23,12.26,38.9,31.73A79.25,79.25,0,0,1,208.22-147c0,1,0,2,0,3V28.42H122V-144c0-1,0-2,0-3a79.24,79.24,0,0,1,4.2-23.55c6.68-19.47,22.15-31.73,38.9-31.73Z"/><path class="cls-1" d="M164.6-172.8c-1.56,1.2-24.76,19.37-25.82,42V28.53h51.64V-132.06C188.56-154.11,166.13-171.62,164.6-172.8Z"/><path class="cls-1" d="M144.69,63c-1.42,1.09-22.58,10.85-23.55,31.51V186h47.1V93.35C166.55,73.23,146.09,64.07,144.69,63Z"/><path class="cls-1" d="M133.62,89.61c3.35,0,6.43,2.61,7.77,6.76a17.76,17.76,0,0,1,.83,5c0,.21,0,.43,0,.64V186H125V101.38a18.12,18.12,0,0,1,.84-5c1.33-4.15,4.42-6.76,7.76-6.76Z"/><path class="cls-1" d="M155.76,89.61c3.34,0,6.43,2.61,7.76,6.76a17.76,17.76,0,0,1,.84,5c0,.21,0,.43,0,.64V186H147.15V102c0-.21,0-.43,0-.64a17.41,17.41,0,0,1,.84-5c1.33-4.15,4.42-6.76,7.76-6.76Z"/><rect class="cls-1" x="60.14" y="56.97" width="46.98" height="128.68"/><path class="cls-1" d="M72.75,88.69c3.34,0,6.43,2.62,7.76,6.8a17.67,17.67,0,0,1,.84,5c0,.22,0,.43,0,.65v84.47H64.14V101.18c0-.22,0-.43,0-.65a18,18,0,0,1,.84-5c1.33-4.18,4.42-6.8,7.76-6.8Z"/><path class="cls-1" d="M94.89,88.69c3.34,0,6.43,2.62,7.76,6.8a18,18,0,0,1,.84,5c0,.22,0,.43,0,.65v84.47H86.28V101.18c0-.22,0-.43,0-.65a17.67,17.67,0,0,1,.84-5c1.33-4.18,4.41-6.8,7.76-6.8Z"/><path class="cls-1" d="M92.82,73.31a8.17,8.17,0,1,1-8.17-8.17A8.17,8.17,0,0,1,92.82,73.31Z"/><path class="cls-1" d="M103,28.38H76.48V-181a13.26,13.26,0,0,1,13.26-13.26h0A13.26,13.26,0,0,1,103-181Z"/><rect class="cls-1" x="60.14" y="44.72" width="851.72" height="12.25"/><polygon class="cls-1" points="926.16 28.38 45.84 28.38 45.84 44.72 60.14 44.72 911.86 44.72 926.16 44.72 926.16 28.38"/><polygon class="cls-1" points="925.61 385.33 925.61 209.43 944.16 209.43 944.16 12.62 938.52 12.62 938.52 -221.41 923.19 -221.41 923.19 -272.7 583.51 -272.7 583.51 -221.41 568.18 -221.41 568.18 16.29 549.01 16.29 415.44 16.29 404.9 16.29 404.9 -222.37 389.56 -222.37 389.56 -273.66 49.89 -273.66 49.89 -222.37 34.55 -222.37 34.55 1.11 27.84 1.11 27.84 209.43 45.09 209.43 45.09 385.33 27.84 385.33 27.84 533.64 45.09 533.64 45.09 759.66 342.21 759.66 346.05 759.66 622.23 759.66 627.98 759.66 923.19 759.66 923.19 533.64 940.44 533.64 940.44 385.33 925.61 385.33"/></g></svg>