<svg id="Layer_1" data-name="Layer 1" xmlns="http://www.w3.org/2000/svg" viewBox="0 0 162 162"><defs><style>.cls-1{fill:none;stroke:#fff;stroke-miterlimit:10;}</style></defs><polygon class="cls-1" points="-161.94 0 -161.95 -161.99 0.05 -162 0.06 0 -161.94 0"/><rect class="cls-1" x="-161.93" y="0.01" width="162" height="162"/><polygon class="cls-1" points="0.06 0 0.05 -161.99 162.05 -162 162.06 0 0.06 0"/><rect class="cls-1" x="0.06" y="0.01" width="162" height="162"/><polygon class="cls-1" points="162.06 0 162.05 -161.99 324.05 -162 324.06 0 162.06 0"/><rect class="cls-1" x="162.06" y="0.01" width="162" height="162"/><g id="NEW_PUZZLE" data-name="NEW PUZZLE"><path class="cls-1" d="M-36.71,95.25V-7.39c0-80.2,92.12-125,92.12-125S148.63-97.67,148.63-9.79v105Z"/><path class="cls-1" d="M-20.37,89.13V-3.31c0-71,75.78-111.44,75.78-111.44S132.29-83.51,132.29-5.7V89.13Z"/><path class="cls-1" d="M-4,83V2.82c0-77.57,61.43-99.5,61.43-99.5S116-67.33,116,.42V83Z"/><path class="cls-1" d="M57.22-78.12S12.31-64.06,12.31,2.82V76.87h87.3V.42C99.61-57.93,57.22-78.12,57.22-78.12Z"/><polygon class="cls-1" points="763.61 -262.67 763.61 -438.57 782.16 -438.57 782.16 -635.38 776.52 -635.38 776.52 -869.41 761.19 -869.41 761.19 -920.7 421.51 -920.7 421.51 -869.41 406.18 -869.41 406.18 -631.71 387.01 -631.71 253.44 -631.71 242.9 -631.71 242.9 -870.37 227.56 -870.37 227.56 -921.66 -112.11 -921.66 -112.11 -870.37 -127.45 -870.37 -127.45 -646.89 -134.16 -646.89 -134.16 -438.57 -116.91 -438.57 -116.91 -262.67 -134.16 -262.67 -134.16 -114.36 -116.91 -114.36 -116.91 111.66 180.21 111.66 184.04 111.66 460.23 111.66 465.98 111.66 761.19 111.66 761.19 -114.36 778.44 -114.36 778.44 -262.67 763.61 -262.67"/></g></svg>