<svg id="Layer_1" data-name="Layer 1" xmlns="http://www.w3.org/2000/svg" viewBox="0 0 162 162"><defs><style>.cls-1{fill:none;stroke:#fff;stroke-miterlimit:10;}</style></defs><polygon class="cls-1" points="0.01 162 -162 161.95 -162 0.01 -0.01 0 0.01 162"/><polygon class="cls-1" points="-161.98 323.95 -162 162.01 0.01 162 0.02 324 -161.98 323.95"/><polygon class="cls-1" points="162.01 162 0.01 161.95 0 0.01 162 0 162.01 162"/><polygon class="cls-1" points="0.02 323.95 0.01 162.01 162.01 162 162.02 324 0.02 323.95"/><g id="NEW_PUZZLE" data-name="NEW PUZZLE"><path class="cls-1" d="M.15,121.67c16.75,0,32.22,12.26,38.9,31.73A79.24,79.24,0,0,1,43.25,177c0,1,0,2,0,3V352.42H-43V180c0-1,0-2,0-3a79.25,79.25,0,0,1,4.21-23.55c6.67-19.47,22.14-31.73,38.9-31.73Z"/><path class="cls-1" d="M-.37,151.2c-1.56,1.2-24.76,19.37-25.82,42V352.53H25.45V191.94C23.6,169.89,1.17,152.38-.37,151.2Z"/><path class="cls-1" d="M81.44,352.38H54.88V143a13.27,13.27,0,0,1,13.27-13.26h0A13.27,13.27,0,0,1,81.44,143Z"/><rect class="cls-1" x="-209.53" y="77.72" width="309.27" height="10"/><rect class="cls-1" x="-214.73" y="64.39" width="319.65" height="13.33"/><polygon class="cls-1" points="115.61 709.33 115.61 533.43 134.16 533.43 134.16 336.62 128.52 336.62 128.52 102.59 113.19 102.59 113.19 51.3 -226.49 51.3 -226.49 102.59 -241.82 102.59 -241.82 340.29 -260.99 340.29 -394.56 340.29 -405.1 340.29 -405.1 101.63 -420.44 101.63 -420.44 50.34 -760.11 50.34 -760.11 101.63 -775.45 101.63 -775.45 325.11 -782.16 325.11 -782.16 533.43 -764.91 533.43 -764.91 709.33 -782.16 709.33 -782.16 857.64 -764.91 857.64 -764.91 1083.66 -467.79 1083.66 -463.95 1083.66 -187.77 1083.66 -182.02 1083.66 113.19 1083.66 113.19 857.64 130.44 857.64 130.44 709.33 115.61 709.33"/></g></svg>