<svg id="Layer_1" data-name="Layer 1" xmlns="http://www.w3.org/2000/svg" viewBox="0 0 162 162"><defs><style>.cls-1{fill:none;stroke:#fff;stroke-miterlimit:10;}</style></defs><polygon class="cls-1" points="-161.96 -0.02 -161.97 -161.99 0.03 -162 0.04 0 -161.96 -0.02"/><polygon class="cls-1" points="-161.95 161.99 -161.96 0.01 0.04 0 0.05 162 -161.95 161.99"/><polygon class="cls-1" points="-161.94 324 -161.95 162.01 0.05 162 0.06 324 -161.94 324"/><polygon class="cls-1" points="0.04 -0.02 0.03 -161.99 162.03 -162 162.04 0 0.04 -0.02"/><polygon class="cls-1" points="0.05 161.99 0.04 0.01 162.04 0 162.05 162 0.05 161.99"/><polygon class="cls-1" points="0.06 324 0.05 162.01 162.05 162 162.06 324 0.06 324"/><polygon class="cls-1" points="162.04 -0.02 162.03 -161.99 324.03 -162 324.04 0 162.04 -0.02"/><polygon class="cls-1" points="162.05 161.99 162.04 0.01 324.04 0 324.05 162 162.05 161.99"/><polygon class="cls-1" points="162.06 324 162.05 162.01 324.05 162 324.06 324 162.06 324"/><g id="NEW_PUZZLE" data-name="NEW PUZZLE"><path class="cls-1" d="M106.88-99.54c-24.9-.19-69.58,37.6-84,62.72A67,67,0,0,0,14.24-3.51V72H199.52v-74a67.38,67.38,0,0,0-9.29-34.48C175.41-61.2,131.69-99.35,106.88-99.54Z"/><path class="cls-1" d="M66.62-23.89c-1.43,1.28-22.59,8.74-23.56,33V72H90.17V7.7C88.48-15.88,68-22.63,66.62-23.89Z"/><path class="cls-1" d="M146.27-23.89c-1.42,1.28-22.58,8.74-23.55,33V72l47.11,0V7.7C168.13-15.88,147.67-22.63,146.27-23.89Z"/><path class="cls-1" d="M4.68,185.39H-21.88V126.82A13.27,13.27,0,0,1-8.61,113.56h0A13.27,13.27,0,0,1,4.68,126.82Z"/><path class="cls-1" d="M32.57,185.39H6V126.82a13.27,13.27,0,0,1,13.27-13.26h0a13.27,13.27,0,0,1,13.27,13.26Z"/><path class="cls-1" d="M60.46,185.39H33.9V126.82a13.27,13.27,0,0,1,13.27-13.26h0a13.27,13.27,0,0,1,13.27,13.26Z"/><path class="cls-1" d="M88.35,185.39H61.79V126.82a13.27,13.27,0,0,1,13.27-13.26h0a13.27,13.27,0,0,1,13.27,13.26Z"/><path class="cls-1" d="M116.24,185.39H89.69V126.82A13.26,13.26,0,0,1,103,113.56h0a13.27,13.27,0,0,1,13.27,13.26Z"/><path class="cls-1" d="M144.13,185.39H117.58V126.82a13.26,13.26,0,0,1,13.26-13.26h0a13.27,13.27,0,0,1,13.27,13.26Z"/><path class="cls-1" d="M172,185.39H145.47V126.82a13.26,13.26,0,0,1,13.26-13.26h0A13.27,13.27,0,0,1,172,126.82Z"/><rect class="cls-1" x="-587.86" y="88.37" width="851.72" height="12.26"/><polygon class="cls-1" points="278.16 72.03 -602.16 72.03 -602.16 88.37 -587.86 88.37 263.86 88.37 278.16 88.37 278.16 72.03"/><line class="cls-1" x1="43.18" y1="10.96" x2="14.71" y2="10.96"/><line class="cls-1" x1="122.84" y1="10.96" x2="90.2" y2="10.96"/><polygon class="cls-1" points="277.61 61.33 277.61 -114.57 296.16 -114.57 296.16 -311.38 290.52 -311.38 290.52 -545.41 275.19 -545.41 275.19 -596.7 -64.49 -596.7 -64.49 -545.41 -79.82 -545.41 -79.82 -307.71 -98.99 -307.71 -232.56 -307.71 -243.1 -307.71 -243.1 -546.37 -258.44 -546.37 -258.44 -597.66 -598.11 -597.66 -598.11 -546.37 -613.45 -546.37 -613.45 -322.89 -620.16 -322.89 -620.16 -114.57 -602.91 -114.57 -602.91 61.33 -620.16 61.33 -620.16 209.64 -602.91 209.64 -602.91 435.66 -305.79 435.66 -301.95 435.66 -25.77 435.66 -20.02 435.66 275.19 435.66 275.19 209.64 292.44 209.64 292.44 61.33 277.61 61.33"/></g></svg>