<svg id="Layer_1" data-name="Layer 1" xmlns="http://www.w3.org/2000/svg" viewBox="0 0 162 162"><defs><style>.cls-1{fill:none;stroke:#fff;stroke-miterlimit:10;}</style></defs><polygon class="cls-1" points="0.01 0 -162 -0.05 -162 -161.99 -0.01 -162 0.01 0"/><polygon class="cls-1" points="-161.98 161.96 -162 0.01 0.01 0 0.02 162 -161.98 161.96"/><polygon class="cls-1" points="-161.97 323.97 -161.98 162.01 0.02 162 0.03 324 -161.97 323.97"/><polygon class="cls-1" points="162 0 0.01 -0.05 -0.01 -161.99 162 -162 162 0"/><polygon class="cls-1" points="0.02 161.96 0.01 0.01 162 0 162.02 162 0.02 161.96"/><polygon class="cls-1" points="0.03 323.97 0.02 162.01 162.02 162 162.03 324 0.03 323.97"/><polygon class="cls-1" points="324 0 162 -0.05 162 -161.99 324 -162 324 0"/><polygon class="cls-1" points="162.02 161.96 162 0.01 324 0 324.02 162 162.02 161.96"/><polygon class="cls-1" points="162.03 323.97 162.02 162.01 324.02 162 324.03 324 162.03 323.97"/><g id="NEW_PUZZLE" data-name="NEW PUZZLE"><path class="cls-1" d="M30.26,190.38H3.71V-19A13.26,13.26,0,0,1,17-32.25h0A13.27,13.27,0,0,1,30.26-19Z"/><polygon class="cls-1" points="601.61 547.33 601.61 371.43 620.16 371.43 620.16 174.62 614.52 174.62 614.52 -59.41 599.19 -59.41 599.19 -110.7 259.51 -110.7 259.51 -59.41 244.18 -59.41 244.18 178.29 225.01 178.29 91.44 178.29 80.9 178.29 80.9 -60.37 65.56 -60.37 65.56 -111.66 -274.11 -111.66 -274.11 -60.37 -289.45 -60.37 -289.45 163.11 -296.16 163.11 -296.16 371.43 -278.91 371.43 -278.91 547.33 -296.16 547.33 -296.16 695.64 -278.91 695.64 -278.91 921.66 18.21 921.66 22.05 921.66 298.23 921.66 303.98 921.66 599.19 921.66 599.19 695.64 616.44 695.64 616.44 547.33 601.61 547.33"/></g></svg>