<svg xmlns="http://www.w3.org/2000/svg" viewBox="0 0 91.6 88"><defs><style>.cls-1{fill:#fff;}.cls-2{stroke:#5e5e5e;}.cls-2,.cls-3,.cls-4{stroke-miterlimit:10;}.cls-3,.cls-4{fill:none;stroke:#fff;}.cls-3{stroke-width:0.5px;}</style></defs><g id="Layer_1" data-name="Layer 1"><g id="Building_Outline" data-name="Building Outline"><polygon points="-352.98 349.62 -352.98 215.6 -363.21 215.6 -363.21 128.67 -352.98 128.67 -352.98 23.38 -363.21 23.38 -363.21 -99.13 -359.23 -99.13 -359.23 -231.64 -350.14 -231.64 -350.14 -262.05 -149.74 -262.05 -149.74 -231.64 -140.65 -231.64 -140.65 -90.13 -42.84 -90.13 -42.84 -231.07 -33.75 -231.07 -33.75 -261.48 166.65 -261.48 166.65 -231.07 175.74 -231.07 175.74 -92.31 179.09 -92.31 179.09 23.38 168.09 23.38 168.09 128.67 176.88 128.67 176.88 215.6 166.65 215.6 166.65 349.62 -352.98 349.62"/><path class="cls-1" d="M-150.24-261.55v30.41h9.09V-89.63h98.81V-230.57h9.09V-261h199.4v30.41h9.09V-91.81h3.35V22.88h-11V129.17h8.79v85.94H166.15v134H-352.48v-134h-10.23V129.17h10.23V22.88h-10.23V-98.63h4V-231.14h9.09v-30.41h199.4m1-1h-201.4v30.41h-9.09V-99.63h-4V23.88h10.23V128.17h-10.23v87.94h10.23v134H167.15v-134h10.23V128.17h-8.79V23.88h11V-92.81h-3.35V-231.57h-9.09V-262H-34.25v30.41h-9.09V-90.63h-96.81V-232.14h-9.09v-30.41Z"/></g><g id="Puzzle_Building_Base" data-name="Puzzle Building Base"><g id="Illustrated_Cathedral" data-name="Illustrated Cathedral"><path class="cls-2" d="M22.16-66.54c-.84.64-13.39,10.47-14,22.72V10.39H36.13v-54.9C35.12-56.44,23-65.91,22.16-66.54Z"/><path class="cls-2" d="M15.6-46.73c2,0,3.81,1.55,4.6,4a10.62,10.62,0,0,1,.5,3V10.39H10.5V-39.75a10.62,10.62,0,0,1,.5-3c.79-2.46,2.62-4,4.6-4Z"/><path class="cls-2" d="M28.73-46.73c2,0,3.81,1.55,4.6,4a10.26,10.26,0,0,1,.49,3c0,.13,0,.25,0,.38V10.39H23.62V-39.37c0-.13,0-.25,0-.38a10.61,10.61,0,0,1,.49-3c.79-2.46,2.62-4,4.61-4Z"/><path class="cls-2" d="M51.46-66.54c-.84.64-13.39,10.47-14,22.72V10.39H65.42v-54.9C64.42-56.44,52.29-65.91,51.46-66.54Z"/><path class="cls-2" d="M44.9-46.73c2,0,3.81,1.55,4.6,4a10.62,10.62,0,0,1,.5,3V10.39H39.79V-39.37c0-.13,0-.25,0-.38a10.61,10.61,0,0,1,.49-3c.79-2.46,2.62-4,4.61-4Z"/><path class="cls-2" d="M58-46.73c2,0,3.81,1.55,4.6,4a10.62,10.62,0,0,1,.5,3V10.39H52.92V-39.75a10.62,10.62,0,0,1,.5-3c.79-2.46,2.62-4,4.6-4Z"/><path class="cls-2" d="M80.75-66.54c-.84.64-13.39,10.47-14,22.72V10.39H94.72v-54.9C93.72-56.44,81.58-65.91,80.75-66.54Z"/><path class="cls-2" d="M74.19-46.73c2,0,3.81,1.55,4.6,4a10.27,10.27,0,0,1,.5,3c0,.13,0,.25,0,.38V10.39H69.09V-39.75a10.62,10.62,0,0,1,.5-3c.79-2.46,2.62-4,4.6-4Z"/><path class="cls-2" d="M87.32-46.73c2,0,3.81,1.55,4.6,4a10.62,10.62,0,0,1,.5,3V10.39H82.21V-39.37c0-.13,0-.25,0-.38a10.61,10.61,0,0,1,.49-3c.79-2.46,2.62-4,4.61-4Z"/><rect class="cls-2" x="-27.97" y="-66.08" width="27.85" height="76.29"/><path class="cls-2" d="M67.87,33.22c-14.76-.11-41.25,22.3-49.82,37.19A39.8,39.8,0,0,0,13,90.16v47.41H122.8V91.1a39.89,39.89,0,0,0-5.51-20.44C108.5,56,82.58,33.34,67.87,33.22Z"/><path class="cls-2" d="M24.23,37.07h0v0a4.2,4.2,0,0,0,4.07-4.2h0a4.2,4.2,0,0,0-4.07-4.21h0A4.21,4.21,0,0,0,20,24.47h0a4.21,4.21,0,0,0-4.21,4.14h0a4.21,4.21,0,0,0-4.21,4.22h0A4.21,4.21,0,0,0,15.81,37h0v0h0A4.21,4.21,0,0,0,20,41.22h0A4.21,4.21,0,0,0,24.23,37.07Z"/><circle class="cls-2" cx="67.7" cy="64.71" r="16.95"/><path class="cls-2" d="M67.52,64.71l.16-8.24h0a4.22,4.22,0,0,0-4.21-4.15h0a4.2,4.2,0,0,0-4.21,4.15h0A4.21,4.21,0,0,0,55,60.68h0a4.22,4.22,0,0,0,4.21,4.21v0h0Z"/><path class="cls-2" d="M67.88,65.4l-.16,8.25h0A4.2,4.2,0,0,0,72,77.79h0a4.22,4.22,0,0,0,4.21-4.14h0a4.22,4.22,0,0,0,4.21-4.21h0a4.22,4.22,0,0,0-4.21-4.22v0h0Z"/><path class="cls-2" d="M68.05,64.53l8.24.16v0a4.22,4.22,0,0,0,4.15-4.21h0a4.22,4.22,0,0,0-4.15-4.22h0A4.21,4.21,0,0,0,72.08,52h0a4.21,4.21,0,0,0-4.21,4.21h0Z"/><path class="cls-2" d="M67.35,64.89l-8.24-.16v0A4.2,4.2,0,0,0,55,69h0a4.22,4.22,0,0,0,4.14,4.21h0a4.22,4.22,0,0,0,4.21,4.21h0a4.21,4.21,0,0,0,4.21-4.21h0Z"/><circle class="cls-2" cx="67.7" cy="64.71" r="2.42"/><path class="cls-2" d="M44,78.08c-.84.76-13.39,5.18-14,19.54V137H58V96.81C57,82.83,44.83,78.83,44,78.08Z"/><path class="cls-2" d="M91.23,78.08c-.84.76-13.39,5.18-14,19.54V137H105.2V96.81C104.19,82.83,92.06,78.83,91.23,78.08Z"/></g><g id="GRID"><rect class="cls-3" x="-366.3" y="-261.96" width="549.5" height="612.5"/><line class="cls-3" x1="-366.3" y1="0.54" x2="183.2" y2="0.54"/><line class="cls-3" x1="-366.3" y1="88.04" x2="183.2" y2="88.04"/><line class="cls-3" x1="91.62" y1="350.54" x2="91.62" y2="-261.96"/><line class="cls-3" x1="0.04" y1="350.54" x2="0.04" y2="-261.96"/></g><polygon id="Building_Outline-2" data-name="Building Outline" class="cls-4" points="169.1 128.61 169.1 24.31 180.1 24.31 180.1 -92.38 176.76 -92.38 176.76 -231.13 167.66 -231.13 167.66 -261.55 -33.73 -261.55 -33.73 -231.13 -42.83 -231.13 -42.83 -90.2 -54.19 -90.2 -133.38 -90.2 -139.64 -90.2 -139.64 -231.7 -148.73 -231.7 -148.73 -262.12 -350.13 -262.12 -350.13 -231.7 -359.22 -231.7 -359.22 -99.2 -363.19 -99.2 -363.19 24.31 -352.97 24.31 -352.97 128.61 -363.19 128.61 -363.19 216.54 -352.97 216.54 -352.97 350.55 -176.8 350.55 -174.53 350.55 -10.77 350.55 -7.36 350.55 167.66 350.55 167.66 216.54 177.89 216.54 177.89 128.61 169.1 128.61"/></g></g></svg>