<svg xmlns="http://www.w3.org/2000/svg" viewBox="0 0 91.6 88"><defs><style>.cls-1{fill:#fff;}.cls-2{stroke:#5e5e5e;}.cls-2,.cls-3,.cls-4{stroke-miterlimit:10;}.cls-3,.cls-4{fill:none;stroke:#fff;}.cls-3{stroke-width:0.5px;}</style></defs><g id="Layer_1" data-name="Layer 1"><g id="Building_Outline" data-name="Building Outline"><polygon points="-78.18 173.62 -78.18 39.6 -88.41 39.6 -88.41 -47.33 -78.18 -47.33 -78.18 -152.62 -88.41 -152.62 -88.41 -275.13 -84.43 -275.13 -84.43 -407.64 -75.33 -407.64 -75.33 -438.05 125.06 -438.05 125.06 -407.64 134.15 -407.64 134.15 -266.13 231.96 -266.13 231.96 -407.07 241.06 -407.07 241.06 -437.48 441.45 -437.48 441.45 -407.07 450.55 -407.07 450.55 -268.31 453.89 -268.31 453.89 -152.62 442.89 -152.62 442.89 -47.33 451.68 -47.33 451.68 39.6 441.45 39.6 441.45 173.62 -78.18 173.62"/><path class="cls-1" d="M124.56-437.55v30.41h9.09v141.51h98.81V-406.57h9.1V-437H441v30.41h9.1v138.76h3.34v114.69h-11V-46.83h8.79V39.11H441v134H-77.68v-134H-87.91V-46.83h10.23V-153.12H-87.91V-274.63h4V-407.14h9.09v-30.41h199.4m1-1H-75.84v30.41h-9.09v132.51h-4v123.51h10.23V-47.83H-88.91V40.11h10.23v134H442v-134h10.23V-47.83h-8.79V-152.12h11V-268.81h-3.34V-407.57H442V-438H240.56v30.41h-9.1v140.94H134.65V-408.14h-9.09v-30.41Z"/></g><g id="Puzzle_Building_Base" data-name="Puzzle Building Base"><g id="Illustrated_Cathedral" data-name="Illustrated Cathedral"><path class="cls-2" d="M-30.61,164.82V104C-30.61,56.41,24,29.82,24,29.82s55.27,20.62,55.27,72.72v62.28Z"/><path class="cls-2" d="M-20.93,161.19v-54.8C-20.93,64.25,24,40.31,24,40.31S69.59,58.83,69.59,105v56.23Z"/><path class="cls-2" d="M-11.24,157.56V110c0-46,36.42-59,36.42-59S59.9,68.42,59.9,108.6v49Z"/><path class="cls-2" d="M25.08,62S-1.55,70.36-1.55,110v43.9H50.21V108.6C50.21,74,25.08,62,25.08,62Z"/><rect class="cls-2" x="91.82" y="72.79" width="27.85" height="38.75"/><path class="cls-2" d="M1,26.16H-14.79V-11.22a5.2,5.2,0,0,1,5.2-5.21h5.34A5.2,5.2,0,0,1,1-11.22Z"/><path class="cls-2" d="M17.49,26.16H1.75V-11.22A5.2,5.2,0,0,1,7-16.43h5.34a5.2,5.2,0,0,1,5.2,5.21Z"/><path class="cls-2" d="M34,26.16H18.29V-11.22a5.2,5.2,0,0,1,5.2-5.21h5.34A5.2,5.2,0,0,1,34-11.22Z"/><path class="cls-2" d="M50.57,26.16H34.82V-11.22A5.2,5.2,0,0,1,40-16.43h5.34a5.21,5.21,0,0,1,5.21,5.21Z"/><path class="cls-2" d="M67.1,26.16H51.36V-11.22a5.2,5.2,0,0,1,5.2-5.21H61.9a5.2,5.2,0,0,1,5.2,5.21Z"/><path class="cls-2" d="M83.64,26.16H67.9V-11.22a5.2,5.2,0,0,1,5.2-5.21h5.34a5.2,5.2,0,0,1,5.2,5.21Z"/><path class="cls-2" d="M100.18,26.16H84.43V-11.22a5.2,5.2,0,0,1,5.2-5.21H95a5.21,5.21,0,0,1,5.21,5.21Z"/></g><g id="GRID"><rect class="cls-3" x="-91.49" y="-437.96" width="549.5" height="612.5"/><line class="cls-3" x1="-91.49" y1="87.04" x2="458.01" y2="87.04"/><line class="cls-3" x1="91.67" y1="174.54" x2="91.67" y2="-437.96"/><line class="cls-3" x1="0.09" y1="174.54" x2="0.09" y2="-437.96"/></g><polygon id="Building_Outline-2" data-name="Building Outline" class="cls-4" points="443.9 -47.39 443.9 -151.69 454.9 -151.69 454.9 -268.38 451.56 -268.38 451.56 -407.13 442.47 -407.13 442.47 -437.55 241.07 -437.55 241.07 -407.13 231.98 -407.13 231.98 -266.2 220.61 -266.2 141.42 -266.2 135.17 -266.2 135.17 -407.7 126.08 -407.7 126.08 -438.12 -75.32 -438.12 -75.32 -407.7 -84.41 -407.7 -84.41 -275.2 -88.39 -275.2 -88.39 -151.69 -78.16 -151.69 -78.16 -47.39 -88.39 -47.39 -88.39 40.54 -78.16 40.54 -78.16 174.55 98 174.55 100.28 174.55 264.03 174.55 267.44 174.55 442.47 174.55 442.47 40.54 452.7 40.54 452.7 -47.39 443.9 -47.39"/></g></g></svg>