<svg xmlns="http://www.w3.org/2000/svg" viewBox="0 0 91.6 88"><defs><style>.cls-1{fill:#fff;}.cls-2{stroke:#5e5e5e;}.cls-2,.cls-3,.cls-4{stroke-miterlimit:10;}.cls-3,.cls-4{fill:none;stroke:#fff;}.cls-3{stroke-width:0.5px;}</style></defs><g id="Layer_1" data-name="Layer 1"><g id="Building_Outline" data-name="Building Outline"><polygon points="-352.98 85.62 -352.98 -48.4 -363.21 -48.4 -363.21 -135.33 -352.98 -135.33 -352.98 -240.62 -363.21 -240.62 -363.21 -363.13 -359.23 -363.13 -359.23 -495.64 -350.14 -495.64 -350.14 -526.05 -149.74 -526.05 -149.74 -495.64 -140.65 -495.64 -140.65 -354.13 -42.84 -354.13 -42.84 -495.07 -33.75 -495.07 -33.75 -525.48 166.65 -525.48 166.65 -495.07 175.74 -495.07 175.74 -356.31 179.09 -356.31 179.09 -240.62 168.09 -240.62 168.09 -135.33 176.88 -135.33 176.88 -48.4 166.65 -48.4 166.65 85.62 -352.98 85.62"/><path class="cls-1" d="M-150.24-525.55v30.41h9.09v141.51h98.81V-494.57h9.09V-525h199.4v30.41h9.09v138.76h3.35v114.69h-11v106.29h8.79v85.94H166.15v134H-352.48v-134h-10.23v-85.94h10.23V-241.12h-10.23V-362.63h4V-495.14h9.09v-30.41h199.4m1-1h-201.4v30.41h-9.09v132.51h-4v123.51h10.23v104.29h-10.23v87.94h10.23v134H167.15v-134h10.23v-87.94h-8.79V-240.12h11V-356.81h-3.35V-495.57h-9.09V-526H-34.25v30.41h-9.09v140.94h-96.81V-496.14h-9.09v-30.41Z"/></g><g id="Puzzle_Building_Base" data-name="Puzzle Building Base"><g id="Illustrated_Cathedral" data-name="Illustrated Cathedral"><rect class="cls-2" x="-25.55" y="19.91" width="27.85" height="56.92"/><rect class="cls-2" x="-25.55" y="-15.21" width="27.85" height="38.75"/><path class="cls-2" d="M13.08,76.82V16c0-47.55,54.62-74.14,54.62-74.14S123-37.56,123,14.54V76.82Z"/><path class="cls-2" d="M22.77,73.19V18.39c0-42.14,44.93-66.08,44.93-66.08S113.28-29.17,113.28,17V73.19Z"/><path class="cls-2" d="M32.46,69.56V22c0-46,36.42-59,36.42-59S103.6-19.58,103.6,20.6v49Z"/><path class="cls-2" d="M68.77-26S42.15-17.64,42.15,22v43.9H93.91V20.6C93.91-14,68.77-26,68.77-26Z"/></g><g id="GRID"><rect class="cls-3" x="-366.3" y="-525.96" width="549.5" height="612.5"/><line class="cls-3" x1="91.62" y1="86.54" x2="91.62" y2="-525.96"/><line class="cls-3" x1="0.04" y1="86.54" x2="0.04" y2="-525.96"/></g><polygon id="Building_Outline-2" data-name="Building Outline" class="cls-4" points="169.1 -135.39 169.1 -239.69 180.1 -239.69 180.1 -356.38 176.76 -356.38 176.76 -495.13 167.66 -495.13 167.66 -525.55 -33.73 -525.55 -33.73 -495.13 -42.83 -495.13 -42.83 -354.2 -54.19 -354.2 -133.38 -354.2 -139.64 -354.2 -139.64 -495.7 -148.73 -495.7 -148.73 -526.12 -350.13 -526.12 -350.13 -495.7 -359.22 -495.7 -359.22 -363.2 -363.19 -363.2 -363.19 -239.69 -352.97 -239.69 -352.97 -135.39 -363.19 -135.39 -363.19 -47.46 -352.97 -47.46 -352.97 86.55 -176.8 86.55 -174.53 86.55 -10.77 86.55 -7.36 86.55 167.66 86.55 167.66 -47.46 177.89 -47.46 177.89 -135.39 169.1 -135.39"/></g></g></svg>