<svg xmlns="http://www.w3.org/2000/svg" viewBox="0 0 91.6 88"><defs><style>.cls-1{fill:#fff;}.cls-2{stroke:#5e5e5e;}.cls-2,.cls-3,.cls-4{stroke-miterlimit:10;}.cls-3,.cls-4{fill:none;stroke:#fff;}.cls-3{stroke-width:0.5px;}</style></defs><g id="Layer_1" data-name="Layer 1"><g id="Building_Outline" data-name="Building Outline"><polygon points="-169.78 173.62 -169.78 39.6 -180.01 39.6 -180.01 -47.33 -169.78 -47.33 -169.78 -152.62 -180.01 -152.62 -180.01 -275.13 -176.03 -275.13 -176.03 -407.64 -166.94 -407.64 -166.94 -438.05 33.46 -438.05 33.46 -407.64 42.55 -407.64 42.55 -266.13 140.36 -266.13 140.36 -407.07 149.46 -407.07 149.46 -437.48 349.85 -437.48 349.85 -407.07 358.94 -407.07 358.94 -268.31 362.29 -268.31 362.29 -152.62 351.29 -152.62 351.29 -47.33 360.08 -47.33 360.08 39.6 349.85 39.6 349.85 173.62 -169.78 173.62"/><path class="cls-1" d="M33-437.55v30.41h9.09v141.51h98.81V-406.57H150V-437H349.35v30.41h9.09v138.76h3.35v114.69h-11V-46.83h8.79V39.11H349.35v134H-169.28v-134h-10.23V-46.83h10.23V-153.12h-10.23V-274.63h4V-407.14h9.09v-30.41H33m1-1h-201.4v30.41h-9.09v132.51h-4v123.51h10.23V-47.83h-10.23V40.11h10.23v134H350.35v-134h10.23V-47.83h-8.79V-152.12h11V-268.81h-3.35V-407.57h-9.09V-438H149v30.41h-9.1v140.94H43.05V-408.14H34v-30.41Z"/></g><g id="Puzzle_Building_Base" data-name="Puzzle Building Base"><g id="Illustrated_Cathedral" data-name="Illustrated Cathedral"><rect class="cls-2" x="0.22" y="72.79" width="27.85" height="38.75"/><path class="cls-2" d="M11.48,80.05h5.34a5.2,5.2,0,0,1,5.2,5.2v19a0,0,0,0,1,0,0H6.28a0,0,0,0,1,0,0v-19A5.2,5.2,0,0,1,11.48,80.05Z"/><path class="cls-2" d="M8.57,26.16H-7.17V-11.22A5.2,5.2,0,0,1-2-16.43H3.37a5.2,5.2,0,0,1,5.2,5.21Z"/><path class="cls-2" d="M25.11,26.16H9.37V-11.22a5.2,5.2,0,0,1,5.2-5.21h5.34a5.2,5.2,0,0,1,5.2,5.21Z"/><path class="cls-2" d="M41.65,26.16H25.9V-11.22a5.21,5.21,0,0,1,5.21-5.21h5.33a5.21,5.21,0,0,1,5.21,5.21Z"/><path class="cls-2" d="M58.18,26.16H42.44V-11.22a5.2,5.2,0,0,1,5.2-5.21H53a5.2,5.2,0,0,1,5.2,5.21Z"/><path class="cls-2" d="M74.72,26.16H59V-11.22a5.2,5.2,0,0,1,5.2-5.21h5.34a5.2,5.2,0,0,1,5.2,5.21Z"/><path class="cls-2" d="M91.26,26.16H75.51V-11.22a5.21,5.21,0,0,1,5.21-5.21h5.33a5.21,5.21,0,0,1,5.21,5.21Z"/><path class="cls-2" d="M107.79,26.16H92.05V-11.22a5.2,5.2,0,0,1,5.2-5.21h5.34a5.2,5.2,0,0,1,5.2,5.21Z"/><path class="cls-2" d="M36.41,165.11V104.25C36.41,56.7,91,30.11,91,30.11s55.28,20.62,55.28,72.72v62.28Z"/><path class="cls-2" d="M46.09,161.48V106.67C46.09,64.54,91,40.6,91,40.6s45.59,18.52,45.59,64.65v56.23Z"/><path class="cls-2" d="M55.78,157.85V110.31c0-46,36.42-59,36.42-59s34.72,17.4,34.72,57.58v49Z"/><path class="cls-2" d="M92.1,62.32s-26.63,8.33-26.63,48v43.9h51.76V108.89C117.23,74.29,92.1,62.32,92.1,62.32Z"/></g><g id="GRID"><rect class="cls-3" x="-183.1" y="-437.96" width="549.5" height="612.5"/><line class="cls-3" x1="-183.1" y1="87.04" x2="366.4" y2="87.04"/><line class="cls-3" x1="91.65" y1="174.54" x2="91.65" y2="-437.96"/><line class="cls-3" x1="0.07" y1="174.54" x2="0.07" y2="-437.96"/></g><polygon id="Building_Outline-2" data-name="Building Outline" class="cls-4" points="352.3 -47.39 352.3 -151.69 363.3 -151.69 363.3 -268.38 359.96 -268.38 359.96 -407.13 350.87 -407.13 350.87 -437.55 149.47 -437.55 149.47 -407.13 140.38 -407.13 140.38 -266.2 129.01 -266.2 49.82 -266.2 43.57 -266.2 43.57 -407.7 34.47 -407.7 34.47 -438.12 -166.92 -438.12 -166.92 -407.7 -176.01 -407.7 -176.01 -275.2 -179.99 -275.2 -179.99 -151.69 -169.76 -151.69 -169.76 -47.39 -179.99 -47.39 -179.99 40.54 -169.76 40.54 -169.76 174.55 6.4 174.55 8.67 174.55 172.43 174.55 175.84 174.55 350.87 174.55 350.87 40.54 361.1 40.54 361.1 -47.39 352.3 -47.39"/></g></g></svg>