<svg xmlns="http://www.w3.org/2000/svg" viewBox="0 0 91.6 88"><defs><style>.cls-1{fill:#fff;}.cls-2{stroke:#5e5e5e;}.cls-2,.cls-3,.cls-4{stroke-miterlimit:10;}.cls-3,.cls-4{fill:none;stroke:#fff;}.cls-3{stroke-width:0.5px;}</style></defs><g id="Layer_1" data-name="Layer 1"><g id="Building_Outline" data-name="Building Outline"><polygon points="-78.18 613.62 -78.18 479.61 -88.41 479.61 -88.41 392.67 -78.18 392.67 -78.18 287.38 -88.41 287.38 -88.41 164.87 -84.43 164.87 -84.43 32.36 -75.33 32.36 -75.33 1.95 125.06 1.95 125.06 32.36 134.15 32.36 134.15 173.87 231.96 173.87 231.96 32.93 241.06 32.93 241.06 2.52 441.45 2.52 441.45 32.93 450.55 32.93 450.55 171.69 453.89 171.69 453.89 287.38 442.89 287.38 442.89 392.67 451.68 392.67 451.68 479.61 441.45 479.61 441.45 613.62 -78.18 613.62"/><path class="cls-1" d="M124.56,2.45V32.86h9.09V174.37h98.81V33.43h9.1V3H441V33.43h9.1V172.19h3.34V286.88h-11V393.17h8.79v85.94H441v134H-77.68v-134H-87.91V393.17h10.23V286.88H-87.91V165.37h4V32.86h9.09V2.45h199.4m1-1H-75.84V31.86h-9.09V164.37h-4V287.88h10.23V392.17H-88.91v87.94h10.23v134H442v-134h10.23V392.17h-8.79V287.88h11V171.19h-3.34V32.43H442V2H240.56V32.43h-9.1V173.37H134.65V31.86h-9.09V1.45Z"/></g><g id="Puzzle_Building_Base" data-name="Puzzle Building Base"><g id="Illustrated_Cathedral" data-name="Illustrated Cathedral"><path class="cls-2" d="M-7,44.18c9.93,0,19.11,7.27,23.06,18.81a46.49,46.49,0,0,1,2.49,14q0,.9,0,1.8V181H-32.58V78.75c0-.6,0-1.2,0-1.8a47.12,47.12,0,0,1,2.49-14c4-11.54,13.13-18.81,23.07-18.81Z"/><path class="cls-2" d="M-7.31,61.69C-8.23,62.4-22,73.17-22.62,86.6v94.45H8V85.84C6.9,72.76-6.4,62.38-7.31,61.69Z"/><path class="cls-2" d="M57,44.18c9.93,0,19.1,7.27,23.06,18.81A46.49,46.49,0,0,1,82.5,77q0,.9,0,1.8V181H31.37V78.75c0-.6,0-1.2,0-1.8a47.12,47.12,0,0,1,2.49-14C37.84,51.45,47,44.18,57,44.18Z"/><path class="cls-2" d="M56.64,61.69C55.72,62.4,42,73.17,41.33,86.6v94.45H72V85.84C70.85,72.76,57.55,62.38,56.64,61.69Z"/><path class="cls-2" d="M94.6,49h5.34a5.2,5.2,0,0,1,5.2,5.2V181a0,0,0,0,1,0,0H89.4a0,0,0,0,1,0,0V54.17A5.2,5.2,0,0,1,94.6,49Z"/><rect class="cls-2" x="-64.95" y="14.16" width="183.37" height="9.88"/><rect class="cls-2" x="-68.03" y="10.21" width="189.52" height="7.9"/></g><g id="GRID"><rect class="cls-3" x="-91.49" y="2.04" width="549.5" height="612.5"/><line class="cls-3" x1="91.67" y1="614.54" x2="91.67" y2="2.04"/><line class="cls-3" x1="0.09" y1="614.54" x2="0.09" y2="2.04"/></g><polygon id="Building_Outline-2" data-name="Building Outline" class="cls-4" points="443.9 392.61 443.9 288.31 454.9 288.31 454.9 171.62 451.56 171.62 451.56 32.87 442.47 32.87 442.47 2.45 241.07 2.45 241.07 32.87 231.98 32.87 231.98 173.8 220.61 173.8 141.42 173.8 135.17 173.8 135.17 32.3 126.08 32.3 126.08 1.88 -75.32 1.88 -75.32 32.3 -84.41 32.3 -84.41 164.8 -88.39 164.8 -88.39 288.31 -78.16 288.31 -78.16 392.61 -88.39 392.61 -88.39 480.54 -78.16 480.54 -78.16 614.55 98 614.55 100.28 614.55 264.03 614.55 267.44 614.55 442.47 614.55 442.47 480.54 452.7 480.54 452.7 392.61 443.9 392.61"/></g></g></svg>