<svg xmlns="http://www.w3.org/2000/svg" viewBox="0 0 91.6 88"><defs><style>.cls-1{fill:#fff;}.cls-2{stroke:#5e5e5e;}.cls-2,.cls-3,.cls-4{stroke-miterlimit:10;}.cls-3,.cls-4{fill:none;stroke:#fff;}.cls-3{stroke-width:0.5px;}</style></defs><g id="Layer_1" data-name="Layer 1"><g id="Building_Outline" data-name="Building Outline"><polygon points="-352.98 525.62 -352.98 391.61 -363.21 391.61 -363.21 304.67 -352.98 304.67 -352.98 199.38 -363.21 199.38 -363.21 76.87 -359.23 76.87 -359.23 -55.64 -350.14 -55.64 -350.14 -86.05 -149.74 -86.05 -149.74 -55.64 -140.65 -55.64 -140.65 85.87 -42.84 85.87 -42.84 -55.07 -33.75 -55.07 -33.75 -85.48 166.65 -85.48 166.65 -55.07 175.74 -55.07 175.74 83.69 179.09 83.69 179.09 199.38 168.09 199.38 168.09 304.67 176.88 304.67 176.88 391.61 166.65 391.61 166.65 525.62 -352.98 525.62"/><path class="cls-1" d="M-150.24-85.55v30.41h9.09V86.37h98.81V-54.57h9.09V-85h199.4v30.41h9.09V84.19h3.35V198.88h-11V305.17h8.79v85.94H166.15v134H-352.48v-134h-10.23V305.17h10.23V198.88h-10.23V77.37h4V-55.14h9.09V-85.55h199.4m1-1h-201.4v30.41h-9.09V76.37h-4V199.88h10.23V304.17h-10.23v87.94h10.23v134H167.15v-134h10.23V304.17h-8.79V199.88h11V83.19h-3.35V-55.57h-9.09V-86H-34.25v30.41h-9.09V85.37h-96.81V-56.14h-9.09V-86.55Z"/></g><g id="Puzzle_Building_Base" data-name="Puzzle Building Base"><g id="Illustrated_Cathedral" data-name="Illustrated Cathedral"><path class="cls-2" d="M36.69-43.82c9.94,0,19.11,7.27,23.07,18.81a47.12,47.12,0,0,1,2.49,14c0,.6,0,1.2,0,1.8V93H11.11V-9.25q0-.9,0-1.8a46.49,46.49,0,0,1,2.49-14c4-11.54,13.13-18.81,23.06-18.81Z"/><path class="cls-2" d="M36.39-26.31c-.93.71-14.68,11.48-15.31,24.91V93.05H51.7V-2.16C50.6-15.24,37.3-25.62,36.39-26.31Z"/><path class="cls-2" d="M100.64-43.82c9.94,0,19.11,7.27,23.07,18.81a47.12,47.12,0,0,1,2.49,14c0,.6,0,1.2,0,1.8V93H75.06V-9.25q0-.9,0-1.8a46.49,46.49,0,0,1,2.49-14c4-11.54,13.13-18.81,23.06-18.81Z"/><path class="cls-2" d="M100.34-26.31C99.41-25.6,85.66-14.83,85-1.4V93.05h30.62V-2.16C114.55-15.24,101.25-25.62,100.34-26.31Z"/><path class="cls-2" d="M-10.66-39h5.34a5.2,5.2,0,0,1,5.2,5.2V93a0,0,0,0,1,0,0H-15.86a0,0,0,0,1,0,0V-33.83A5.2,5.2,0,0,1-10.66-39Z"/></g><g id="GRID"><rect class="cls-3" x="-366.3" y="-85.96" width="549.5" height="612.5"/><line class="cls-3" x1="-366.3" y1="1.54" x2="183.2" y2="1.54"/><line class="cls-3" x1="91.62" y1="526.54" x2="91.62" y2="-85.96"/><line class="cls-3" x1="0.04" y1="526.54" x2="0.04" y2="-85.96"/></g><polygon id="Building_Outline-2" data-name="Building Outline" class="cls-4" points="169.1 304.61 169.1 200.31 180.1 200.31 180.1 83.62 176.76 83.62 176.76 -55.13 167.66 -55.13 167.66 -85.55 -33.73 -85.55 -33.73 -55.13 -42.83 -55.13 -42.83 85.8 -54.19 85.8 -133.38 85.8 -139.64 85.8 -139.64 -55.7 -148.73 -55.7 -148.73 -86.12 -350.13 -86.12 -350.13 -55.7 -359.22 -55.7 -359.22 76.8 -363.19 76.8 -363.19 200.31 -352.97 200.31 -352.97 304.61 -363.19 304.61 -363.19 392.54 -352.97 392.54 -352.97 526.55 -176.8 526.55 -174.53 526.55 -10.77 526.55 -7.36 526.55 167.66 526.55 167.66 392.54 177.89 392.54 177.89 304.61 169.1 304.61"/></g></g></svg>