<svg xmlns="http://www.w3.org/2000/svg" viewBox="0 0 91.6 88"><defs><style>.cls-1{fill:#fff;}.cls-2{stroke:#5e5e5e;}.cls-2,.cls-3,.cls-4{stroke-miterlimit:10;}.cls-3,.cls-4{fill:none;stroke:#fff;}.cls-3{stroke-width:0.5px;}</style></defs><g id="Layer_1" data-name="Layer 1"><g id="Building_Outline" data-name="Building Outline"><polygon points="-352.98 437.62 -352.98 303.61 -363.21 303.61 -363.21 216.67 -352.98 216.67 -352.98 111.38 -363.21 111.38 -363.21 -11.13 -359.23 -11.13 -359.23 -143.64 -350.14 -143.64 -350.14 -174.05 -149.74 -174.05 -149.74 -143.64 -140.65 -143.64 -140.65 -2.13 -42.84 -2.13 -42.84 -143.07 -33.75 -143.07 -33.75 -173.48 166.65 -173.48 166.65 -143.07 175.74 -143.07 175.74 -4.31 179.09 -4.31 179.09 111.38 168.09 111.38 168.09 216.67 176.88 216.67 176.88 303.61 166.65 303.61 166.65 437.62 -352.98 437.62"/><path class="cls-1" d="M-150.24-173.55v30.41h9.09V-1.63h98.81V-142.57h9.09V-173h199.4v30.41h9.09V-3.81h3.35V110.88h-11V217.17h8.79v85.94H166.15v134H-352.48v-134h-10.23V217.17h10.23V110.88h-10.23V-10.63h4V-143.14h9.09v-30.41h199.4m1-1h-201.4v30.41h-9.09V-11.63h-4V111.88h10.23V216.17h-10.23v87.94h10.23v134H167.15v-134h10.23V216.17h-8.79V111.88h11V-4.81h-3.35V-143.57h-9.09V-174H-34.25v30.41h-9.09V-2.63h-96.81V-144.14h-9.09v-30.41Z"/></g><g id="Puzzle_Building_Base" data-name="Puzzle Building Base"><g id="Illustrated_Cathedral" data-name="Illustrated Cathedral"><path class="cls-2" d="M22.16,21.46c-.84.64-13.39,10.47-14,22.72V98.39H36.13V43.49C35.12,31.56,23,22.09,22.16,21.46Z"/><path class="cls-2" d="M15.6,41.27c2,0,3.81,1.55,4.6,4a10.62,10.62,0,0,1,.5,3V98.39H10.5V48.25a10.62,10.62,0,0,1,.5-3c.79-2.46,2.62-4,4.6-4Z"/><path class="cls-2" d="M28.73,41.27c2,0,3.81,1.55,4.6,4a10.26,10.26,0,0,1,.49,3c0,.13,0,.25,0,.38V98.39H23.62V48.63c0-.13,0-.25,0-.38a10.61,10.61,0,0,1,.49-3c.79-2.46,2.62-4,4.61-4Z"/><path class="cls-2" d="M51.46,21.46c-.84.64-13.39,10.47-14,22.72V98.39H65.42V43.49C64.42,31.56,52.29,22.09,51.46,21.46Z"/><path class="cls-2" d="M44.9,41.27c2,0,3.81,1.55,4.6,4a10.62,10.62,0,0,1,.5,3V98.39H39.79V48.63c0-.13,0-.25,0-.38a10.61,10.61,0,0,1,.49-3c.79-2.46,2.62-4,4.61-4Z"/><path class="cls-2" d="M58,41.27c2,0,3.81,1.55,4.6,4a10.62,10.62,0,0,1,.5,3V98.39H52.92V48.25a10.62,10.62,0,0,1,.5-3c.79-2.46,2.62-4,4.6-4Z"/><path class="cls-2" d="M80.75,21.46c-.84.64-13.39,10.47-14,22.72V98.39H94.72V43.49C93.72,31.56,81.58,22.09,80.75,21.46Z"/><path class="cls-2" d="M74.19,41.27c2,0,3.81,1.55,4.6,4a10.27,10.27,0,0,1,.5,3c0,.13,0,.25,0,.38V98.39H69.09V48.25a10.62,10.62,0,0,1,.5-3c.79-2.46,2.62-4,4.6-4Z"/><path class="cls-2" d="M87.32,41.27c2,0,3.81,1.55,4.6,4a10.62,10.62,0,0,1,.5,3V98.39H82.21V48.63c0-.13,0-.25,0-.38a10.61,10.61,0,0,1,.49-3c.79-2.46,2.62-4,4.61-4Z"/><rect class="cls-2" x="-27.97" y="21.92" width="27.85" height="76.29"/><path class="cls-2" d="M36.69-131.82c9.94,0,19.11,7.27,23.07,18.81a47.12,47.12,0,0,1,2.49,14c0,.6,0,1.2,0,1.8V5H11.11V-97.25q0-.9,0-1.8a46.49,46.49,0,0,1,2.49-14c4-11.54,13.13-18.81,23.06-18.81Z"/><path class="cls-2" d="M36.39-114.31c-.93.71-14.68,11.48-15.31,24.91V5.05H51.7V-90.16C50.6-103.24,37.3-113.62,36.39-114.31Z"/><path class="cls-2" d="M100.64-131.82c9.94,0,19.11,7.27,23.07,18.81a47.12,47.12,0,0,1,2.49,14c0,.6,0,1.2,0,1.8V5H75.06V-97.25q0-.9,0-1.8a46.49,46.49,0,0,1,2.49-14c4-11.54,13.13-18.81,23.06-18.81Z"/><path class="cls-2" d="M100.34-114.31c-.93.71-14.68,11.48-15.31,24.91V5.05h30.62V-90.16C114.55-103.24,101.25-113.62,100.34-114.31Z"/><path class="cls-2" d="M-10.66-127h5.34a5.2,5.2,0,0,1,5.2,5.2V5a0,0,0,0,1,0,0H-15.86a0,0,0,0,1,0,0v-126.8A5.2,5.2,0,0,1-10.66-127Z"/><rect class="cls-2" x="-344.05" y="9.81" width="505" height="12.11"/><rect class="cls-2" x="-352.52" y="4.97" width="521.95" height="9.69"/></g><g id="GRID"><rect class="cls-3" x="-366.3" y="-173.96" width="549.5" height="612.5"/><line class="cls-3" x1="-366.3" y1="1.04" x2="183.2" y2="1.04"/><line class="cls-3" x1="91.62" y1="438.54" x2="91.62" y2="-173.96"/><line class="cls-3" x1="0.04" y1="438.54" x2="0.04" y2="-173.96"/></g><polygon id="Building_Outline-2" data-name="Building Outline" class="cls-4" points="169.1 216.61 169.1 112.31 180.1 112.31 180.1 -4.38 176.76 -4.38 176.76 -143.13 167.66 -143.13 167.66 -173.55 -33.73 -173.55 -33.73 -143.13 -42.83 -143.13 -42.83 -2.2 -54.19 -2.2 -133.38 -2.2 -139.64 -2.2 -139.64 -143.7 -148.73 -143.7 -148.73 -174.12 -350.13 -174.12 -350.13 -143.7 -359.22 -143.7 -359.22 -11.2 -363.19 -11.2 -363.19 112.31 -352.97 112.31 -352.97 216.61 -363.19 216.61 -363.19 304.54 -352.97 304.54 -352.97 438.55 -176.8 438.55 -174.53 438.55 -10.77 438.55 -7.36 438.55 167.66 438.55 167.66 304.54 177.89 304.54 177.89 216.61 169.1 216.61"/></g></g></svg>