<svg xmlns="http://www.w3.org/2000/svg" viewBox="0 0 91.6 88"><defs><style>.cls-1{fill:#fff;}.cls-2{stroke:#5e5e5e;}.cls-2,.cls-3,.cls-4{stroke-miterlimit:10;}.cls-3,.cls-4{fill:none;stroke:#fff;}.cls-3{stroke-width:0.5px;}</style></defs><g id="Layer_1" data-name="Layer 1"><g id="Building_Outline" data-name="Building Outline"><polygon points="-261.38 437.62 -261.38 303.61 -271.61 303.61 -271.61 216.67 -261.38 216.67 -261.38 111.38 -271.61 111.38 -271.61 -11.13 -267.63 -11.13 -267.63 -143.64 -258.54 -143.64 -258.54 -174.05 -58.14 -174.05 -58.14 -143.64 -49.05 -143.64 -49.05 -2.13 48.76 -2.13 48.76 -143.07 57.85 -143.07 57.85 -173.48 258.25 -173.48 258.25 -143.07 267.34 -143.07 267.34 -4.31 270.69 -4.31 270.69 111.38 259.69 111.38 259.69 216.67 268.48 216.67 268.48 303.61 258.25 303.61 258.25 437.62 -261.38 437.62"/><path class="cls-1" d="M-58.64-173.55v30.41h9.09V-1.63H49.26V-142.57h9.09V-173h199.4v30.41h9.09V-3.81h3.35V110.88h-11V217.17H268v85.94H257.75v134H-260.88v-134h-10.23V217.17h10.23V110.88h-10.23V-10.63h4V-143.14H-258v-30.41h199.4m1-1H-259v30.41h-9.09V-11.63h-4V111.88h10.23V216.17h-10.23v87.94h10.23v134H258.75v-134H269V216.17h-8.79V111.88h11V-4.81h-3.35V-143.57h-9.09V-174H57.35v30.41H48.26V-2.63H-48.55V-144.14h-9.09v-30.41Z"/></g><g id="Puzzle_Building_Base" data-name="Puzzle Building Base"><g id="Illustrated_Cathedral" data-name="Illustrated Cathedral"><path class="cls-2" d="M13.71,21.46c-.84.64-13.39,10.47-14,22.72V98.39H27.68V43.49C26.67,31.56,14.54,22.09,13.71,21.46Z"/><path class="cls-2" d="M7.15,41.27c2,0,3.81,1.55,4.6,4a10.62,10.62,0,0,1,.5,3V98.39H2V48.63c0-.13,0-.25,0-.38a10.27,10.27,0,0,1,.5-3c.79-2.46,2.62-4,4.6-4Z"/><path class="cls-2" d="M20.27,41.27c2,0,3.82,1.55,4.61,4a10.61,10.61,0,0,1,.49,3c0,.13,0,.25,0,.38V98.39H15.17V48.25a10.62,10.62,0,0,1,.5-3c.79-2.46,2.62-4,4.6-4Z"/><path class="cls-2" d="M43,21.46c-.85.64-13.39,10.47-14,22.72V98.39H57V43.49C56,31.56,43.84,22.09,43,21.46Z"/><path class="cls-2" d="M36.44,41.27c2,0,3.82,1.55,4.61,4a10.61,10.61,0,0,1,.49,3c0,.13,0,.25,0,.38V98.39H31.34V48.25a10.62,10.62,0,0,1,.5-3c.79-2.46,2.62-4,4.6-4Z"/><path class="cls-2" d="M49.57,41.27c2,0,3.81,1.55,4.6,4a10.62,10.62,0,0,1,.5,3V98.39H44.46V48.63c0-.13,0-.25,0-.38a10.27,10.27,0,0,1,.5-3c.79-2.46,2.62-4,4.6-4Z"/><rect class="cls-2" x="63.63" y="21.92" width="27.85" height="76.29"/><path class="cls-2" d="M71.11,40.72c2,0,3.81,1.55,4.6,4a10.68,10.68,0,0,1,.5,3V97.84H66V47.7a10.68,10.68,0,0,1,.5-3c.79-2.46,2.62-4,4.6-4Z"/><path class="cls-2" d="M84.23,40.72c2,0,3.82,1.55,4.61,4a10.67,10.67,0,0,1,.49,3c0,.13,0,.26,0,.38V97.84H79.13V48.08c0-.12,0-.25,0-.38a10.32,10.32,0,0,1,.49-3c.79-2.46,2.62-4,4.6-4Z"/><circle class="cls-2" cx="78.16" cy="31.61" r="4.84"/><path class="cls-2" d="M80.94-127h5.34a5.2,5.2,0,0,1,5.2,5.2V5a0,0,0,0,1,0,0H75.74a0,0,0,0,1,0,0v-126.8A5.2,5.2,0,0,1,80.94-127Z"/><rect class="cls-2" x="-252.44" y="9.81" width="505" height="12.11"/><rect class="cls-2" x="-260.92" y="4.97" width="521.95" height="9.69"/></g><g id="GRID"><rect class="cls-3" x="-274.7" y="-173.96" width="549.5" height="612.5"/><line class="cls-3" x1="-274.7" y1="1.04" x2="274.8" y2="1.04"/><line class="cls-3" x1="91.64" y1="438.54" x2="91.64" y2="-173.96"/><line class="cls-3" x1="0.05" y1="438.54" x2="0.05" y2="-173.96"/></g><polygon id="Building_Outline-2" data-name="Building Outline" class="cls-4" points="260.7 216.61 260.7 112.31 271.7 112.31 271.7 -4.38 268.36 -4.38 268.36 -143.13 259.26 -143.13 259.26 -173.55 57.87 -173.55 57.87 -143.13 48.78 -143.13 48.78 -2.2 37.41 -2.2 -41.78 -2.2 -48.03 -2.2 -48.03 -143.7 -57.13 -143.7 -57.13 -174.12 -258.52 -174.12 -258.52 -143.7 -267.62 -143.7 -267.62 -11.2 -271.59 -11.2 -271.59 112.31 -261.37 112.31 -261.37 216.61 -271.59 216.61 -271.59 304.54 -261.37 304.54 -261.37 438.55 -85.2 438.55 -82.93 438.55 80.83 438.55 84.24 438.55 259.26 438.55 259.26 304.54 269.49 304.54 269.49 216.61 260.7 216.61"/></g></g></svg>