<svg xmlns="http://www.w3.org/2000/svg" viewBox="0 0 91.6 88"><defs><style>.cls-1{fill:#fff;}.cls-2{stroke:#5e5e5e;}.cls-2,.cls-3,.cls-4{stroke-miterlimit:10;}.cls-3,.cls-4{fill:none;stroke:#fff;}.cls-3{stroke-width:0.5px;}</style></defs><g id="Layer_1" data-name="Layer 1"><g id="Building_Outline" data-name="Building Outline"><polygon points="-352.98 173.62 -352.98 39.6 -363.21 39.6 -363.21 -47.33 -352.98 -47.33 -352.98 -152.62 -363.21 -152.62 -363.21 -275.13 -359.23 -275.13 -359.23 -407.64 -350.14 -407.64 -350.14 -438.05 -149.74 -438.05 -149.74 -407.64 -140.65 -407.64 -140.65 -266.13 -42.84 -266.13 -42.84 -407.07 -33.75 -407.07 -33.75 -437.48 166.65 -437.48 166.65 -407.07 175.74 -407.07 175.74 -268.31 179.09 -268.31 179.09 -152.62 168.09 -152.62 168.09 -47.33 176.88 -47.33 176.88 39.6 166.65 39.6 166.65 173.62 -352.98 173.62"/><path class="cls-1" d="M-150.24-437.55v30.41h9.09v141.51h98.81V-406.57h9.09V-437h199.4v30.41h9.09v138.76h3.35v114.69h-11V-46.83h8.79V39.11H166.15v134H-352.48v-134h-10.23V-46.83h10.23V-153.12h-10.23V-274.63h4V-407.14h9.09v-30.41h199.4m1-1h-201.4v30.41h-9.09v132.51h-4v123.51h10.23V-47.83h-10.23V40.11h10.23v134H167.15v-134h10.23V-47.83h-8.79V-152.12h11V-268.81h-3.35V-407.57h-9.09V-438H-34.25v30.41h-9.09v140.94h-96.81V-408.14h-9.09v-30.41Z"/></g><g id="Puzzle_Building_Base" data-name="Puzzle Building Base"><g id="Illustrated_Cathedral" data-name="Illustrated Cathedral"><rect class="cls-2" x="-25.55" y="72.79" width="27.85" height="38.75"/><path class="cls-2" d="M13.08,164.82V104c0-47.55,54.62-74.14,54.62-74.14S123,50.44,123,102.54v62.28Z"/><path class="cls-2" d="M22.77,161.19v-54.8c0-42.14,44.93-66.08,44.93-66.08S113.28,58.83,113.28,105v56.23Z"/><path class="cls-2" d="M32.46,157.56V110c0-46,36.42-59,36.42-59s34.72,17.4,34.72,57.58v49Z"/><path class="cls-2" d="M68.77,62s-26.62,8.33-26.62,48v43.9H93.91V108.6C93.91,74,68.77,62,68.77,62Z"/><path class="cls-2" d="M7.28,26.16H-8.47V-11.22a5.21,5.21,0,0,1,5.21-5.21H2.07a5.21,5.21,0,0,1,5.21,5.21Z"/><path class="cls-2" d="M23.81,26.16H8.07V-11.22a5.2,5.2,0,0,1,5.2-5.21h5.34a5.2,5.2,0,0,1,5.2,5.21Z"/><path class="cls-2" d="M40.35,26.16H24.61V-11.22a5.2,5.2,0,0,1,5.2-5.21h5.34a5.2,5.2,0,0,1,5.2,5.21Z"/><path class="cls-2" d="M56.89,26.16H41.14V-11.22a5.21,5.21,0,0,1,5.21-5.21h5.33a5.21,5.21,0,0,1,5.21,5.21Z"/><path class="cls-2" d="M73.42,26.16H57.68V-11.22a5.2,5.2,0,0,1,5.2-5.21h5.34a5.2,5.2,0,0,1,5.2,5.21Z"/><path class="cls-2" d="M90,26.16H74.22V-11.22a5.2,5.2,0,0,1,5.2-5.21h5.34A5.2,5.2,0,0,1,90-11.22Z"/><path class="cls-2" d="M106.5,26.16H90.75V-11.22A5.21,5.21,0,0,1,96-16.43h5.33a5.21,5.21,0,0,1,5.21,5.21Z"/></g><g id="GRID"><rect class="cls-3" x="-366.3" y="-437.96" width="549.5" height="612.5"/><line class="cls-3" x1="-366.3" y1="87.04" x2="183.2" y2="87.04"/><line class="cls-3" x1="91.62" y1="174.54" x2="91.62" y2="-437.96"/><line class="cls-3" x1="0.04" y1="174.54" x2="0.04" y2="-437.96"/></g><polygon id="Building_Outline-2" data-name="Building Outline" class="cls-4" points="169.1 -47.39 169.1 -151.69 180.1 -151.69 180.1 -268.38 176.76 -268.38 176.76 -407.13 167.66 -407.13 167.66 -437.55 -33.73 -437.55 -33.73 -407.13 -42.83 -407.13 -42.83 -266.2 -54.19 -266.2 -133.38 -266.2 -139.64 -266.2 -139.64 -407.7 -148.73 -407.7 -148.73 -438.12 -350.13 -438.12 -350.13 -407.7 -359.22 -407.7 -359.22 -275.2 -363.19 -275.2 -363.19 -151.69 -352.97 -151.69 -352.97 -47.39 -363.19 -47.39 -363.19 40.54 -352.97 40.54 -352.97 174.55 -176.8 174.55 -174.53 174.55 -10.77 174.55 -7.36 174.55 167.66 174.55 167.66 40.54 177.89 40.54 177.89 -47.39 169.1 -47.39"/></g></g></svg>