<svg xmlns="http://www.w3.org/2000/svg" viewBox="0 0 91.6 88"><defs><style>.cls-1{fill:#fff;}.cls-2{stroke:#5e5e5e;}.cls-2,.cls-3,.cls-4{stroke-miterlimit:10;}.cls-3,.cls-4{fill:none;stroke:#fff;}.cls-3{stroke-width:0.5px;}</style></defs><g id="Layer_1" data-name="Layer 1"><g id="Building_Outline" data-name="Building Outline"><polygon points="-352.98 613.62 -352.98 479.61 -363.21 479.61 -363.21 392.67 -352.98 392.67 -352.98 287.38 -363.21 287.38 -363.21 164.87 -359.23 164.87 -359.23 32.36 -350.14 32.36 -350.14 1.95 -149.74 1.95 -149.74 32.36 -140.65 32.36 -140.65 173.87 -42.84 173.87 -42.84 32.93 -33.75 32.93 -33.75 2.52 166.65 2.52 166.65 32.93 175.74 32.93 175.74 171.69 179.09 171.69 179.09 287.38 168.09 287.38 168.09 392.67 176.88 392.67 176.88 479.61 166.65 479.61 166.65 613.62 -352.98 613.62"/><path class="cls-1" d="M-150.24,2.45V32.86h9.09V174.37h98.81V33.43h9.09V3h199.4V33.43h9.09V172.19h3.35V286.88h-11V393.17h8.79v85.94H166.15v134H-352.48v-134h-10.23V393.17h10.23V286.88h-10.23V165.37h4V32.86h9.09V2.45h199.4m1-1h-201.4V31.86h-9.09V164.37h-4V287.88h10.23V392.17h-10.23v87.94h10.23v134H167.15v-134h10.23V392.17h-8.79V287.88h11V171.19h-3.35V32.43h-9.09V2H-34.25V32.43h-9.09V173.37h-96.81V31.86h-9.09V1.45Z"/></g><g id="Puzzle_Building_Base" data-name="Puzzle Building Base"><g id="Illustrated_Cathedral" data-name="Illustrated Cathedral"><path class="cls-2" d="M36.69,44.18c9.94,0,19.11,7.27,23.07,18.81a47.12,47.12,0,0,1,2.49,14c0,.6,0,1.2,0,1.8V181H11.11V78.75q0-.9,0-1.8a46.49,46.49,0,0,1,2.49-14c4-11.54,13.13-18.81,23.06-18.81Z"/><path class="cls-2" d="M36.39,61.69c-.93.71-14.68,11.48-15.31,24.91v94.45H51.7V85.84C50.6,72.76,37.3,62.38,36.39,61.69Z"/><path class="cls-2" d="M100.64,44.18c9.94,0,19.11,7.27,23.07,18.81a47.12,47.12,0,0,1,2.49,14c0,.6,0,1.2,0,1.8V181H75.06V78.75q0-.9,0-1.8a46.49,46.49,0,0,1,2.49-14c4-11.54,13.13-18.81,23.06-18.81Z"/><path class="cls-2" d="M100.34,61.69C99.41,62.4,85.66,73.17,85,86.6v94.45h30.62V85.84C114.55,72.76,101.25,62.38,100.34,61.69Z"/><path class="cls-2" d="M-10.66,49h5.34a5.2,5.2,0,0,1,5.2,5.2V181a0,0,0,0,1,0,0H-15.86a0,0,0,0,1,0,0V54.17A5.2,5.2,0,0,1-10.66,49Z"/><rect class="cls-2" x="-23.68" y="14.16" width="183.37" height="9.88"/><rect class="cls-2" x="-26.76" y="10.21" width="189.52" height="7.9"/></g><g id="GRID"><rect class="cls-3" x="-366.3" y="2.04" width="549.5" height="612.5"/><line class="cls-3" x1="91.62" y1="614.54" x2="91.62" y2="2.04"/><line class="cls-3" x1="0.04" y1="614.54" x2="0.04" y2="2.04"/></g><polygon id="Building_Outline-2" data-name="Building Outline" class="cls-4" points="169.1 392.61 169.1 288.31 180.1 288.31 180.1 171.62 176.76 171.62 176.76 32.87 167.66 32.87 167.66 2.45 -33.73 2.45 -33.73 32.87 -42.83 32.87 -42.83 173.8 -54.19 173.8 -133.38 173.8 -139.64 173.8 -139.64 32.3 -148.73 32.3 -148.73 1.88 -350.13 1.88 -350.13 32.3 -359.22 32.3 -359.22 164.8 -363.19 164.8 -363.19 288.31 -352.97 288.31 -352.97 392.61 -363.19 392.61 -363.19 480.54 -352.97 480.54 -352.97 614.55 -176.8 614.55 -174.53 614.55 -10.77 614.55 -7.36 614.55 167.66 614.55 167.66 480.54 177.89 480.54 177.89 392.61 169.1 392.61"/></g></g></svg>