<svg xmlns="http://www.w3.org/2000/svg" viewBox="0 0 91.6 88"><defs><style>.cls-1{fill:#fff;}.cls-2{stroke:#5e5e5e;}.cls-2,.cls-3,.cls-4{stroke-miterlimit:10;}.cls-3,.cls-4{fill:none;stroke:#fff;}.cls-3{stroke-width:0.5px;}</style></defs><g id="Layer_1" data-name="Layer 1"><g id="Building_Outline" data-name="Building Outline"><polygon points="-261.38 613.62 -261.38 479.61 -271.61 479.61 -271.61 392.67 -261.38 392.67 -261.38 287.38 -271.61 287.38 -271.61 164.87 -267.63 164.87 -267.63 32.36 -258.54 32.36 -258.54 1.95 -58.14 1.95 -58.14 32.36 -49.05 32.36 -49.05 173.87 48.76 173.87 48.76 32.93 57.85 32.93 57.85 2.52 258.25 2.52 258.25 32.93 267.34 32.93 267.34 171.69 270.69 171.69 270.69 287.38 259.69 287.38 259.69 392.67 268.48 392.67 268.48 479.61 258.25 479.61 258.25 613.62 -261.38 613.62"/><path class="cls-1" d="M-58.64,2.45V32.86h9.09V174.37H49.26V33.43h9.09V3h199.4V33.43h9.09V172.19h3.35V286.88h-11V393.17H268v85.94H257.75v134H-260.88v-134h-10.23V393.17h10.23V286.88h-10.23V165.37h4V32.86H-258V2.45h199.4m1-1H-259V31.86h-9.09V164.37h-4V287.88h10.23V392.17h-10.23v87.94h10.23v134H258.75v-134H269V392.17h-8.79V287.88h11V171.19h-3.35V32.43h-9.09V2H57.35V32.43H48.26V173.37H-48.55V31.86h-9.09V1.45Z"/></g><g id="Puzzle_Building_Base" data-name="Puzzle Building Base"><g id="Illustrated_Cathedral" data-name="Illustrated Cathedral"><path class="cls-2" d="M80.94,49h5.34a5.2,5.2,0,0,1,5.2,5.2V181a0,0,0,0,1,0,0H75.74a0,0,0,0,1,0,0V54.17A5.2,5.2,0,0,1,80.94,49Z"/><rect class="cls-2" x="67.92" y="14.16" width="183.37" height="9.88"/><rect class="cls-2" x="64.84" y="10.21" width="189.52" height="7.9"/></g><g id="GRID"><rect class="cls-3" x="-274.7" y="2.04" width="549.5" height="612.5"/><line class="cls-3" x1="91.64" y1="614.54" x2="91.64" y2="2.04"/><line class="cls-3" x1="0.05" y1="614.54" x2="0.05" y2="2.04"/></g><polygon id="Building_Outline-2" data-name="Building Outline" class="cls-4" points="260.7 392.61 260.7 288.31 271.7 288.31 271.7 171.62 268.36 171.62 268.36 32.87 259.26 32.87 259.26 2.45 57.87 2.45 57.87 32.87 48.78 32.87 48.78 173.8 37.41 173.8 -41.78 173.8 -48.03 173.8 -48.03 32.3 -57.13 32.3 -57.13 1.88 -258.52 1.88 -258.52 32.3 -267.62 32.3 -267.62 164.8 -271.59 164.8 -271.59 288.31 -261.37 288.31 -261.37 392.61 -271.59 392.61 -271.59 480.54 -261.37 480.54 -261.37 614.55 -85.2 614.55 -82.93 614.55 80.83 614.55 84.24 614.55 259.26 614.55 259.26 480.54 269.49 480.54 269.49 392.61 260.7 392.61"/></g></g></svg>