<svg xmlns="http://www.w3.org/2000/svg" viewBox="0 0 91.6 88"><defs><style>.cls-1{fill:#fff;}.cls-2{stroke:#5e5e5e;}.cls-2,.cls-3,.cls-4{stroke-miterlimit:10;}.cls-3,.cls-4{fill:none;stroke:#fff;}.cls-3{stroke-width:0.5px;}</style></defs><g id="Layer_1" data-name="Layer 1"><g id="Building_Outline" data-name="Building Outline"><polygon points="-261.38 173.62 -261.38 39.6 -271.61 39.6 -271.61 -47.33 -261.38 -47.33 -261.38 -152.62 -271.61 -152.62 -271.61 -275.13 -267.63 -275.13 -267.63 -407.64 -258.54 -407.64 -258.54 -438.05 -58.14 -438.05 -58.14 -407.64 -49.05 -407.64 -49.05 -266.13 48.76 -266.13 48.76 -407.07 57.85 -407.07 57.85 -437.48 258.25 -437.48 258.25 -407.07 267.34 -407.07 267.34 -268.31 270.69 -268.31 270.69 -152.62 259.69 -152.62 259.69 -47.33 268.48 -47.33 268.48 39.6 258.25 39.6 258.25 173.62 -261.38 173.62"/><path class="cls-1" d="M-58.64-437.55v30.41h9.09v141.51H49.26V-406.57h9.09V-437h199.4v30.41h9.09v138.76h3.35v114.69h-11V-46.83H268V39.11H257.75v134H-260.88v-134h-10.23V-46.83h10.23V-153.12h-10.23V-274.63h4V-407.14H-258v-30.41h199.4m1-1H-259v30.41h-9.09v132.51h-4v123.51h10.23V-47.83h-10.23V40.11h10.23v134H258.75v-134H269V-47.83h-8.79V-152.12h11V-268.81h-3.35V-407.57h-9.09V-438H57.35v30.41H48.26v140.94H-48.55V-408.14h-9.09v-30.41Z"/></g><g id="Puzzle_Building_Base" data-name="Puzzle Building Base"><g id="Illustrated_Cathedral" data-name="Illustrated Cathedral"><rect class="cls-2" x="66.05" y="72.79" width="27.85" height="38.75"/><path class="cls-2" d="M77.31,80.05h5.34a5.2,5.2,0,0,1,5.2,5.2v19a0,0,0,0,1,0,0H72.11a0,0,0,0,1,0,0v-19a5.2,5.2,0,0,1,5.2-5.2Z"/><path class="cls-2" d="M-.34,26.16H-16.09V-11.22a5.21,5.21,0,0,1,5.21-5.21h5.33A5.21,5.21,0,0,1-.34-11.22Z"/><path class="cls-2" d="M16.19,26.16H.45V-11.22a5.2,5.2,0,0,1,5.2-5.21H11a5.2,5.2,0,0,1,5.2,5.21Z"/><path class="cls-2" d="M32.73,26.16H17V-11.22a5.2,5.2,0,0,1,5.2-5.21h5.34a5.2,5.2,0,0,1,5.2,5.21Z"/><path class="cls-2" d="M49.27,26.16H33.52V-11.22a5.21,5.21,0,0,1,5.21-5.21h5.33a5.21,5.21,0,0,1,5.21,5.21Z"/><path class="cls-2" d="M65.8,26.16H50.06V-11.22a5.2,5.2,0,0,1,5.2-5.21H60.6a5.2,5.2,0,0,1,5.2,5.21Z"/><path class="cls-2" d="M82.34,26.16H66.6V-11.22a5.2,5.2,0,0,1,5.2-5.21h5.34a5.2,5.2,0,0,1,5.2,5.21Z"/><path class="cls-2" d="M98.88,26.16H83.13V-11.22a5.21,5.21,0,0,1,5.21-5.21h5.33a5.21,5.21,0,0,1,5.21,5.21Z"/><path class="cls-2" d="M-55.2,165.11V104.25C-55.2,56.7-.58,30.11-.58,30.11s55.27,20.62,55.27,72.72v62.28Z"/><path class="cls-2" d="M-45.51,161.48V106.67C-45.51,64.54-.58,40.6-.58,40.6S45,59.12,45,105.25v56.23Z"/><path class="cls-2" d="M-35.82,157.85V110.31c0-46,36.42-59,36.42-59s34.72,17.4,34.72,57.58v49Z"/><path class="cls-2" d="M.49,62.32s-26.62,8.33-26.62,48v43.9H25.63V108.89C25.63,74.29.49,62.32.49,62.32Z"/></g><g id="GRID"><rect class="cls-3" x="-274.7" y="-437.96" width="549.5" height="612.5"/><line class="cls-3" x1="-274.7" y1="87.04" x2="274.8" y2="87.04"/><line class="cls-3" x1="91.64" y1="174.54" x2="91.64" y2="-437.96"/><line class="cls-3" x1="0.05" y1="174.54" x2="0.05" y2="-437.96"/></g><polygon id="Building_Outline-2" data-name="Building Outline" class="cls-4" points="260.7 -47.39 260.7 -151.69 271.7 -151.69 271.7 -268.38 268.36 -268.38 268.36 -407.13 259.26 -407.13 259.26 -437.55 57.87 -437.55 57.87 -407.13 48.78 -407.13 48.78 -266.2 37.41 -266.2 -41.78 -266.2 -48.03 -266.2 -48.03 -407.7 -57.13 -407.7 -57.13 -438.12 -258.52 -438.12 -258.52 -407.7 -267.62 -407.7 -267.62 -275.2 -271.59 -275.2 -271.59 -151.69 -261.37 -151.69 -261.37 -47.39 -271.59 -47.39 -271.59 40.54 -261.37 40.54 -261.37 174.55 -85.2 174.55 -82.93 174.55 80.83 174.55 84.24 174.55 259.26 174.55 259.26 40.54 269.49 40.54 269.49 -47.39 260.7 -47.39"/></g></g></svg>