<svg xmlns="http://www.w3.org/2000/svg" viewBox="0 0 91.6 88"><defs><style>.cls-1{fill:#fff;}.cls-2{stroke:#5e5e5e;}.cls-2,.cls-3,.cls-4{stroke-miterlimit:10;}.cls-3,.cls-4{fill:none;stroke:#fff;}.cls-3{stroke-width:0.5px;}</style></defs><g id="Layer_1" data-name="Layer 1"><g id="Building_Outline" data-name="Building Outline"><polygon points="-169.78 261.62 -169.78 127.61 -180.01 127.61 -180.01 40.67 -169.78 40.67 -169.78 -64.62 -180.01 -64.62 -180.01 -187.13 -176.03 -187.13 -176.03 -319.64 -166.94 -319.64 -166.94 -350.05 33.46 -350.05 33.46 -319.64 42.55 -319.64 42.55 -178.13 140.36 -178.13 140.36 -319.07 149.46 -319.07 149.46 -349.48 349.85 -349.48 349.85 -319.07 358.94 -319.07 358.94 -180.31 362.29 -180.31 362.29 -64.62 351.29 -64.62 351.29 40.67 360.08 40.67 360.08 127.61 349.85 127.61 349.85 261.62 -169.78 261.62"/><path class="cls-1" d="M33-349.55v30.41h9.09v141.51h98.81V-318.57H150V-349H349.35v30.41h9.09v138.76h3.35V-65.12h-11V41.17h8.79v85.94H349.35v134H-169.28v-134h-10.23V41.17h10.23V-65.12h-10.23V-186.63h4V-319.14h9.09v-30.41H33m1-1h-201.4v30.41h-9.09v132.51h-4V-64.12h10.23V40.17h-10.23v87.94h10.23v134H350.35v-134h10.23V40.17h-8.79V-64.12h11V-180.81h-3.35V-319.57h-9.09V-350H149v30.41h-9.1v140.94H43.05V-320.14H34v-30.41Z"/></g><g id="Puzzle_Building_Base" data-name="Puzzle Building Base"><g id="Illustrated_Cathedral" data-name="Illustrated Cathedral"><circle class="cls-2" cx="92.05" cy="-11.18" r="49.65"/><path class="cls-2" d="M8.57,114.16H-7.17V76.78A5.2,5.2,0,0,1-2,71.57H3.37a5.2,5.2,0,0,1,5.2,5.21Z"/><path class="cls-2" d="M25.11,114.16H9.37V76.78a5.2,5.2,0,0,1,5.2-5.21h5.34a5.2,5.2,0,0,1,5.2,5.21Z"/><path class="cls-2" d="M41.65,114.16H25.9V76.78a5.21,5.21,0,0,1,5.21-5.21h5.33a5.21,5.21,0,0,1,5.21,5.21Z"/><path class="cls-2" d="M58.18,114.16H42.44V76.78a5.2,5.2,0,0,1,5.2-5.21H53a5.2,5.2,0,0,1,5.2,5.21Z"/><path class="cls-2" d="M74.72,114.16H59V76.78a5.2,5.2,0,0,1,5.2-5.21h5.34a5.2,5.2,0,0,1,5.2,5.21Z"/><path class="cls-2" d="M91.26,114.16H75.51V76.78a5.21,5.21,0,0,1,5.21-5.21h5.33a5.21,5.21,0,0,1,5.21,5.21Z"/><path class="cls-2" d="M107.79,114.16H92.05V76.78a5.2,5.2,0,0,1,5.2-5.21h5.34a5.2,5.2,0,0,1,5.2,5.21Z"/><rect class="cls-2" x="-160.84" y="51.79" width="505" height="12.11"/><rect class="cls-2" x="-169.32" y="46.95" width="521.95" height="9.69"/></g><g id="GRID"><rect class="cls-3" x="-183.1" y="-349.96" width="549.5" height="612.5"/><line class="cls-3" x1="-183.1" y1="0.04" x2="366.4" y2="0.04"/><line class="cls-3" x1="-183.1" y1="87.54" x2="366.4" y2="87.54"/><line class="cls-3" x1="91.65" y1="262.54" x2="91.65" y2="-349.96"/><line class="cls-3" x1="0.07" y1="262.54" x2="0.07" y2="-349.96"/></g><polygon id="Building_Outline-2" data-name="Building Outline" class="cls-4" points="352.3 40.61 352.3 -63.69 363.3 -63.69 363.3 -180.38 359.96 -180.38 359.96 -319.13 350.87 -319.13 350.87 -349.55 149.47 -349.55 149.47 -319.13 140.38 -319.13 140.38 -178.2 129.01 -178.2 49.82 -178.2 43.57 -178.2 43.57 -319.7 34.47 -319.7 34.47 -350.12 -166.92 -350.12 -166.92 -319.7 -176.01 -319.7 -176.01 -187.2 -179.99 -187.2 -179.99 -63.69 -169.76 -63.69 -169.76 40.61 -179.99 40.61 -179.99 128.54 -169.76 128.54 -169.76 262.55 6.4 262.55 8.67 262.55 172.43 262.55 175.84 262.55 350.87 262.55 350.87 128.54 361.1 128.54 361.1 40.61 352.3 40.61"/></g></g></svg>