<svg xmlns="http://www.w3.org/2000/svg" viewBox="0 0 91.6 88"><defs><style>.cls-1{fill:#fff;}.cls-2{stroke:#5e5e5e;}.cls-2,.cls-3,.cls-4{stroke-miterlimit:10;}.cls-3,.cls-4{fill:none;stroke:#fff;}.cls-3{stroke-width:0.5px;}</style></defs><g id="Layer_1" data-name="Layer 1"><g id="Building_Outline" data-name="Building Outline"><polygon points="-261.38 261.62 -261.38 127.61 -271.61 127.61 -271.61 40.67 -261.38 40.67 -261.38 -64.62 -271.61 -64.62 -271.61 -187.13 -267.63 -187.13 -267.63 -319.64 -258.54 -319.64 -258.54 -350.05 -58.14 -350.05 -58.14 -319.64 -49.05 -319.64 -49.05 -178.13 48.76 -178.13 48.76 -319.07 57.85 -319.07 57.85 -349.48 258.25 -349.48 258.25 -319.07 267.34 -319.07 267.34 -180.31 270.69 -180.31 270.69 -64.62 259.69 -64.62 259.69 40.67 268.48 40.67 268.48 127.61 258.25 127.61 258.25 261.62 -261.38 261.62"/><path class="cls-1" d="M-58.64-349.55v30.41h9.09v141.51H49.26V-318.57h9.09V-349h199.4v30.41h9.09v138.76h3.35V-65.12h-11V41.17H268v85.94H257.75v134H-260.88v-134h-10.23V41.17h10.23V-65.12h-10.23V-186.63h4V-319.14H-258v-30.41h199.4m1-1H-259v30.41h-9.09v132.51h-4V-64.12h10.23V40.17h-10.23v87.94h10.23v134H258.75v-134H269V40.17h-8.79V-64.12h11V-180.81h-3.35V-319.57h-9.09V-350H57.35v30.41H48.26v140.94H-48.55V-320.14h-9.09v-30.41Z"/></g><g id="Puzzle_Building_Base" data-name="Puzzle Building Base"><g id="Illustrated_Cathedral" data-name="Illustrated Cathedral"><circle class="cls-2" cx="0.45" cy="-11.18" r="49.65"/><path class="cls-2" d="M-.34,114.16H-16.09V76.78a5.21,5.21,0,0,1,5.21-5.21h5.33A5.21,5.21,0,0,1-.34,76.78Z"/><path class="cls-2" d="M16.19,114.16H.45V76.78a5.2,5.2,0,0,1,5.2-5.21H11a5.2,5.2,0,0,1,5.2,5.21Z"/><path class="cls-2" d="M32.73,114.16H17V76.78a5.2,5.2,0,0,1,5.2-5.21h5.34a5.2,5.2,0,0,1,5.2,5.21Z"/><path class="cls-2" d="M49.27,114.16H33.52V76.78a5.21,5.21,0,0,1,5.21-5.21h5.33a5.21,5.21,0,0,1,5.21,5.21Z"/><path class="cls-2" d="M65.8,114.16H50.06V76.78a5.2,5.2,0,0,1,5.2-5.21H60.6a5.2,5.2,0,0,1,5.2,5.21Z"/><path class="cls-2" d="M82.34,114.16H66.6V76.78a5.2,5.2,0,0,1,5.2-5.21h5.34a5.2,5.2,0,0,1,5.2,5.21Z"/><path class="cls-2" d="M98.88,114.16H83.13V76.78a5.21,5.21,0,0,1,5.21-5.21h5.33a5.21,5.21,0,0,1,5.21,5.21Z"/><rect class="cls-2" x="-252.44" y="51.79" width="505" height="12.11"/><rect class="cls-2" x="-260.92" y="46.95" width="521.95" height="9.69"/></g><g id="GRID"><rect class="cls-3" x="-274.7" y="-349.96" width="549.5" height="612.5"/><line class="cls-3" x1="-274.7" y1="0.04" x2="274.8" y2="0.04"/><line class="cls-3" x1="-274.7" y1="87.54" x2="274.8" y2="87.54"/><line class="cls-3" x1="91.64" y1="262.54" x2="91.64" y2="-349.96"/><line class="cls-3" x1="0.05" y1="262.54" x2="0.05" y2="-349.96"/></g><polygon id="Building_Outline-2" data-name="Building Outline" class="cls-4" points="260.7 40.61 260.7 -63.69 271.7 -63.69 271.7 -180.38 268.36 -180.38 268.36 -319.13 259.26 -319.13 259.26 -349.55 57.87 -349.55 57.87 -319.13 48.78 -319.13 48.78 -178.2 37.41 -178.2 -41.78 -178.2 -48.03 -178.2 -48.03 -319.7 -57.13 -319.7 -57.13 -350.12 -258.52 -350.12 -258.52 -319.7 -267.62 -319.7 -267.62 -187.2 -271.59 -187.2 -271.59 -63.69 -261.37 -63.69 -261.37 40.61 -271.59 40.61 -271.59 128.54 -261.37 128.54 -261.37 262.55 -85.2 262.55 -82.93 262.55 80.83 262.55 84.24 262.55 259.26 262.55 259.26 128.54 269.49 128.54 269.49 40.61 260.7 40.61"/></g></g></svg>