<svg xmlns="http://www.w3.org/2000/svg" viewBox="0 0 91.6 88"><defs><style>.cls-1{fill:#fff;}.cls-2{stroke:#5e5e5e;}.cls-2,.cls-3,.cls-4{stroke-miterlimit:10;}.cls-3,.cls-4{fill:none;stroke:#fff;}.cls-3{stroke-width:0.5px;}</style></defs><g id="Layer_1" data-name="Layer 1"><g id="Building_Outline" data-name="Building Outline"><polygon points="13.42 261.62 13.42 127.61 3.19 127.61 3.19 40.67 13.42 40.67 13.42 -64.62 3.19 -64.62 3.19 -187.13 7.17 -187.13 7.17 -319.64 16.27 -319.64 16.27 -350.05 216.66 -350.05 216.66 -319.64 225.75 -319.64 225.75 -178.13 323.56 -178.13 323.56 -319.07 332.66 -319.07 332.66 -349.48 533.05 -349.48 533.05 -319.07 542.15 -319.07 542.15 -180.31 545.49 -180.31 545.49 -64.62 534.49 -64.62 534.49 40.67 543.28 40.67 543.28 127.61 533.05 127.61 533.05 261.62 13.42 261.62"/><path class="cls-1" d="M216.16-349.55v30.41h9.09v141.51h98.82V-318.57h9.09V-349H532.55v30.41h9.1v138.76H545V-65.12H534V41.17h8.79v85.94H532.55v134H13.92v-134H3.7V41.17H13.92V-65.12H3.7V-186.63h4V-319.14h9.1v-30.41H216.16m1-1H15.77v30.41H6.67v132.51h-4V-64.12H12.92V40.17H2.7v87.94H12.92v134H533.55v-134h10.23V40.17H535V-64.12h11V-180.81h-3.34V-319.57h-9.1V-350H332.16v30.41h-9.09v140.94H226.25V-320.14h-9.09v-30.41Z"/></g><g id="Puzzle_Building_Base" data-name="Puzzle Building Base"><g id="Illustrated_Cathedral" data-name="Illustrated Cathedral"><path class="cls-2" d="M115.78-54.78C101-54.89,74.52-32.48,66-17.59A39.7,39.7,0,0,0,60.85,2.16V49.57H170.71V3.1a40,40,0,0,0-5.51-20.44C156.41-32,130.49-54.66,115.78-54.78Z"/><rect class="cls-2" x="61.11" y="9.11" width="108.99" height="39.75"/><path class="cls-2" d="M91.91-9.92c-.85.76-13.39,5.18-14,19.54V49h27.93V8.81C104.87-5.17,92.74-9.17,91.91-9.92Z"/><path class="cls-2" d="M43,114.16H27.2V76.78a5.21,5.21,0,0,1,5.21-5.21h5.33A5.21,5.21,0,0,1,43,76.78Z"/><path class="cls-2" d="M59.48,114.16H43.74V76.78a5.2,5.2,0,0,1,5.2-5.21h5.34a5.2,5.2,0,0,1,5.2,5.21Z"/><path class="cls-2" d="M76,114.16H60.28V76.78a5.2,5.2,0,0,1,5.2-5.21h5.34A5.2,5.2,0,0,1,76,76.78Z"/><path class="cls-2" d="M92.56,114.16H76.81V76.78A5.21,5.21,0,0,1,82,71.57h5.33a5.21,5.21,0,0,1,5.21,5.21Z"/><rect class="cls-2" x="22.36" y="51.79" width="505" height="12.11"/><rect class="cls-2" x="13.88" y="46.95" width="521.95" height="9.69"/></g><g id="GRID"><rect class="cls-3" x="0.11" y="-349.96" width="549.5" height="612.5"/><line class="cls-3" x1="0.11" y1="0.04" x2="549.61" y2="0.04"/><line class="cls-3" x1="0.11" y1="87.54" x2="549.61" y2="87.54"/><line class="cls-3" x1="91.69" y1="262.54" x2="91.69" y2="-349.96"/></g><polygon id="Building_Outline-2" data-name="Building Outline" class="cls-4" points="535.5 40.61 535.5 -63.69 546.5 -63.69 546.5 -180.38 543.16 -180.38 543.16 -319.13 534.07 -319.13 534.07 -349.55 332.67 -349.55 332.67 -319.13 323.58 -319.13 323.58 -178.2 312.21 -178.2 233.02 -178.2 226.77 -178.2 226.77 -319.7 217.68 -319.7 217.68 -350.12 16.28 -350.12 16.28 -319.7 7.19 -319.7 7.19 -187.2 3.21 -187.2 3.21 -63.69 13.44 -63.69 13.44 40.61 3.21 40.61 3.21 128.54 13.44 128.54 13.44 262.55 189.6 262.55 191.88 262.55 355.63 262.55 359.04 262.55 534.07 262.55 534.07 128.54 544.3 128.54 544.3 40.61 535.5 40.61"/></g></g></svg>