<svg xmlns="http://www.w3.org/2000/svg" viewBox="0 0 91.6 88"><defs><style>.cls-1{fill:#fff;}.cls-2{stroke:#5e5e5e;}.cls-2,.cls-3,.cls-4{stroke-miterlimit:10;}.cls-3,.cls-4{fill:none;stroke:#fff;}.cls-3{stroke-width:0.5px;}</style></defs><g id="Layer_1" data-name="Layer 1"><g id="Building_Outline" data-name="Building Outline"><polygon points="-444.58 173.62 -444.58 39.6 -454.81 39.6 -454.81 -47.33 -444.58 -47.33 -444.58 -152.62 -454.81 -152.62 -454.81 -275.13 -450.83 -275.13 -450.83 -407.64 -441.74 -407.64 -441.74 -438.05 -241.34 -438.05 -241.34 -407.64 -232.25 -407.64 -232.25 -266.13 -134.44 -266.13 -134.44 -407.07 -125.35 -407.07 -125.35 -437.48 75.05 -437.48 75.05 -407.07 84.14 -407.07 84.14 -268.31 87.48 -268.31 87.48 -152.62 76.48 -152.62 76.48 -47.33 85.28 -47.33 85.28 39.6 75.05 39.6 75.05 173.62 -444.58 173.62"/><path class="cls-1" d="M-241.84-437.55v30.41h9.09v141.51h98.81V-406.57h9.09V-437H74.55v30.41h9.09v138.76H87v114.69H76V-46.83h8.8V39.11H74.55v134H-444.08v-134h-10.23V-46.83h10.23V-153.12h-10.23V-274.63h4V-407.14h9.09v-30.41h199.4m1-1h-201.4v30.41h-9.09v132.51h-4v123.51h10.23V-47.83h-10.23V40.11h10.23v134H75.55v-134H85.78V-47.83H77V-152.12H88V-268.81H84.64V-407.57H75.55V-438h-201.4v30.41h-9.09v140.94h-96.81V-408.14h-9.09v-30.41Z"/></g><g id="Puzzle_Building_Base" data-name="Puzzle Building Base"><g id="Illustrated_Cathedral" data-name="Illustrated Cathedral"><path class="cls-2" d="M-78.52,164.82V104c0-47.55,54.62-74.14,54.62-74.14s55.27,20.62,55.27,72.72v62.28Z"/><path class="cls-2" d="M-68.83,161.19v-54.8c0-42.14,44.93-66.08,44.93-66.08S21.68,58.83,21.68,105v56.23Z"/><path class="cls-2" d="M-59.14,157.56V110c0-46,36.42-59,36.42-59S12,68.42,12,108.6v49Z"/><path class="cls-2" d="M-22.83,62s-26.62,8.33-26.62,48v43.9H2.31V108.6C2.31,74-22.83,62-22.83,62Z"/><rect class="cls-2" x="41.5" y="72.79" width="27.85" height="38.75"/><path class="cls-2" d="M52.75,80.05h5.34a5.2,5.2,0,0,1,5.2,5.2v19a0,0,0,0,1,0,0H47.55a0,0,0,0,1,0,0v-19a5.2,5.2,0,0,1,5.2-5.2Z"/><path class="cls-2" d="M14.89,26.16H-.85V-11.22a5.2,5.2,0,0,1,5.2-5.21H9.69a5.2,5.2,0,0,1,5.2,5.21Z"/><path class="cls-2" d="M31.43,26.16H15.69V-11.22a5.2,5.2,0,0,1,5.2-5.21h5.34a5.2,5.2,0,0,1,5.2,5.21Z"/><path class="cls-2" d="M48,26.16H32.22V-11.22a5.21,5.21,0,0,1,5.21-5.21h5.34A5.2,5.2,0,0,1,48-11.22Z"/><path class="cls-2" d="M64.5,26.16H48.76V-11.22A5.2,5.2,0,0,1,54-16.43H59.3a5.2,5.2,0,0,1,5.2,5.21Z"/></g><g id="GRID"><rect class="cls-3" x="-457.9" y="-437.96" width="549.5" height="612.5"/><line class="cls-3" x1="-457.9" y1="87.04" x2="91.6" y2="87.04"/><line class="cls-3" x1="0.02" y1="174.54" x2="0.02" y2="-437.96"/></g><polygon id="Building_Outline-2" data-name="Building Outline" class="cls-4" points="77.5 -47.39 77.5 -151.69 88.5 -151.69 88.5 -268.38 85.16 -268.38 85.16 -407.13 76.06 -407.13 76.06 -437.55 -125.33 -437.55 -125.33 -407.13 -134.43 -407.13 -134.43 -266.2 -145.79 -266.2 -224.99 -266.2 -231.24 -266.2 -231.24 -407.7 -240.33 -407.7 -240.33 -438.12 -441.73 -438.12 -441.73 -407.7 -450.82 -407.7 -450.82 -275.2 -454.8 -275.2 -454.8 -151.69 -444.57 -151.69 -444.57 -47.39 -454.8 -47.39 -454.8 40.54 -444.57 40.54 -444.57 174.55 -268.4 174.55 -266.13 174.55 -102.37 174.55 -98.97 174.55 76.06 174.55 76.06 40.54 86.29 40.54 86.29 -47.39 77.5 -47.39"/></g></g></svg>