<svg xmlns="http://www.w3.org/2000/svg" viewBox="0 0 91.6 88"><defs><style>.cls-1{fill:#fff;}.cls-2{stroke:#5e5e5e;}.cls-2,.cls-3,.cls-4{stroke-miterlimit:10;}.cls-3,.cls-4{fill:none;stroke:#fff;}.cls-3{stroke-width:0.5px;}</style></defs><g id="Layer_1" data-name="Layer 1"><g id="Building_Outline" data-name="Building Outline"><polygon points="-169.78 613.62 -169.78 479.61 -180.01 479.61 -180.01 392.67 -169.78 392.67 -169.78 287.38 -180.01 287.38 -180.01 164.87 -176.03 164.87 -176.03 32.36 -166.94 32.36 -166.94 1.95 33.46 1.95 33.46 32.36 42.55 32.36 42.55 173.87 140.36 173.87 140.36 32.93 149.46 32.93 149.46 2.52 349.85 2.52 349.85 32.93 358.94 32.93 358.94 171.69 362.29 171.69 362.29 287.38 351.29 287.38 351.29 392.67 360.08 392.67 360.08 479.61 349.85 479.61 349.85 613.62 -169.78 613.62"/><path class="cls-1" d="M33,2.45V32.86h9.09V174.37h98.81V33.43H150V3H349.35V33.43h9.09V172.19h3.35V286.88h-11V393.17h8.79v85.94H349.35v134H-169.28v-134h-10.23V393.17h10.23V286.88h-10.23V165.37h4V32.86h9.09V2.45H33m1-1h-201.4V31.86h-9.09V164.37h-4V287.88h10.23V392.17h-10.23v87.94h10.23v134H350.35v-134h10.23V392.17h-8.79V287.88h11V171.19h-3.35V32.43h-9.09V2H149V32.43h-9.1V173.37H43.05V31.86H34V1.45Z"/></g><g id="Puzzle_Building_Base" data-name="Puzzle Building Base"><g id="Illustrated_Cathedral" data-name="Illustrated Cathedral"><path class="cls-2" d="M3,49H8.34a5.2,5.2,0,0,1,5.2,5.2V181a0,0,0,0,1,0,0H-2.2a0,0,0,0,1,0,0V54.17A5.2,5.2,0,0,1,3,49Z"/><rect class="cls-2" x="-156.55" y="14.16" width="183.37" height="9.88"/><rect class="cls-2" x="-159.63" y="10.21" width="189.52" height="7.9"/></g><g id="GRID"><rect class="cls-3" x="-183.1" y="2.04" width="549.5" height="612.5"/><line class="cls-3" x1="91.65" y1="614.54" x2="91.65" y2="2.04"/><line class="cls-3" x1="0.07" y1="614.54" x2="0.07" y2="2.04"/></g><polygon id="Building_Outline-2" data-name="Building Outline" class="cls-4" points="352.3 392.61 352.3 288.31 363.3 288.31 363.3 171.62 359.96 171.62 359.96 32.87 350.87 32.87 350.87 2.45 149.47 2.45 149.47 32.87 140.38 32.87 140.38 173.8 129.01 173.8 49.82 173.8 43.57 173.8 43.57 32.3 34.47 32.3 34.47 1.88 -166.92 1.88 -166.92 32.3 -176.01 32.3 -176.01 164.8 -179.99 164.8 -179.99 288.31 -169.76 288.31 -169.76 392.61 -179.99 392.61 -179.99 480.54 -169.76 480.54 -169.76 614.55 6.4 614.55 8.67 614.55 172.43 614.55 175.84 614.55 350.87 614.55 350.87 480.54 361.1 480.54 361.1 392.61 352.3 392.61"/></g></g></svg>