<svg xmlns="http://www.w3.org/2000/svg" viewBox="0 0 91.6 88"><defs><style>.cls-1{fill:#fff;}.cls-2{stroke:#5e5e5e;}.cls-2,.cls-3,.cls-4{stroke-miterlimit:10;}.cls-3,.cls-4{fill:none;stroke:#fff;}.cls-3{stroke-width:0.5px;}</style></defs><g id="Layer_1" data-name="Layer 1"><g id="Building_Outline" data-name="Building Outline"><polygon points="-78.18 85.62 -78.18 -48.4 -88.41 -48.4 -88.41 -135.33 -78.18 -135.33 -78.18 -240.62 -88.41 -240.62 -88.41 -363.13 -84.43 -363.13 -84.43 -495.64 -75.33 -495.64 -75.33 -526.05 125.06 -526.05 125.06 -495.64 134.15 -495.64 134.15 -354.13 231.96 -354.13 231.96 -495.07 241.06 -495.07 241.06 -525.48 441.45 -525.48 441.45 -495.07 450.55 -495.07 450.55 -356.31 453.89 -356.31 453.89 -240.62 442.89 -240.62 442.89 -135.33 451.68 -135.33 451.68 -48.4 441.45 -48.4 441.45 85.62 -78.18 85.62"/><path class="cls-1" d="M124.56-525.55v30.41h9.09v141.51h98.81V-494.57h9.1V-525H441v30.41h9.1v138.76h3.34v114.69h-11v106.29h8.79v85.94H441v134H-77.68v-134H-87.91v-85.94h10.23V-241.12H-87.91V-362.63h4V-495.14h9.09v-30.41h199.4m1-1H-75.84v30.41h-9.09v132.51h-4v123.51h10.23v104.29H-88.91v87.94h10.23v134H442v-134h10.23v-87.94h-8.79V-240.12h11V-356.81h-3.34V-495.57H442V-526H240.56v30.41h-9.1v140.94H134.65V-496.14h-9.09v-30.41Z"/></g><g id="Puzzle_Building_Base" data-name="Puzzle Building Base"><g id="Illustrated_Cathedral" data-name="Illustrated Cathedral"><path class="cls-2" d="M-30.61,76.82V16C-30.61-31.59,24-58.18,24-58.18S79.28-37.56,79.28,14.54V76.82Z"/><path class="cls-2" d="M-20.93,73.19V18.39C-20.93-23.75,24-47.69,24-47.69S69.59-29.17,69.59,17V73.19Z"/><path class="cls-2" d="M-11.24,69.56V22c0-46,36.42-59,36.42-59S59.9-19.58,59.9,20.6v49Z"/><path class="cls-2" d="M25.08-26S-1.55-17.64-1.55,22v43.9H50.21V20.6C50.21-14,25.08-26,25.08-26Z"/><rect class="cls-2" x="91.82" y="19.91" width="27.85" height="56.92"/><rect class="cls-2" x="91.82" y="-15.21" width="27.85" height="38.75"/></g><g id="GRID"><rect class="cls-3" x="-91.49" y="-525.96" width="549.5" height="612.5"/><line class="cls-3" x1="91.67" y1="86.54" x2="91.67" y2="-525.96"/><line class="cls-3" x1="0.09" y1="86.54" x2="0.09" y2="-525.96"/></g><polygon id="Building_Outline-2" data-name="Building Outline" class="cls-4" points="443.9 -135.39 443.9 -239.69 454.9 -239.69 454.9 -356.38 451.56 -356.38 451.56 -495.13 442.47 -495.13 442.47 -525.55 241.07 -525.55 241.07 -495.13 231.98 -495.13 231.98 -354.2 220.61 -354.2 141.42 -354.2 135.17 -354.2 135.17 -495.7 126.08 -495.7 126.08 -526.12 -75.32 -526.12 -75.32 -495.7 -84.41 -495.7 -84.41 -363.2 -88.39 -363.2 -88.39 -239.69 -78.16 -239.69 -78.16 -135.39 -88.39 -135.39 -88.39 -47.46 -78.16 -47.46 -78.16 86.55 98 86.55 100.28 86.55 264.03 86.55 267.44 86.55 442.47 86.55 442.47 -47.46 452.7 -47.46 452.7 -135.39 443.9 -135.39"/></g></g></svg>