<svg xmlns="http://www.w3.org/2000/svg" viewBox="0 0 91.6 88"><defs><style>.cls-1{fill:#fff;}.cls-2{stroke:#5e5e5e;}.cls-2,.cls-3,.cls-4{stroke-miterlimit:10;}.cls-3,.cls-4{fill:none;stroke:#fff;}.cls-3{stroke-width:0.5px;}</style></defs><g id="Layer_1" data-name="Layer 1"><g id="Building_Outline" data-name="Building Outline"><polygon points="-352.98 261.62 -352.98 127.61 -363.21 127.61 -363.21 40.67 -352.98 40.67 -352.98 -64.62 -363.21 -64.62 -363.21 -187.13 -359.23 -187.13 -359.23 -319.64 -350.14 -319.64 -350.14 -350.05 -149.74 -350.05 -149.74 -319.64 -140.65 -319.64 -140.65 -178.13 -42.84 -178.13 -42.84 -319.07 -33.75 -319.07 -33.75 -349.48 166.65 -349.48 166.65 -319.07 175.74 -319.07 175.74 -180.31 179.09 -180.31 179.09 -64.62 168.09 -64.62 168.09 40.67 176.88 40.67 176.88 127.61 166.65 127.61 166.65 261.62 -352.98 261.62"/><path class="cls-1" d="M-150.24-349.55v30.41h9.09v141.51h98.81V-318.57h9.09V-349h199.4v30.41h9.09v138.76h3.35V-65.12h-11V41.17h8.79v85.94H166.15v134H-352.48v-134h-10.23V41.17h10.23V-65.12h-10.23V-186.63h4V-319.14h9.09v-30.41h199.4m1-1h-201.4v30.41h-9.09v132.51h-4V-64.12h10.23V40.17h-10.23v87.94h10.23v134H167.15v-134h10.23V40.17h-8.79V-64.12h11V-180.81h-3.35V-319.57h-9.09V-350H-34.25v30.41h-9.09v140.94h-96.81V-320.14h-9.09v-30.41Z"/></g><g id="Puzzle_Building_Base" data-name="Puzzle Building Base"><g id="Illustrated_Cathedral" data-name="Illustrated Cathedral"><path class="cls-2" d="M67.87-54.78c-14.76-.11-41.25,22.3-49.82,37.19A39.8,39.8,0,0,0,13,2.16V49.57H122.8V3.1a39.89,39.89,0,0,0-5.51-20.44C108.5-32,82.58-54.66,67.87-54.78Z"/><rect class="cls-2" x="13.21" y="9.11" width="108.99" height="39.75"/><path class="cls-2" d="M44-9.92c-.84.76-13.39,5.18-14,19.54V49H58V8.81C57-5.17,44.83-9.17,44-9.92Z"/><path class="cls-2" d="M91.23-9.92c-.84.76-13.39,5.18-14,19.54V49H105.2V8.81C104.19-5.17,92.06-9.17,91.23-9.92Z"/><path class="cls-2" d="M7.28,114.16H-8.47V76.78a5.21,5.21,0,0,1,5.21-5.21H2.07a5.21,5.21,0,0,1,5.21,5.21Z"/><path class="cls-2" d="M23.81,114.16H8.07V76.78a5.2,5.2,0,0,1,5.2-5.21h5.34a5.2,5.2,0,0,1,5.2,5.21Z"/><path class="cls-2" d="M40.35,114.16H24.61V76.78a5.2,5.2,0,0,1,5.2-5.21h5.34a5.2,5.2,0,0,1,5.2,5.21Z"/><path class="cls-2" d="M56.89,114.16H41.14V76.78a5.21,5.21,0,0,1,5.21-5.21h5.33a5.21,5.21,0,0,1,5.21,5.21Z"/><path class="cls-2" d="M73.42,114.16H57.68V76.78a5.2,5.2,0,0,1,5.2-5.21h5.34a5.2,5.2,0,0,1,5.2,5.21Z"/><path class="cls-2" d="M90,114.16H74.22V76.78a5.2,5.2,0,0,1,5.2-5.21h5.34A5.2,5.2,0,0,1,90,76.78Z"/><path class="cls-2" d="M106.5,114.16H90.75V76.78A5.21,5.21,0,0,1,96,71.57h5.33a5.21,5.21,0,0,1,5.21,5.21Z"/><rect class="cls-2" x="-344.05" y="51.79" width="505" height="12.11"/><rect class="cls-2" x="-352.52" y="46.95" width="521.95" height="9.69"/></g><g id="GRID"><rect class="cls-3" x="-366.3" y="-349.96" width="549.5" height="612.5"/><line class="cls-3" x1="-366.3" y1="0.04" x2="183.2" y2="0.04"/><line class="cls-3" x1="-366.3" y1="87.54" x2="183.2" y2="87.54"/><line class="cls-3" x1="91.62" y1="262.54" x2="91.62" y2="-349.96"/><line class="cls-3" x1="0.04" y1="262.54" x2="0.04" y2="-349.96"/></g><polygon id="Building_Outline-2" data-name="Building Outline" class="cls-4" points="169.1 40.61 169.1 -63.69 180.1 -63.69 180.1 -180.38 176.76 -180.38 176.76 -319.13 167.66 -319.13 167.66 -349.55 -33.73 -349.55 -33.73 -319.13 -42.83 -319.13 -42.83 -178.2 -54.19 -178.2 -133.38 -178.2 -139.64 -178.2 -139.64 -319.7 -148.73 -319.7 -148.73 -350.12 -350.13 -350.12 -350.13 -319.7 -359.22 -319.7 -359.22 -187.2 -363.19 -187.2 -363.19 -63.69 -352.97 -63.69 -352.97 40.61 -363.19 40.61 -363.19 128.54 -352.97 128.54 -352.97 262.55 -176.8 262.55 -174.53 262.55 -10.77 262.55 -7.36 262.55 167.66 262.55 167.66 128.54 177.89 128.54 177.89 40.61 169.1 40.61"/></g></g></svg>