<svg xmlns="http://www.w3.org/2000/svg" viewBox="0 0 91.6 88"><defs><style>.cls-1{fill:#fff;}.cls-2{stroke:#5e5e5e;}.cls-2,.cls-3,.cls-4{stroke-miterlimit:10;}.cls-3,.cls-4{fill:none;stroke:#fff;}.cls-3{stroke-width:0.5px;}</style></defs><g id="Layer_1" data-name="Layer 1"><g id="Building_Outline" data-name="Building Outline"><polygon points="13.42 437.62 13.42 303.61 3.19 303.61 3.19 216.67 13.42 216.67 13.42 111.38 3.19 111.38 3.19 -11.13 7.17 -11.13 7.17 -143.64 16.27 -143.64 16.27 -174.05 216.66 -174.05 216.66 -143.64 225.75 -143.64 225.75 -2.13 323.56 -2.13 323.56 -143.07 332.66 -143.07 332.66 -173.48 533.05 -173.48 533.05 -143.07 542.15 -143.07 542.15 -4.31 545.49 -4.31 545.49 111.38 534.49 111.38 534.49 216.67 543.28 216.67 543.28 303.61 533.05 303.61 533.05 437.62 13.42 437.62"/><path class="cls-1" d="M216.16-173.55v30.41h9.09V-1.63h98.82V-142.57h9.09V-173H532.55v30.41h9.1V-3.81H545V110.88H534V217.17h8.79v85.94H532.55v134H13.92v-134H3.7V217.17H13.92V110.88H3.7V-10.63h4V-143.14h9.1v-30.41H216.16m1-1H15.77v30.41H6.67V-11.63h-4V111.88H12.92V216.17H2.7v87.94H12.92v134H533.55v-134h10.23V216.17H535V111.88h11V-4.81h-3.34V-143.57h-9.1V-174H332.16v30.41h-9.09V-2.63H226.25V-144.14h-9.09v-30.41Z"/></g><g id="Puzzle_Building_Base" data-name="Puzzle Building Base"><g id="Illustrated_Cathedral" data-name="Illustrated Cathedral"><path class="cls-2" d="M84.6-131.82c9.93,0,19.11,7.27,23.06,18.81a46.81,46.81,0,0,1,2.5,14c0,.6,0,1.2,0,1.8V5H59V-97.25c0-.6,0-1.2,0-1.8a47.12,47.12,0,0,1,2.49-14c4-11.54,13.13-18.81,23.07-18.81Z"/><path class="cls-2" d="M84.29-114.31c-.92.71-14.68,11.48-15.31,24.91V5.05H99.6V-90.16C98.5-103.24,85.2-113.62,84.29-114.31Z"/><path class="cls-2" d="M72.49,21.46c-.84.64-13.39,10.47-14,22.72V98.39H86.46V43.49C85.45,31.56,73.32,22.09,72.49,21.46Z"/><path class="cls-2" d="M65.93,41.27c2,0,3.81,1.55,4.6,4a10.62,10.62,0,0,1,.5,3V98.39H60.82V48.63c0-.13,0-.25,0-.38a10.27,10.27,0,0,1,.5-3c.79-2.46,2.62-4,4.6-4Z"/><path class="cls-2" d="M79.05,41.27c2,0,3.82,1.55,4.61,4a10.61,10.61,0,0,1,.49,3c0,.13,0,.25,0,.38V98.39H74V48.25a10.62,10.62,0,0,1,.5-3c.79-2.46,2.62-4,4.6-4Z"/><path class="cls-2" d="M101.79,21.46c-.85.64-13.39,10.47-14,22.72V98.39h27.93V43.49C114.75,31.56,102.62,22.09,101.79,21.46Z"/><path class="cls-2" d="M95.22,41.27c2,0,3.82,1.55,4.61,4a10.61,10.61,0,0,1,.49,3c0,.13,0,.25,0,.38V98.39H90.12V48.25a10.62,10.62,0,0,1,.5-3c.79-2.46,2.62-4,4.6-4Z"/><rect class="cls-2" x="22.36" y="21.92" width="27.85" height="76.29"/><path class="cls-2" d="M29.84,40.72c2,0,3.81,1.55,4.6,4a10.68,10.68,0,0,1,.5,3V97.84H24.73V48.08c0-.12,0-.25,0-.38a10.67,10.67,0,0,1,.49-3c.79-2.46,2.62-4,4.61-4Z"/><path class="cls-2" d="M43,40.72c2,0,3.81,1.55,4.6,4a10.32,10.32,0,0,1,.5,3c0,.13,0,.26,0,.38V97.84H37.86V47.7a10.68,10.68,0,0,1,.5-3c.79-2.46,2.62-4,4.6-4Z"/><circle class="cls-2" cx="36.89" cy="31.61" r="4.84"/><path class="cls-2" d="M37.25-127h5.34a5.2,5.2,0,0,1,5.2,5.2V5a0,0,0,0,1,0,0H32a0,0,0,0,1,0,0v-126.8A5.2,5.2,0,0,1,37.25-127Z"/><rect class="cls-2" x="22.36" y="9.81" width="505" height="12.11"/><rect class="cls-2" x="13.88" y="4.97" width="521.95" height="9.69"/></g><g id="GRID"><rect class="cls-3" x="0.11" y="-173.96" width="549.5" height="612.5"/><line class="cls-3" x1="0.11" y1="1.04" x2="549.61" y2="1.04"/><line class="cls-3" x1="91.69" y1="438.54" x2="91.69" y2="-173.96"/></g><polygon id="Building_Outline-2" data-name="Building Outline" class="cls-4" points="535.5 216.61 535.5 112.31 546.5 112.31 546.5 -4.38 543.16 -4.38 543.16 -143.13 534.07 -143.13 534.07 -173.55 332.67 -173.55 332.67 -143.13 323.58 -143.13 323.58 -2.2 312.21 -2.2 233.02 -2.2 226.77 -2.2 226.77 -143.7 217.68 -143.7 217.68 -174.12 16.28 -174.12 16.28 -143.7 7.19 -143.7 7.19 -11.2 3.21 -11.2 3.21 112.31 13.44 112.31 13.44 216.61 3.21 216.61 3.21 304.54 13.44 304.54 13.44 438.55 189.6 438.55 191.88 438.55 355.63 438.55 359.04 438.55 534.07 438.55 534.07 304.54 544.3 304.54 544.3 216.61 535.5 216.61"/></g></g></svg>