<svg xmlns="http://www.w3.org/2000/svg" viewBox="0 0 91.6 88"><defs><style>.cls-1{fill:#fff;}.cls-2{stroke:#5e5e5e;}.cls-2,.cls-3,.cls-4{stroke-miterlimit:10;}.cls-3,.cls-4{fill:none;stroke:#fff;}.cls-3{stroke-width:0.5px;}</style></defs><g id="Layer_1" data-name="Layer 1"><g id="Building_Outline" data-name="Building Outline"><polygon points="-169.78 349.62 -169.78 215.6 -180.01 215.6 -180.01 128.67 -169.78 128.67 -169.78 23.38 -180.01 23.38 -180.01 -99.13 -176.03 -99.13 -176.03 -231.64 -166.94 -231.64 -166.94 -262.05 33.46 -262.05 33.46 -231.64 42.55 -231.64 42.55 -90.13 140.36 -90.13 140.36 -231.07 149.46 -231.07 149.46 -261.48 349.85 -261.48 349.85 -231.07 358.94 -231.07 358.94 -92.31 362.29 -92.31 362.29 23.38 351.29 23.38 351.29 128.67 360.08 128.67 360.08 215.6 349.85 215.6 349.85 349.62 -169.78 349.62"/><path class="cls-1" d="M33-261.55v30.41h9.09V-89.63h98.81V-230.57H150V-261H349.35v30.41h9.09V-91.81h3.35V22.88h-11V129.17h8.79v85.94H349.35v134H-169.28v-134h-10.23V129.17h10.23V22.88h-10.23V-98.63h4V-231.14h9.09v-30.41H33m1-1h-201.4v30.41h-9.09V-99.63h-4V23.88h10.23V128.17h-10.23v87.94h10.23v134H350.35v-134h10.23V128.17h-8.79V23.88h11V-92.81h-3.35V-231.57h-9.09V-262H149v30.41h-9.1V-90.63H43.05V-232.14H34v-30.41Z"/></g><g id="Puzzle_Building_Base" data-name="Puzzle Building Base"><g id="Illustrated_Cathedral" data-name="Illustrated Cathedral"><path class="cls-2" d="M46.72-66.54c-.84.64-13.39,10.47-14,22.72V10.39H60.69v-54.9C59.68-56.44,47.55-65.91,46.72-66.54Z"/><path class="cls-2" d="M40.16-46.73c2,0,3.81,1.55,4.6,4a10.62,10.62,0,0,1,.5,3V10.39H35.06V-39.75a10.62,10.62,0,0,1,.5-3c.79-2.46,2.62-4,4.6-4Z"/><path class="cls-2" d="M53.28-46.73c2,0,3.82,1.55,4.61,4a10.61,10.61,0,0,1,.49,3c0,.13,0,.25,0,.38V10.39H48.18V-39.75a10.62,10.62,0,0,1,.5-3c.79-2.46,2.62-4,4.6-4Z"/><path class="cls-2" d="M76-66.54c-.85.64-13.39,10.47-14,22.72V10.39H90v-54.9C89-56.44,76.85-65.91,76-66.54Z"/><path class="cls-2" d="M69.45-46.73c2,0,3.82,1.55,4.61,4a10.61,10.61,0,0,1,.49,3c0,.13,0,.25,0,.38V10.39H64.35V-39.37c0-.13,0-.25,0-.38a10.26,10.26,0,0,1,.49-3c.79-2.46,2.62-4,4.6-4Z"/><path class="cls-2" d="M82.58-46.73c2,0,3.81,1.55,4.6,4a10.62,10.62,0,0,1,.5,3V10.39H77.48V-39.75a10.62,10.62,0,0,1,.5-3c.79-2.46,2.62-4,4.6-4Z"/><path class="cls-2" d="M105.31-66.54c-.84.64-13.39,10.47-14,22.72V10.39h27.93v-54.9C118.27-56.44,106.14-65.91,105.31-66.54Z"/><path class="cls-2" d="M48.79,37.07h0v0a4.2,4.2,0,0,0,4.08-4.2h0a4.2,4.2,0,0,0-4.08-4.21h0a4.22,4.22,0,0,0-4.21-4.14h0a4.2,4.2,0,0,0-4.21,4.14h0a4.21,4.21,0,0,0-4.21,4.22h0A4.21,4.21,0,0,0,40.37,37h0v0h0a4.2,4.2,0,0,0,4.21,4.15h0A4.22,4.22,0,0,0,48.79,37.07Z"/><rect class="cls-2" x="-0.99" y="-66.08" width="27.85" height="76.29"/><path class="cls-2" d="M6.49-47.28c2,0,3.81,1.55,4.6,4a10.68,10.68,0,0,1,.5,3V9.84H1.39V-40.3a10.68,10.68,0,0,1,.5-3c.79-2.46,2.62-4,4.6-4Z"/><path class="cls-2" d="M19.61-47.28c2,0,3.82,1.55,4.61,4a10.67,10.67,0,0,1,.49,3c0,.13,0,.26,0,.38V9.84H14.51V-40.3a10.68,10.68,0,0,1,.5-3c.79-2.46,2.62-4,4.6-4Z"/><circle class="cls-2" cx="92.05" cy="76.82" r="49.65"/></g><g id="GRID"><rect class="cls-3" x="-183.1" y="-261.96" width="549.5" height="612.5"/><line class="cls-3" x1="-183.1" y1="0.54" x2="366.4" y2="0.54"/><line class="cls-3" x1="-183.1" y1="88.04" x2="366.4" y2="88.04"/><line class="cls-3" x1="91.65" y1="350.54" x2="91.65" y2="-261.96"/><line class="cls-3" x1="0.07" y1="350.54" x2="0.07" y2="-261.96"/></g><polygon id="Building_Outline-2" data-name="Building Outline" class="cls-4" points="352.3 128.61 352.3 24.31 363.3 24.31 363.3 -92.38 359.96 -92.38 359.96 -231.13 350.87 -231.13 350.87 -261.55 149.47 -261.55 149.47 -231.13 140.38 -231.13 140.38 -90.2 129.01 -90.2 49.82 -90.2 43.57 -90.2 43.57 -231.7 34.47 -231.7 34.47 -262.12 -166.92 -262.12 -166.92 -231.7 -176.01 -231.7 -176.01 -99.2 -179.99 -99.2 -179.99 24.31 -169.76 24.31 -169.76 128.61 -179.99 128.61 -179.99 216.54 -169.76 216.54 -169.76 350.55 6.4 350.55 8.67 350.55 172.43 350.55 175.84 350.55 350.87 350.55 350.87 216.54 361.1 216.54 361.1 128.61 352.3 128.61"/></g></g></svg>