<svg xmlns="http://www.w3.org/2000/svg" viewBox="0 0 91.6 88"><defs><style>.cls-1{fill:#fff;}.cls-2{stroke:#5e5e5e;}.cls-2,.cls-3,.cls-4{stroke-miterlimit:10;}.cls-3,.cls-4{fill:none;stroke:#fff;}.cls-3{stroke-width:0.5px;}</style></defs><g id="Layer_1" data-name="Layer 1"><g id="Building_Outline" data-name="Building Outline"><polygon points="-78.18 349.62 -78.18 215.6 -88.41 215.6 -88.41 128.67 -78.18 128.67 -78.18 23.38 -88.41 23.38 -88.41 -99.13 -84.43 -99.13 -84.43 -231.64 -75.33 -231.64 -75.33 -262.05 125.06 -262.05 125.06 -231.64 134.15 -231.64 134.15 -90.13 231.96 -90.13 231.96 -231.07 241.06 -231.07 241.06 -261.48 441.45 -261.48 441.45 -231.07 450.55 -231.07 450.55 -92.31 453.89 -92.31 453.89 23.38 442.89 23.38 442.89 128.67 451.68 128.67 451.68 215.6 441.45 215.6 441.45 349.62 -78.18 349.62"/><path class="cls-1" d="M124.56-261.55v30.41h9.09V-89.63h98.81V-230.57h9.1V-261H441v30.41h9.1V-91.81h3.34V22.88h-11V129.17h8.79v85.94H441v134H-77.68v-134H-87.91V129.17h10.23V22.88H-87.91V-98.63h4V-231.14h9.09v-30.41h199.4m1-1H-75.84v30.41h-9.09V-99.63h-4V23.88h10.23V128.17H-88.91v87.94h10.23v134H442v-134h10.23V128.17h-8.79V23.88h11V-92.81h-3.34V-231.57H442V-262H240.56v30.41h-9.1V-90.63H134.65V-232.14h-9.09v-30.41Z"/></g><g id="Puzzle_Building_Base" data-name="Puzzle Building Base"><g id="Illustrated_Cathedral" data-name="Illustrated Cathedral"><path class="cls-2" d="M24.18,33.22c-14.77-.11-41.26,22.3-49.83,37.19a39.8,39.8,0,0,0-5.1,19.75v47.41H79.11V91.1A40,40,0,0,0,73.6,70.66C64.81,56,38.89,33.34,24.18,33.22Z"/><path class="cls-2" d="M10.19-66.54c-.85.64-13.4,10.47-14,22.72V10.39H24.15v-54.9C23.15-56.44,11-65.91,10.19-66.54Z"/><path class="cls-2" d="M3.62-46.73c2,0,3.82,1.55,4.61,4a10.61,10.61,0,0,1,.49,3c0,.13,0,.25,0,.38V10.39H-1.48V-39.75a10.62,10.62,0,0,1,.5-3c.79-2.46,2.62-4,4.6-4Z"/><path class="cls-2" d="M16.75-46.73c2,0,3.81,1.55,4.6,4a10.62,10.62,0,0,1,.5,3V10.39H11.64V-39.37c0-.13,0-.25,0-.38a10.27,10.27,0,0,1,.5-3c.78-2.46,2.62-4,4.6-4Z"/><path class="cls-2" d="M39.48-66.54c-.84.64-13.39,10.47-14,22.72V10.39H53.45v-54.9C52.44-56.44,40.31-65.91,39.48-66.54Z"/><path class="cls-2" d="M32.92-46.73c2,0,3.81,1.55,4.6,4a10.62,10.62,0,0,1,.5,3V10.39H27.81V-39.37c0-.13,0-.25,0-.38a10.27,10.27,0,0,1,.5-3c.79-2.46,2.62-4,4.6-4Z"/><path class="cls-2" d="M46-46.73c2,0,3.82,1.55,4.61,4a10.61,10.61,0,0,1,.49,3c0,.13,0,.25,0,.38V10.39H40.94V-39.75a10.62,10.62,0,0,1,.5-3c.79-2.46,2.62-4,4.6-4Z"/><path class="cls-2" d="M68.78-66.54c-.85.64-13.39,10.47-14,22.72V10.39H82.74v-54.9C81.74-56.44,69.61-65.91,68.78-66.54Z"/><path class="cls-2" d="M62.21-46.73c2,0,3.82,1.55,4.61,4a10.61,10.61,0,0,1,.49,3c0,.13,0,.25,0,.38V10.39H57.11V-39.75a10.62,10.62,0,0,1,.5-3c.79-2.46,2.62-4,4.6-4Z"/><path class="cls-2" d="M75.34-46.73c2,0,3.81,1.55,4.6,4a10.62,10.62,0,0,1,.5,3V10.39H70.23V-39.37c0-.13,0-.25,0-.38a10.27,10.27,0,0,1,.5-3c.79-2.46,2.62-4,4.6-4Z"/><path class="cls-2" d="M76.21,37.07h0v0a4.21,4.21,0,0,0,4.08-4.2h0a4.21,4.21,0,0,0-4.08-4.21h0A4.22,4.22,0,0,0,72,24.47h0a4.22,4.22,0,0,0-4.22,4.14h0a4.22,4.22,0,0,0-4.21,4.22h0A4.22,4.22,0,0,0,67.78,37h0v0h0A4.22,4.22,0,0,0,72,41.22h0A4.22,4.22,0,0,0,76.21,37.07Z"/><rect class="cls-2" x="90.61" y="-66.08" width="27.85" height="76.29"/><circle class="cls-2" cx="24.01" cy="64.71" r="16.95"/><path class="cls-2" d="M23.83,64.71,24,56.47h0a4.21,4.21,0,0,0-4.21-4.15h0a4.22,4.22,0,0,0-4.21,4.15h0a4.2,4.2,0,0,0-4.21,4.21h0a4.21,4.21,0,0,0,4.21,4.21v0h0Z"/><path class="cls-2" d="M24.19,65.4,24,73.65h0a4.22,4.22,0,0,0,4.21,4.14h0a4.2,4.2,0,0,0,4.21-4.14h0a4.21,4.21,0,0,0,4.21-4.21h0a4.21,4.21,0,0,0-4.21-4.22v0h0Z"/><path class="cls-2" d="M24.35,64.53l8.24.16v0a4.22,4.22,0,0,0,4.14-4.21h0a4.22,4.22,0,0,0-4.14-4.22h0A4.22,4.22,0,0,0,28.38,52h0a4.22,4.22,0,0,0-4.21,4.21h0Z"/><path class="cls-2" d="M23.66,64.89l-8.24-.16v0A4.2,4.2,0,0,0,11.27,69h0a4.22,4.22,0,0,0,4.15,4.21h0a4.21,4.21,0,0,0,4.21,4.21h0a4.22,4.22,0,0,0,4.21-4.21h0Z"/><circle class="cls-2" cx="24.01" cy="64.71" r="2.42"/><path class="cls-2" d="M.31,78.08c-.85.76-13.39,5.18-14,19.54V137H14.27V96.81C13.27,82.83,1.14,78.83.31,78.08Z"/><path class="cls-2" d="M47.54,78.08c-.85.76-13.4,5.18-14,19.54V137H61.5V96.81C60.5,82.83,48.37,78.83,47.54,78.08Z"/></g><g id="GRID"><rect class="cls-3" x="-91.49" y="-261.96" width="549.5" height="612.5"/><line class="cls-3" x1="-91.49" y1="0.54" x2="458.01" y2="0.54"/><line class="cls-3" x1="-91.49" y1="88.04" x2="458.01" y2="88.04"/><line class="cls-3" x1="91.67" y1="350.54" x2="91.67" y2="-261.96"/><line class="cls-3" x1="0.09" y1="350.54" x2="0.09" y2="-261.96"/></g><polygon id="Building_Outline-2" data-name="Building Outline" class="cls-4" points="443.9 128.61 443.9 24.31 454.9 24.31 454.9 -92.38 451.56 -92.38 451.56 -231.13 442.47 -231.13 442.47 -261.55 241.07 -261.55 241.07 -231.13 231.98 -231.13 231.98 -90.2 220.61 -90.2 141.42 -90.2 135.17 -90.2 135.17 -231.7 126.08 -231.7 126.08 -262.12 -75.32 -262.12 -75.32 -231.7 -84.41 -231.7 -84.41 -99.2 -88.39 -99.2 -88.39 24.31 -78.16 24.31 -78.16 128.61 -88.39 128.61 -88.39 216.54 -78.16 216.54 -78.16 350.55 98 350.55 100.28 350.55 264.03 350.55 267.44 350.55 442.47 350.55 442.47 216.54 452.7 216.54 452.7 128.61 443.9 128.61"/></g></g></svg>