<svg xmlns="http://www.w3.org/2000/svg" viewBox="0 0 91.6 88"><defs><style>.cls-1{fill:#fff;}.cls-2{stroke:#5e5e5e;}.cls-2,.cls-3,.cls-4{stroke-miterlimit:10;}.cls-3,.cls-4{fill:none;stroke:#fff;}.cls-3{stroke-width:0.5px;}</style></defs><g id="Layer_1" data-name="Layer 1"><g id="Building_Outline" data-name="Building Outline"><polygon points="-78.18 261.62 -78.18 127.61 -88.41 127.61 -88.41 40.67 -78.18 40.67 -78.18 -64.62 -88.41 -64.62 -88.41 -187.13 -84.43 -187.13 -84.43 -319.64 -75.33 -319.64 -75.33 -350.05 125.06 -350.05 125.06 -319.64 134.15 -319.64 134.15 -178.13 231.96 -178.13 231.96 -319.07 241.06 -319.07 241.06 -349.48 441.45 -349.48 441.45 -319.07 450.55 -319.07 450.55 -180.31 453.89 -180.31 453.89 -64.62 442.89 -64.62 442.89 40.67 451.68 40.67 451.68 127.61 441.45 127.61 441.45 261.62 -78.18 261.62"/><path class="cls-1" d="M124.56-349.55v30.41h9.09v141.51h98.81V-318.57h9.1V-349H441v30.41h9.1v138.76h3.34V-65.12h-11V41.17h8.79v85.94H441v134H-77.68v-134H-87.91V41.17h10.23V-65.12H-87.91V-186.63h4V-319.14h9.09v-30.41h199.4m1-1H-75.84v30.41h-9.09v132.51h-4V-64.12h10.23V40.17H-88.91v87.94h10.23v134H442v-134h10.23V40.17h-8.79V-64.12h11V-180.81h-3.34V-319.57H442V-350H240.56v30.41h-9.1v140.94H134.65V-320.14h-9.09v-30.41Z"/></g><g id="Puzzle_Building_Base" data-name="Puzzle Building Base"><g id="Illustrated_Cathedral" data-name="Illustrated Cathedral"><path class="cls-2" d="M24.18-54.78c-14.77-.11-41.26,22.3-49.83,37.19a39.8,39.8,0,0,0-5.1,19.75V49.57H79.11V3.1A40,40,0,0,0,73.6-17.34C64.81-32,38.89-54.66,24.18-54.78Z"/><rect class="cls-2" x="-30.49" y="9.11" width="108.99" height="39.75"/><path class="cls-2" d="M.31-9.92c-.85.76-13.39,5.18-14,19.54V49H14.27V8.81C13.27-5.17,1.14-9.17.31-9.92Z"/><path class="cls-2" d="M47.54-9.92c-.85.76-13.4,5.18-14,19.54V49H61.5V8.81C60.5-5.17,48.37-9.17,47.54-9.92Z"/><path class="cls-2" d="M1,114.16H-14.79V76.78a5.2,5.2,0,0,1,5.2-5.21h5.34A5.2,5.2,0,0,1,1,76.78Z"/><path class="cls-2" d="M17.49,114.16H1.75V76.78A5.2,5.2,0,0,1,7,71.57h5.34a5.2,5.2,0,0,1,5.2,5.21Z"/><path class="cls-2" d="M34,114.16H18.29V76.78a5.2,5.2,0,0,1,5.2-5.21h5.34A5.2,5.2,0,0,1,34,76.78Z"/><path class="cls-2" d="M50.57,114.16H34.82V76.78A5.2,5.2,0,0,1,40,71.57h5.34a5.21,5.21,0,0,1,5.21,5.21Z"/><path class="cls-2" d="M67.1,114.16H51.36V76.78a5.2,5.2,0,0,1,5.2-5.21H61.9a5.2,5.2,0,0,1,5.2,5.21Z"/><path class="cls-2" d="M83.64,114.16H67.9V76.78a5.2,5.2,0,0,1,5.2-5.21h5.34a5.2,5.2,0,0,1,5.2,5.21Z"/><path class="cls-2" d="M100.18,114.16H84.43V76.78a5.2,5.2,0,0,1,5.2-5.21H95a5.21,5.21,0,0,1,5.21,5.21Z"/><rect class="cls-2" x="-69.24" y="51.79" width="505" height="12.11"/><rect class="cls-2" x="-77.72" y="46.95" width="521.95" height="9.69"/></g><g id="GRID"><rect class="cls-3" x="-91.49" y="-349.96" width="549.5" height="612.5"/><line class="cls-3" x1="-91.49" y1="0.04" x2="458.01" y2="0.04"/><line class="cls-3" x1="-91.49" y1="87.54" x2="458.01" y2="87.54"/><line class="cls-3" x1="91.67" y1="262.54" x2="91.67" y2="-349.96"/><line class="cls-3" x1="0.09" y1="262.54" x2="0.09" y2="-349.96"/></g><polygon id="Building_Outline-2" data-name="Building Outline" class="cls-4" points="443.9 40.61 443.9 -63.69 454.9 -63.69 454.9 -180.38 451.56 -180.38 451.56 -319.13 442.47 -319.13 442.47 -349.55 241.07 -349.55 241.07 -319.13 231.98 -319.13 231.98 -178.2 220.61 -178.2 141.42 -178.2 135.17 -178.2 135.17 -319.7 126.08 -319.7 126.08 -350.12 -75.32 -350.12 -75.32 -319.7 -84.41 -319.7 -84.41 -187.2 -88.39 -187.2 -88.39 -63.69 -78.16 -63.69 -78.16 40.61 -88.39 40.61 -88.39 128.54 -78.16 128.54 -78.16 262.55 98 262.55 100.28 262.55 264.03 262.55 267.44 262.55 442.47 262.55 442.47 128.54 452.7 128.54 452.7 40.61 443.9 40.61"/></g></g></svg>