<svg xmlns="http://www.w3.org/2000/svg" viewBox="0 0 91.6 88"><defs><style>.cls-1{fill:#fff;}.cls-2{stroke:#5e5e5e;}.cls-2,.cls-3,.cls-4{stroke-miterlimit:10;}.cls-3,.cls-4{fill:none;stroke:#fff;}.cls-3{stroke-width:0.5px;}</style></defs><g id="Layer_1" data-name="Layer 1"><g id="Building_Outline" data-name="Building Outline"><polygon points="-261.38 85.62 -261.38 -48.4 -271.61 -48.4 -271.61 -135.33 -261.38 -135.33 -261.38 -240.62 -271.61 -240.62 -271.61 -363.13 -267.63 -363.13 -267.63 -495.64 -258.54 -495.64 -258.54 -526.05 -58.14 -526.05 -58.14 -495.64 -49.05 -495.64 -49.05 -354.13 48.76 -354.13 48.76 -495.07 57.85 -495.07 57.85 -525.48 258.25 -525.48 258.25 -495.07 267.34 -495.07 267.34 -356.31 270.69 -356.31 270.69 -240.62 259.69 -240.62 259.69 -135.33 268.48 -135.33 268.48 -48.4 258.25 -48.4 258.25 85.62 -261.38 85.62"/><path class="cls-1" d="M-58.64-525.55v30.41h9.09v141.51H49.26V-494.57h9.09V-525h199.4v30.41h9.09v138.76h3.35v114.69h-11v106.29H268v85.94H257.75v134H-260.88v-134h-10.23v-85.94h10.23V-241.12h-10.23V-362.63h4V-495.14H-258v-30.41h199.4m1-1H-259v30.41h-9.09v132.51h-4v123.51h10.23v104.29h-10.23v87.94h10.23v134H258.75v-134H269v-87.94h-8.79V-240.12h11V-356.81h-3.35V-495.57h-9.09V-526H57.35v30.41H48.26v140.94H-48.55V-496.14h-9.09v-30.41Z"/></g><g id="Puzzle_Building_Base" data-name="Puzzle Building Base"><g id="Illustrated_Cathedral" data-name="Illustrated Cathedral"><rect class="cls-2" x="66.05" y="19.91" width="27.85" height="56.92"/><rect class="cls-2" x="66.05" y="-15.21" width="27.85" height="38.75"/><path class="cls-2" d="M77.31-7.95h5.34a5.2,5.2,0,0,1,5.2,5.2v19a0,0,0,0,1,0,0H72.11a0,0,0,0,1,0,0v-19a5.2,5.2,0,0,1,5.2-5.2Z"/><path class="cls-2" d="M-55.2,77.11V16.25C-55.2-31.3-.58-57.89-.58-57.89S54.69-37.27,54.69,14.83V77.11Z"/><path class="cls-2" d="M-45.51,73.48V18.67C-45.51-23.46-.58-47.4-.58-47.4S45-28.88,45,17.25V73.48Z"/><path class="cls-2" d="M-35.82,69.85V22.31c0-46,36.42-59,36.42-59s34.72,17.4,34.72,57.58v49Z"/><path class="cls-2" d="M.49-25.68s-26.62,8.33-26.62,48v43.9H25.63V20.89C25.63-13.71.49-25.68.49-25.68Z"/></g><g id="GRID"><rect class="cls-3" x="-274.7" y="-525.96" width="549.5" height="612.5"/><line class="cls-3" x1="91.64" y1="86.54" x2="91.64" y2="-525.96"/><line class="cls-3" x1="0.05" y1="86.54" x2="0.05" y2="-525.96"/></g><polygon id="Building_Outline-2" data-name="Building Outline" class="cls-4" points="260.7 -135.39 260.7 -239.69 271.7 -239.69 271.7 -356.38 268.36 -356.38 268.36 -495.13 259.26 -495.13 259.26 -525.55 57.87 -525.55 57.87 -495.13 48.78 -495.13 48.78 -354.2 37.41 -354.2 -41.78 -354.2 -48.03 -354.2 -48.03 -495.7 -57.13 -495.7 -57.13 -526.12 -258.52 -526.12 -258.52 -495.7 -267.62 -495.7 -267.62 -363.2 -271.59 -363.2 -271.59 -239.69 -261.37 -239.69 -261.37 -135.39 -271.59 -135.39 -271.59 -47.46 -261.37 -47.46 -261.37 86.55 -85.2 86.55 -82.93 86.55 80.83 86.55 84.24 86.55 259.26 86.55 259.26 -47.46 269.49 -47.46 269.49 -135.39 260.7 -135.39"/></g></g></svg>