<svg xmlns="http://www.w3.org/2000/svg" viewBox="0 0 91.6 88"><defs><style>.cls-1{fill:#fff;}.cls-2{stroke:#5e5e5e;}.cls-2,.cls-3,.cls-4{stroke-miterlimit:10;}.cls-3,.cls-4{fill:none;stroke:#fff;}.cls-3{stroke-width:0.5px;}</style></defs><g id="Layer_1" data-name="Layer 1"><g id="Building_Outline" data-name="Building Outline"><polygon points="13.42 349.62 13.42 215.6 3.19 215.6 3.19 128.67 13.42 128.67 13.42 23.38 3.19 23.38 3.19 -99.13 7.17 -99.13 7.17 -231.64 16.27 -231.64 16.27 -262.05 216.66 -262.05 216.66 -231.64 225.75 -231.64 225.75 -90.13 323.56 -90.13 323.56 -231.07 332.66 -231.07 332.66 -261.48 533.05 -261.48 533.05 -231.07 542.15 -231.07 542.15 -92.31 545.49 -92.31 545.49 23.38 534.49 23.38 534.49 128.67 543.28 128.67 543.28 215.6 533.05 215.6 533.05 349.62 13.42 349.62"/><path class="cls-1" d="M216.16-261.55v30.41h9.09V-89.63h98.82V-230.57h9.09V-261H532.55v30.41h9.1V-91.81H545V22.88H534V129.17h8.79v85.94H532.55v134H13.92v-134H3.7V129.17H13.92V22.88H3.7V-98.63h4V-231.14h9.1v-30.41H216.16m1-1H15.77v30.41H6.67V-99.63h-4V23.88H12.92V128.17H2.7v87.94H12.92v134H533.55v-134h10.23V128.17H535V23.88h11V-92.81h-3.34V-231.57h-9.1V-262H332.16v30.41h-9.09V-90.63H226.25V-232.14h-9.09v-30.41Z"/></g><g id="Puzzle_Building_Base" data-name="Puzzle Building Base"><g id="Illustrated_Cathedral" data-name="Illustrated Cathedral"><path class="cls-2" d="M115.78,33.22C101,33.11,74.52,55.52,66,70.41a39.7,39.7,0,0,0-5.11,19.75v47.41H170.71V91.1a40,40,0,0,0-5.51-20.44C156.41,56,130.49,33.34,115.78,33.22Z"/><path class="cls-2" d="M72.49-66.54c-.84.64-13.39,10.47-14,22.72V10.39H86.46v-54.9C85.45-56.44,73.32-65.91,72.49-66.54Z"/><path class="cls-2" d="M65.93-46.73c2,0,3.81,1.55,4.6,4a10.62,10.62,0,0,1,.5,3V10.39H60.82V-39.37c0-.13,0-.25,0-.38a10.27,10.27,0,0,1,.5-3c.79-2.46,2.62-4,4.6-4Z"/><path class="cls-2" d="M79.05-46.73c2,0,3.82,1.55,4.61,4a10.61,10.61,0,0,1,.49,3c0,.13,0,.25,0,.38V10.39H74V-39.75a10.62,10.62,0,0,1,.5-3c.79-2.46,2.62-4,4.6-4Z"/><path class="cls-2" d="M101.79-66.54c-.85.64-13.39,10.47-14,22.72V10.39h27.93v-54.9C114.75-56.44,102.62-65.91,101.79-66.54Z"/><path class="cls-2" d="M95.22-46.73c2,0,3.82,1.55,4.61,4a10.61,10.61,0,0,1,.49,3c0,.13,0,.25,0,.38V10.39H90.12V-39.75a10.62,10.62,0,0,1,.5-3c.79-2.46,2.62-4,4.6-4Z"/><path class="cls-2" d="M72.14,37.07h0v0a4.2,4.2,0,0,0,4.08-4.2h0a4.2,4.2,0,0,0-4.08-4.21h0a4.22,4.22,0,0,0-4.21-4.14h0a4.22,4.22,0,0,0-4.22,4.14h0a4.22,4.22,0,0,0-4.21,4.22h0A4.22,4.22,0,0,0,63.71,37h0v0h0a4.22,4.22,0,0,0,4.22,4.15h0A4.22,4.22,0,0,0,72.14,37.07Z"/><rect class="cls-2" x="22.36" y="-66.08" width="27.85" height="76.29"/><path class="cls-2" d="M29.84-47.28c2,0,3.81,1.55,4.6,4a10.68,10.68,0,0,1,.5,3V9.84H24.73V-39.92c0-.12,0-.25,0-.38a10.67,10.67,0,0,1,.49-3c.79-2.46,2.62-4,4.61-4Z"/><path class="cls-2" d="M43-47.28c2,0,3.81,1.55,4.6,4a10.32,10.32,0,0,1,.5,3c0,.13,0,.26,0,.38V9.84H37.86V-40.3a10.68,10.68,0,0,1,.5-3c.79-2.46,2.62-4,4.6-4Z"/><path class="cls-2" d="M91.91,78.08c-.85.76-13.39,5.18-14,19.54V137h27.93V96.81C104.87,82.83,92.74,78.83,91.91,78.08Z"/></g><g id="GRID"><rect class="cls-3" x="0.11" y="-261.96" width="549.5" height="612.5"/><line class="cls-3" x1="0.11" y1="0.54" x2="549.61" y2="0.54"/><line class="cls-3" x1="0.11" y1="88.04" x2="549.61" y2="88.04"/><line class="cls-3" x1="91.69" y1="350.54" x2="91.69" y2="-261.96"/></g><polygon id="Building_Outline-2" data-name="Building Outline" class="cls-4" points="535.5 128.61 535.5 24.31 546.5 24.31 546.5 -92.38 543.16 -92.38 543.16 -231.13 534.07 -231.13 534.07 -261.55 332.67 -261.55 332.67 -231.13 323.58 -231.13 323.58 -90.2 312.21 -90.2 233.02 -90.2 226.77 -90.2 226.77 -231.7 217.68 -231.7 217.68 -262.12 16.28 -262.12 16.28 -231.7 7.19 -231.7 7.19 -99.2 3.21 -99.2 3.21 24.31 13.44 24.31 13.44 128.61 3.21 128.61 3.21 216.54 13.44 216.54 13.44 350.55 189.6 350.55 191.88 350.55 355.63 350.55 359.04 350.55 534.07 350.55 534.07 216.54 544.3 216.54 544.3 128.61 535.5 128.61"/></g></g></svg>