<svg xmlns="http://www.w3.org/2000/svg" viewBox="0 0 91.6 88"><defs><style>.cls-1{fill:#fff;}.cls-2{stroke:#5e5e5e;}.cls-2,.cls-3,.cls-4{stroke-miterlimit:10;}.cls-3,.cls-4{fill:none;stroke:#fff;}.cls-3{stroke-width:0.5px;}</style></defs><g id="Layer_1" data-name="Layer 1"><g id="Building_Outline" data-name="Building Outline"><polygon points="-261.38 525.62 -261.38 391.61 -271.61 391.61 -271.61 304.67 -261.38 304.67 -261.38 199.38 -271.61 199.38 -271.61 76.87 -267.63 76.87 -267.63 -55.64 -258.54 -55.64 -258.54 -86.05 -58.14 -86.05 -58.14 -55.64 -49.05 -55.64 -49.05 85.87 48.76 85.87 48.76 -55.07 57.85 -55.07 57.85 -85.48 258.25 -85.48 258.25 -55.07 267.34 -55.07 267.34 83.69 270.69 83.69 270.69 199.38 259.69 199.38 259.69 304.67 268.48 304.67 268.48 391.61 258.25 391.61 258.25 525.62 -261.38 525.62"/><path class="cls-1" d="M-58.64-85.55v30.41h9.09V86.37H49.26V-54.57h9.09V-85h199.4v30.41h9.09V84.19h3.35V198.88h-11V305.17H268v85.94H257.75v134H-260.88v-134h-10.23V305.17h10.23V198.88h-10.23V77.37h4V-55.14H-258V-85.55h199.4m1-1H-259v30.41h-9.09V76.37h-4V199.88h10.23V304.17h-10.23v87.94h10.23v134H258.75v-134H269V304.17h-8.79V199.88h11V83.19h-3.35V-55.57h-9.09V-86H57.35v30.41H48.26V85.37H-48.55V-56.14h-9.09V-86.55Z"/></g><g id="Puzzle_Building_Base" data-name="Puzzle Building Base"><g id="Illustrated_Cathedral" data-name="Illustrated Cathedral"><path class="cls-2" d="M80.94-39h5.34a5.2,5.2,0,0,1,5.2,5.2V93a0,0,0,0,1,0,0H75.74a0,0,0,0,1,0,0V-33.83A5.2,5.2,0,0,1,80.94-39Z"/></g><g id="GRID"><rect class="cls-3" x="-274.7" y="-85.96" width="549.5" height="612.5"/><line class="cls-3" x1="-274.7" y1="1.54" x2="274.8" y2="1.54"/><line class="cls-3" x1="91.64" y1="526.54" x2="91.64" y2="-85.96"/><line class="cls-3" x1="0.05" y1="526.54" x2="0.05" y2="-85.96"/></g><polygon id="Building_Outline-2" data-name="Building Outline" class="cls-4" points="260.7 304.61 260.7 200.31 271.7 200.31 271.7 83.62 268.36 83.62 268.36 -55.13 259.26 -55.13 259.26 -85.55 57.87 -85.55 57.87 -55.13 48.78 -55.13 48.78 85.8 37.41 85.8 -41.78 85.8 -48.03 85.8 -48.03 -55.7 -57.13 -55.7 -57.13 -86.12 -258.52 -86.12 -258.52 -55.7 -267.62 -55.7 -267.62 76.8 -271.59 76.8 -271.59 200.31 -261.37 200.31 -261.37 304.61 -271.59 304.61 -271.59 392.54 -261.37 392.54 -261.37 526.55 -85.2 526.55 -82.93 526.55 80.83 526.55 84.24 526.55 259.26 526.55 259.26 392.54 269.49 392.54 269.49 304.61 260.7 304.61"/></g></g></svg>