<svg xmlns="http://www.w3.org/2000/svg" viewBox="0 0 91.6 88"><defs><style>.cls-1{fill:#fff;}.cls-2{stroke:#5e5e5e;}.cls-2,.cls-3,.cls-4{stroke-miterlimit:10;}.cls-3,.cls-4{fill:none;stroke:#fff;}.cls-3{stroke-width:0.5px;}</style></defs><g id="Layer_1" data-name="Layer 1"><g id="Building_Outline" data-name="Building Outline"><polygon points="-169.78 525.62 -169.78 391.61 -180.01 391.61 -180.01 304.67 -169.78 304.67 -169.78 199.38 -180.01 199.38 -180.01 76.87 -176.03 76.87 -176.03 -55.64 -166.94 -55.64 -166.94 -86.05 33.46 -86.05 33.46 -55.64 42.55 -55.64 42.55 85.87 140.36 85.87 140.36 -55.07 149.46 -55.07 149.46 -85.48 349.85 -85.48 349.85 -55.07 358.94 -55.07 358.94 83.69 362.29 83.69 362.29 199.38 351.29 199.38 351.29 304.67 360.08 304.67 360.08 391.61 349.85 391.61 349.85 525.62 -169.78 525.62"/><path class="cls-1" d="M33-85.55v30.41h9.09V86.37h98.81V-54.57H150V-85H349.35v30.41h9.09V84.19h3.35V198.88h-11V305.17h8.79v85.94H349.35v134H-169.28v-134h-10.23V305.17h10.23V198.88h-10.23V77.37h4V-55.14h9.09V-85.55H33m1-1h-201.4v30.41h-9.09V76.37h-4V199.88h10.23V304.17h-10.23v87.94h10.23v134H350.35v-134h10.23V304.17h-8.79V199.88h11V83.19h-3.35V-55.57h-9.09V-86H149v30.41h-9.1V85.37H43.05V-56.14H34V-86.55Z"/></g><g id="Puzzle_Building_Base" data-name="Puzzle Building Base"><g id="Illustrated_Cathedral" data-name="Illustrated Cathedral"><path class="cls-2" d="M3-39H8.34a5.2,5.2,0,0,1,5.2,5.2V93a0,0,0,0,1,0,0H-2.2a0,0,0,0,1,0,0V-33.83A5.2,5.2,0,0,1,3-39Z"/></g><g id="GRID"><rect class="cls-3" x="-183.1" y="-85.96" width="549.5" height="612.5"/><line class="cls-3" x1="-183.1" y1="1.54" x2="366.4" y2="1.54"/><line class="cls-3" x1="91.65" y1="526.54" x2="91.65" y2="-85.96"/><line class="cls-3" x1="0.07" y1="526.54" x2="0.07" y2="-85.96"/></g><polygon id="Building_Outline-2" data-name="Building Outline" class="cls-4" points="352.3 304.61 352.3 200.31 363.3 200.31 363.3 83.62 359.96 83.62 359.96 -55.13 350.87 -55.13 350.87 -85.55 149.47 -85.55 149.47 -55.13 140.38 -55.13 140.38 85.8 129.01 85.8 49.82 85.8 43.57 85.8 43.57 -55.7 34.47 -55.7 34.47 -86.12 -166.92 -86.12 -166.92 -55.7 -176.01 -55.7 -176.01 76.8 -179.99 76.8 -179.99 200.31 -169.76 200.31 -169.76 304.61 -179.99 304.61 -179.99 392.54 -169.76 392.54 -169.76 526.55 6.4 526.55 8.67 526.55 172.43 526.55 175.84 526.55 350.87 526.55 350.87 392.54 361.1 392.54 361.1 304.61 352.3 304.61"/></g></g></svg>