<svg xmlns="http://www.w3.org/2000/svg" viewBox="0 0 91.6 88"><defs><style>.cls-1{fill:#fff;}.cls-2{stroke:#5e5e5e;}.cls-2,.cls-3,.cls-4{stroke-miterlimit:10;}.cls-3,.cls-4{fill:none;stroke:#fff;}.cls-3{stroke-width:0.5px;}</style></defs><g id="Layer_1" data-name="Layer 1"><g id="Building_Outline" data-name="Building Outline"><polygon points="-78.18 437.62 -78.18 303.61 -88.41 303.61 -88.41 216.67 -78.18 216.67 -78.18 111.38 -88.41 111.38 -88.41 -11.13 -84.43 -11.13 -84.43 -143.64 -75.33 -143.64 -75.33 -174.05 125.06 -174.05 125.06 -143.64 134.15 -143.64 134.15 -2.13 231.96 -2.13 231.96 -143.07 241.06 -143.07 241.06 -173.48 441.45 -173.48 441.45 -143.07 450.55 -143.07 450.55 -4.31 453.89 -4.31 453.89 111.38 442.89 111.38 442.89 216.67 451.68 216.67 451.68 303.61 441.45 303.61 441.45 437.62 -78.18 437.62"/><path class="cls-1" d="M124.56-173.55v30.41h9.09V-1.63h98.81V-142.57h9.1V-173H441v30.41h9.1V-3.81h3.34V110.88h-11V217.17h8.79v85.94H441v134H-77.68v-134H-87.91V217.17h10.23V110.88H-87.91V-10.63h4V-143.14h9.09v-30.41h199.4m1-1H-75.84v30.41h-9.09V-11.63h-4V111.88h10.23V216.17H-88.91v87.94h10.23v134H442v-134h10.23V216.17h-8.79V111.88h11V-4.81h-3.34V-143.57H442V-174H240.56v30.41h-9.1V-2.63H134.65V-144.14h-9.09v-30.41Z"/></g><g id="Puzzle_Building_Base" data-name="Puzzle Building Base"><g id="Illustrated_Cathedral" data-name="Illustrated Cathedral"><path class="cls-2" d="M-7-131.82c9.93,0,19.11,7.27,23.06,18.81a46.49,46.49,0,0,1,2.49,14q0,.9,0,1.8V5H-32.58V-97.25c0-.6,0-1.2,0-1.8a47.12,47.12,0,0,1,2.49-14c4-11.54,13.13-18.81,23.07-18.81Z"/><path class="cls-2" d="M-7.31-114.31c-.92.71-14.68,11.48-15.31,24.91V5.05H8V-90.16C6.9-103.24-6.4-113.62-7.31-114.31Z"/><path class="cls-2" d="M57-131.82c9.93,0,19.1,7.27,23.06,18.81A46.49,46.49,0,0,1,82.5-99q0,.9,0,1.8V5H31.37V-97.25c0-.6,0-1.2,0-1.8a47.12,47.12,0,0,1,2.49-14c4-11.54,13.13-18.81,23.07-18.81Z"/><path class="cls-2" d="M56.64-114.31c-.92.71-14.68,11.48-15.31,24.91V5.05H72V-90.16C70.85-103.24,57.55-113.62,56.64-114.31Z"/><path class="cls-2" d="M10.19,21.46c-.85.64-13.4,10.47-14,22.72V98.39H24.15V43.49C23.15,31.56,11,22.09,10.19,21.46Z"/><path class="cls-2" d="M3.62,41.27c2,0,3.82,1.55,4.61,4a10.61,10.61,0,0,1,.49,3c0,.13,0,.25,0,.38V98.39H-1.48V48.25a10.62,10.62,0,0,1,.5-3c.79-2.46,2.62-4,4.6-4Z"/><path class="cls-2" d="M16.75,41.27c2,0,3.81,1.55,4.6,4a10.62,10.62,0,0,1,.5,3V98.39H11.64V48.63c0-.13,0-.25,0-.38a10.27,10.27,0,0,1,.5-3c.78-2.46,2.62-4,4.6-4Z"/><path class="cls-2" d="M39.48,21.46c-.84.64-13.39,10.47-14,22.72V98.39H53.45V43.49C52.44,31.56,40.31,22.09,39.48,21.46Z"/><path class="cls-2" d="M32.92,41.27c2,0,3.81,1.55,4.6,4a10.62,10.62,0,0,1,.5,3V98.39H27.81V48.63c0-.13,0-.25,0-.38a10.27,10.27,0,0,1,.5-3c.79-2.46,2.62-4,4.6-4Z"/><path class="cls-2" d="M46,41.27c2,0,3.82,1.55,4.61,4a10.61,10.61,0,0,1,.49,3c0,.13,0,.25,0,.38V98.39H40.94V48.25a10.62,10.62,0,0,1,.5-3c.79-2.46,2.62-4,4.6-4Z"/><path class="cls-2" d="M68.78,21.46c-.85.64-13.39,10.47-14,22.72V98.39H82.74V43.49C81.74,31.56,69.61,22.09,68.78,21.46Z"/><path class="cls-2" d="M62.21,41.27c2,0,3.82,1.55,4.61,4a10.61,10.61,0,0,1,.49,3c0,.13,0,.25,0,.38V98.39H57.11V48.25a10.62,10.62,0,0,1,.5-3c.79-2.46,2.62-4,4.6-4Z"/><path class="cls-2" d="M75.34,41.27c2,0,3.81,1.55,4.6,4a10.62,10.62,0,0,1,.5,3V98.39H70.23V48.63c0-.13,0-.25,0-.38a10.27,10.27,0,0,1,.5-3c.79-2.46,2.62-4,4.6-4Z"/><rect class="cls-2" x="90.61" y="21.92" width="27.85" height="76.29"/><path class="cls-2" d="M94.6-127h5.34a5.2,5.2,0,0,1,5.2,5.2V5a0,0,0,0,1,0,0H89.4a0,0,0,0,1,0,0v-126.8A5.2,5.2,0,0,1,94.6-127Z"/><rect class="cls-2" x="-69.24" y="9.81" width="505" height="12.11"/><rect class="cls-2" x="-77.72" y="4.97" width="521.95" height="9.69"/></g><g id="GRID"><rect class="cls-3" x="-91.49" y="-173.96" width="549.5" height="612.5"/><line class="cls-3" x1="-91.49" y1="1.04" x2="458.01" y2="1.04"/><line class="cls-3" x1="91.67" y1="438.54" x2="91.67" y2="-173.96"/><line class="cls-3" x1="0.09" y1="438.54" x2="0.09" y2="-173.96"/></g><polygon id="Building_Outline-2" data-name="Building Outline" class="cls-4" points="443.9 216.61 443.9 112.31 454.9 112.31 454.9 -4.38 451.56 -4.38 451.56 -143.13 442.47 -143.13 442.47 -173.55 241.07 -173.55 241.07 -143.13 231.98 -143.13 231.98 -2.2 220.61 -2.2 141.42 -2.2 135.17 -2.2 135.17 -143.7 126.08 -143.7 126.08 -174.12 -75.32 -174.12 -75.32 -143.7 -84.41 -143.7 -84.41 -11.2 -88.39 -11.2 -88.39 112.31 -78.16 112.31 -78.16 216.61 -88.39 216.61 -88.39 304.54 -78.16 304.54 -78.16 438.55 98 438.55 100.28 438.55 264.03 438.55 267.44 438.55 442.47 438.55 442.47 304.54 452.7 304.54 452.7 216.61 443.9 216.61"/></g></g></svg>