<svg xmlns="http://www.w3.org/2000/svg" viewBox="0 0 91.6 88"><defs><style>.cls-1{fill:#fff;}.cls-2{stroke:#5e5e5e;}.cls-2,.cls-3,.cls-4{stroke-miterlimit:10;}.cls-3,.cls-4{fill:none;stroke:#fff;}.cls-3{stroke-width:0.5px;}</style></defs><g id="Layer_1" data-name="Layer 1"><g id="Building_Outline" data-name="Building Outline"><polygon points="-261.38 349.62 -261.38 215.6 -271.61 215.6 -271.61 128.67 -261.38 128.67 -261.38 23.38 -271.61 23.38 -271.61 -99.13 -267.63 -99.13 -267.63 -231.64 -258.54 -231.64 -258.54 -262.05 -58.14 -262.05 -58.14 -231.64 -49.05 -231.64 -49.05 -90.13 48.76 -90.13 48.76 -231.07 57.85 -231.07 57.85 -261.48 258.25 -261.48 258.25 -231.07 267.34 -231.07 267.34 -92.31 270.69 -92.31 270.69 23.38 259.69 23.38 259.69 128.67 268.48 128.67 268.48 215.6 258.25 215.6 258.25 349.62 -261.38 349.62"/><path class="cls-1" d="M-58.64-261.55v30.41h9.09V-89.63H49.26V-230.57h9.09V-261h199.4v30.41h9.09V-91.81h3.35V22.88h-11V129.17H268v85.94H257.75v134H-260.88v-134h-10.23V129.17h10.23V22.88h-10.23V-98.63h4V-231.14H-258v-30.41h199.4m1-1H-259v30.41h-9.09V-99.63h-4V23.88h10.23V128.17h-10.23v87.94h10.23v134H258.75v-134H269V128.17h-8.79V23.88h11V-92.81h-3.35V-231.57h-9.09V-262H57.35v30.41H48.26V-90.63H-48.55V-232.14h-9.09v-30.41Z"/></g><g id="Puzzle_Building_Base" data-name="Puzzle Building Base"><g id="Illustrated_Cathedral" data-name="Illustrated Cathedral"><path class="cls-2" d="M13.71-66.54c-.84.64-13.39,10.47-14,22.72V10.39H27.68v-54.9C26.67-56.44,14.54-65.91,13.71-66.54Z"/><path class="cls-2" d="M7.15-46.73c2,0,3.81,1.55,4.6,4a10.62,10.62,0,0,1,.5,3V10.39H2V-39.37c0-.13,0-.25,0-.38a10.27,10.27,0,0,1,.5-3c.79-2.46,2.62-4,4.6-4Z"/><path class="cls-2" d="M20.27-46.73c2,0,3.82,1.55,4.61,4a10.61,10.61,0,0,1,.49,3c0,.13,0,.25,0,.38V10.39H15.17V-39.75a10.62,10.62,0,0,1,.5-3c.79-2.46,2.62-4,4.6-4Z"/><path class="cls-2" d="M43-66.54c-.85.64-13.39,10.47-14,22.72V10.39H57v-54.9C56-56.44,43.84-65.91,43-66.54Z"/><path class="cls-2" d="M36.44-46.73c2,0,3.82,1.55,4.61,4a10.61,10.61,0,0,1,.49,3c0,.13,0,.25,0,.38V10.39H31.34V-39.75a10.62,10.62,0,0,1,.5-3c.79-2.46,2.62-4,4.6-4Z"/><path class="cls-2" d="M49.57-46.73c2,0,3.81,1.55,4.6,4a10.62,10.62,0,0,1,.5,3V10.39H44.46V-39.37c0-.13,0-.25,0-.38a10.27,10.27,0,0,1,.5-3c.79-2.46,2.62-4,4.6-4Z"/><path class="cls-2" d="M52.86,37.07h0v0A4.2,4.2,0,0,0,57,32.83h0a4.2,4.2,0,0,0-4.08-4.21h0a4.22,4.22,0,0,0-4.21-4.14h0a4.2,4.2,0,0,0-4.21,4.14h0a4.22,4.22,0,0,0-4.22,4.22h0A4.22,4.22,0,0,0,44.44,37h0v0h0a4.2,4.2,0,0,0,4.21,4.15h0A4.22,4.22,0,0,0,52.86,37.07Z"/><rect class="cls-2" x="63.63" y="-66.08" width="27.85" height="76.29"/><path class="cls-2" d="M71.11-47.28c2,0,3.81,1.55,4.6,4a10.68,10.68,0,0,1,.5,3V9.84H66V-40.3a10.68,10.68,0,0,1,.5-3c.79-2.46,2.62-4,4.6-4Z"/><path class="cls-2" d="M84.23-47.28c2,0,3.82,1.55,4.61,4a10.67,10.67,0,0,1,.49,3c0,.13,0,.26,0,.38V9.84H79.13V-39.92c0-.12,0-.25,0-.38a10.32,10.32,0,0,1,.49-3c.79-2.46,2.62-4,4.6-4Z"/><circle class="cls-2" cx="0.45" cy="76.82" r="49.65"/></g><g id="GRID"><rect class="cls-3" x="-274.7" y="-261.96" width="549.5" height="612.5"/><line class="cls-3" x1="-274.7" y1="0.54" x2="274.8" y2="0.54"/><line class="cls-3" x1="-274.7" y1="88.04" x2="274.8" y2="88.04"/><line class="cls-3" x1="91.64" y1="350.54" x2="91.64" y2="-261.96"/><line class="cls-3" x1="0.05" y1="350.54" x2="0.05" y2="-261.96"/></g><polygon id="Building_Outline-2" data-name="Building Outline" class="cls-4" points="260.7 128.61 260.7 24.31 271.7 24.31 271.7 -92.38 268.36 -92.38 268.36 -231.13 259.26 -231.13 259.26 -261.55 57.87 -261.55 57.87 -231.13 48.78 -231.13 48.78 -90.2 37.41 -90.2 -41.78 -90.2 -48.03 -90.2 -48.03 -231.7 -57.13 -231.7 -57.13 -262.12 -258.52 -262.12 -258.52 -231.7 -267.62 -231.7 -267.62 -99.2 -271.59 -99.2 -271.59 24.31 -261.37 24.31 -261.37 128.61 -271.59 128.61 -271.59 216.54 -261.37 216.54 -261.37 350.55 -85.2 350.55 -82.93 350.55 80.83 350.55 84.24 350.55 259.26 350.55 259.26 216.54 269.49 216.54 269.49 128.61 260.7 128.61"/></g></g></svg>