<svg xmlns="http://www.w3.org/2000/svg" viewBox="0 0 91.6 88"><defs><style>.cls-1{fill:#fff;}.cls-2{stroke:#5e5e5e;}.cls-2,.cls-3,.cls-4{stroke-miterlimit:10;}.cls-3,.cls-4{fill:none;stroke:#fff;}.cls-3{stroke-width:0.5px;}</style></defs><g id="Layer_1" data-name="Layer 1"><g id="Building_Outline" data-name="Building Outline"><polygon points="-444.58 349.62 -444.58 215.6 -454.81 215.6 -454.81 128.67 -444.58 128.67 -444.58 23.38 -454.81 23.38 -454.81 -99.13 -450.83 -99.13 -450.83 -231.64 -441.74 -231.64 -441.74 -262.05 -241.34 -262.05 -241.34 -231.64 -232.25 -231.64 -232.25 -90.13 -134.44 -90.13 -134.44 -231.07 -125.35 -231.07 -125.35 -261.48 75.05 -261.48 75.05 -231.07 84.14 -231.07 84.14 -92.31 87.48 -92.31 87.48 23.38 76.48 23.38 76.48 128.67 85.28 128.67 85.28 215.6 75.05 215.6 75.05 349.62 -444.58 349.62"/><path class="cls-1" d="M-241.84-261.55v30.41h9.09V-89.63h98.81V-230.57h9.09V-261H74.55v30.41h9.09V-91.81H87V22.88H76V129.17h8.8v85.94H74.55v134H-444.08v-134h-10.23V129.17h10.23V22.88h-10.23V-98.63h4V-231.14h9.09v-30.41h199.4m1-1h-201.4v30.41h-9.09V-99.63h-4V23.88h10.23V128.17h-10.23v87.94h10.23v134H75.55v-134H85.78V128.17H77V23.88H88V-92.81H84.64V-231.57H75.55V-262h-201.4v30.41h-9.09V-90.63h-96.81V-232.14h-9.09v-30.41Z"/></g><g id="Puzzle_Building_Base" data-name="Puzzle Building Base"><g id="Illustrated_Cathedral" data-name="Illustrated Cathedral"><path class="cls-2" d="M-10.85-66.54c-.84.64-13.39,10.47-14,22.72V10.39H3.12v-54.9C2.11-56.44-10-65.91-10.85-66.54Z"/><path class="cls-2" d="M-4.29-46.73c2,0,3.82,1.55,4.61,4a10.26,10.26,0,0,1,.49,3c0,.13,0,.25,0,.38V10.39H-9.39V-39.37c0-.13,0-.25,0-.38a10.26,10.26,0,0,1,.49-3c.79-2.46,2.62-4,4.6-4Z"/><path class="cls-2" d="M18.45-66.54c-.85.64-13.39,10.47-14,22.72V10.39H32.41v-54.9C31.41-56.44,19.28-65.91,18.45-66.54Z"/><path class="cls-2" d="M11.89-46.73c2,0,3.81,1.55,4.6,4a10.62,10.62,0,0,1,.5,3V10.39H6.78V-39.37c0-.13,0-.25,0-.38a10.61,10.61,0,0,1,.49-3c.79-2.46,2.62-4,4.61-4Z"/><path class="cls-2" d="M25-46.73c2,0,3.81,1.55,4.6,4a10.62,10.62,0,0,1,.5,3V10.39H19.91V-39.75a10.62,10.62,0,0,1,.5-3c.79-2.46,2.62-4,4.6-4Z"/><rect class="cls-2" x="40.28" y="-66.08" width="27.85" height="76.29"/><path class="cls-2" d="M47.76-47.28c2,0,3.82,1.55,4.6,4a10.32,10.32,0,0,1,.5,3c0,.13,0,.26,0,.38V9.84H42.66V-40.3a10.68,10.68,0,0,1,.5-3c.79-2.46,2.62-4,4.6-4Z"/><path class="cls-2" d="M60.89-47.28c2,0,3.81,1.55,4.6,4a10.68,10.68,0,0,1,.5,3V9.84H55.78V-39.92c0-.12,0-.25,0-.38a10.32,10.32,0,0,1,.5-3c.78-2.46,2.61-4,4.6-4Z"/><path class="cls-2" d="M-23.73,33.22C-38.49,33.11-65,55.52-73.55,70.41a39.7,39.7,0,0,0-5.11,19.75v47.41H31.2V91.1a39.89,39.89,0,0,0-5.51-20.44C16.9,56-9,33.34-23.73,33.22Z"/><path class="cls-2" d="M28.3,37.07h0v0a4.2,4.2,0,0,0,4.08-4.2h0a4.2,4.2,0,0,0-4.08-4.21h0a4.22,4.22,0,0,0-4.21-4.14h0a4.21,4.21,0,0,0-4.21,4.14h0a4.21,4.21,0,0,0-4.21,4.22h0A4.21,4.21,0,0,0,19.88,37h0v0h0a4.21,4.21,0,0,0,4.21,4.15h0A4.22,4.22,0,0,0,28.3,37.07Z"/><path class="cls-2" d="M-.37,78.08c-.84.76-13.39,5.18-14,19.54V137H13.59V96.81C12.59,82.83.46,78.83-.37,78.08Z"/></g><g id="GRID"><rect class="cls-3" x="-457.9" y="-261.96" width="549.5" height="612.5"/><line class="cls-3" x1="-457.9" y1="0.54" x2="91.6" y2="0.54"/><line class="cls-3" x1="-457.9" y1="88.04" x2="91.6" y2="88.04"/><line class="cls-3" x1="0.02" y1="350.54" x2="0.02" y2="-261.96"/></g><polygon id="Building_Outline-2" data-name="Building Outline" class="cls-4" points="77.5 128.61 77.5 24.31 88.5 24.31 88.5 -92.38 85.16 -92.38 85.16 -231.13 76.06 -231.13 76.06 -261.55 -125.33 -261.55 -125.33 -231.13 -134.43 -231.13 -134.43 -90.2 -145.79 -90.2 -224.99 -90.2 -231.24 -90.2 -231.24 -231.7 -240.33 -231.7 -240.33 -262.12 -441.73 -262.12 -441.73 -231.7 -450.82 -231.7 -450.82 -99.2 -454.8 -99.2 -454.8 24.31 -444.57 24.31 -444.57 128.61 -454.8 128.61 -454.8 216.54 -444.57 216.54 -444.57 350.55 -268.4 350.55 -266.13 350.55 -102.37 350.55 -98.97 350.55 76.06 350.55 76.06 216.54 86.29 216.54 86.29 128.61 77.5 128.61"/></g></g></svg>