<svg xmlns="http://www.w3.org/2000/svg" viewBox="0 0 91.6 88"><defs><style>.cls-1{fill:#fff;}.cls-2{stroke:#5e5e5e;}.cls-2,.cls-3,.cls-4{stroke-miterlimit:10;}.cls-3,.cls-4{fill:none;stroke:#fff;}.cls-3{stroke-width:0.5px;}</style></defs><g id="Layer_1" data-name="Layer 1"><g id="Building_Outline" data-name="Building Outline"><polygon points="13.42 85.62 13.42 -48.4 3.19 -48.4 3.19 -135.33 13.42 -135.33 13.42 -240.62 3.19 -240.62 3.19 -363.13 7.17 -363.13 7.17 -495.64 16.27 -495.64 16.27 -526.05 216.66 -526.05 216.66 -495.64 225.75 -495.64 225.75 -354.13 323.56 -354.13 323.56 -495.07 332.66 -495.07 332.66 -525.48 533.05 -525.48 533.05 -495.07 542.15 -495.07 542.15 -356.31 545.49 -356.31 545.49 -240.62 534.49 -240.62 534.49 -135.33 543.28 -135.33 543.28 -48.4 533.05 -48.4 533.05 85.62 13.42 85.62"/><path class="cls-1" d="M216.16-525.55v30.41h9.09v141.51h98.82V-494.57h9.09V-525H532.55v30.41h9.1v138.76H545v114.69H534v106.29h8.79v85.94H532.55v134H13.92v-134H3.7v-85.94H13.92V-241.12H3.7V-362.63h4V-495.14h9.1v-30.41H216.16m1-1H15.77v30.41H6.67v132.51h-4v123.51H12.92v104.29H2.7v87.94H12.92v134H533.55v-134h10.23v-87.94H535V-240.12h11V-356.81h-3.34V-495.57h-9.1V-526H332.16v30.41h-9.09v140.94H226.25V-496.14h-9.09v-30.41Z"/></g><g id="Puzzle_Building_Base" data-name="Puzzle Building Base"><g id="Illustrated_Cathedral" data-name="Illustrated Cathedral"><rect class="cls-2" x="22.36" y="19.91" width="27.85" height="56.92"/><rect class="cls-2" x="22.36" y="-15.21" width="27.85" height="38.75"/><path class="cls-2" d="M61,76.82V16c0-47.55,54.62-74.14,54.62-74.14s55.27,20.62,55.27,72.72V76.82Z"/><path class="cls-2" d="M70.68,73.19V18.39c0-42.14,44.93-66.08,44.93-66.08S161.19-29.17,161.19,17V73.19Z"/><path class="cls-2" d="M80.36,69.56V22c0-46,36.42-59,36.42-59S151.5-19.58,151.5,20.6v49Z"/><path class="cls-2" d="M116.68-26S90.05-17.64,90.05,22v43.9h51.76V20.6C141.81-14,116.68-26,116.68-26Z"/><path class="cls-2" d="M33.62-7.95H39a5.2,5.2,0,0,1,5.2,5.2v19a0,0,0,0,1,0,0H28.41a0,0,0,0,1,0,0v-19a5.2,5.2,0,0,1,5.2-5.2Z"/></g><g id="GRID"><rect class="cls-3" x="0.11" y="-525.96" width="549.5" height="612.5"/><line class="cls-3" x1="91.69" y1="86.54" x2="91.69" y2="-525.96"/></g><polygon id="Building_Outline-2" data-name="Building Outline" class="cls-4" points="535.5 -135.39 535.5 -239.69 546.5 -239.69 546.5 -356.38 543.16 -356.38 543.16 -495.13 534.07 -495.13 534.07 -525.55 332.67 -525.55 332.67 -495.13 323.58 -495.13 323.58 -354.2 312.21 -354.2 233.02 -354.2 226.77 -354.2 226.77 -495.7 217.68 -495.7 217.68 -526.12 16.28 -526.12 16.28 -495.7 7.19 -495.7 7.19 -363.2 3.21 -363.2 3.21 -239.69 13.44 -239.69 13.44 -135.39 3.21 -135.39 3.21 -47.46 13.44 -47.46 13.44 86.55 189.6 86.55 191.88 86.55 355.63 86.55 359.04 86.55 534.07 86.55 534.07 -47.46 544.3 -47.46 544.3 -135.39 535.5 -135.39"/></g></g></svg>