<svg xmlns="http://www.w3.org/2000/svg" viewBox="0 0 91.6 88"><defs><style>.cls-1{fill:#fff;}.cls-2{stroke:#5e5e5e;}.cls-2,.cls-3,.cls-4{stroke-miterlimit:10;}.cls-3,.cls-4{fill:none;stroke:#fff;}.cls-3{stroke-width:0.5px;}</style></defs><g id="Layer_1" data-name="Layer 1"><g id="Building_Outline" data-name="Building Outline"><polygon points="-444.58 85.62 -444.58 -48.4 -454.81 -48.4 -454.81 -135.33 -444.58 -135.33 -444.58 -240.62 -454.81 -240.62 -454.81 -363.13 -450.83 -363.13 -450.83 -495.64 -441.74 -495.64 -441.74 -526.05 -241.34 -526.05 -241.34 -495.64 -232.25 -495.64 -232.25 -354.13 -134.44 -354.13 -134.44 -495.07 -125.35 -495.07 -125.35 -525.48 75.05 -525.48 75.05 -495.07 84.14 -495.07 84.14 -356.31 87.48 -356.31 87.48 -240.62 76.48 -240.62 76.48 -135.33 85.28 -135.33 85.28 -48.4 75.05 -48.4 75.05 85.62 -444.58 85.62"/><path class="cls-1" d="M-241.84-525.55v30.41h9.09v141.51h98.81V-494.57h9.09V-525H74.55v30.41h9.09v138.76H87v114.69H76v106.29h8.8v85.94H74.55v134H-444.08v-134h-10.23v-85.94h10.23V-241.12h-10.23V-362.63h4V-495.14h9.09v-30.41h199.4m1-1h-201.4v30.41h-9.09v132.51h-4v123.51h10.23v104.29h-10.23v87.94h10.23v134H75.55v-134H85.78v-87.94H77V-240.12H88V-356.81H84.64V-495.57H75.55V-526h-201.4v30.41h-9.09v140.94h-96.81V-496.14h-9.09v-30.41Z"/></g><g id="Puzzle_Building_Base" data-name="Puzzle Building Base"><g id="Illustrated_Cathedral" data-name="Illustrated Cathedral"><path class="cls-2" d="M-78.52,76.82V16c0-47.55,54.62-74.14,54.62-74.14S31.37-37.56,31.37,14.54V76.82Z"/><path class="cls-2" d="M-68.83,73.19V18.39c0-42.14,44.93-66.08,44.93-66.08S21.68-29.17,21.68,17V73.19Z"/><path class="cls-2" d="M-59.14,69.56V22c0-46,36.42-59,36.42-59S12-19.58,12,20.6v49Z"/><path class="cls-2" d="M-22.83-26s-26.62,8.33-26.62,48v43.9H2.31V20.6C2.31-14-22.83-26-22.83-26Z"/><rect class="cls-2" x="41.5" y="19.91" width="27.85" height="56.92"/><rect class="cls-2" x="41.5" y="-15.21" width="27.85" height="38.75"/><path class="cls-2" d="M52.75-7.95h5.34a5.2,5.2,0,0,1,5.2,5.2v19a0,0,0,0,1,0,0H47.55a0,0,0,0,1,0,0v-19a5.2,5.2,0,0,1,5.2-5.2Z"/></g><g id="GRID"><rect class="cls-3" x="-457.9" y="-525.96" width="549.5" height="612.5"/><line class="cls-3" x1="0.02" y1="86.54" x2="0.02" y2="-525.96"/></g><polygon id="Building_Outline-2" data-name="Building Outline" class="cls-4" points="77.5 -135.39 77.5 -239.69 88.5 -239.69 88.5 -356.38 85.16 -356.38 85.16 -495.13 76.06 -495.13 76.06 -525.55 -125.33 -525.55 -125.33 -495.13 -134.43 -495.13 -134.43 -354.2 -145.79 -354.2 -224.99 -354.2 -231.24 -354.2 -231.24 -495.7 -240.33 -495.7 -240.33 -526.12 -441.73 -526.12 -441.73 -495.7 -450.82 -495.7 -450.82 -363.2 -454.8 -363.2 -454.8 -239.69 -444.57 -239.69 -444.57 -135.39 -454.8 -135.39 -454.8 -47.46 -444.57 -47.46 -444.57 86.55 -268.4 86.55 -266.13 86.55 -102.37 86.55 -98.97 86.55 76.06 86.55 76.06 -47.46 86.29 -47.46 86.29 -135.39 77.5 -135.39"/></g></g></svg>