<svg xmlns="http://www.w3.org/2000/svg" viewBox="0 0 91.6 88"><defs><style>.cls-1{fill:#fff;}.cls-2{stroke:#5e5e5e;}.cls-2,.cls-3,.cls-4{stroke-miterlimit:10;}.cls-3,.cls-4{fill:none;stroke:#fff;}.cls-3{stroke-width:0.5px;}</style></defs><g id="Layer_1" data-name="Layer 1"><g id="Building_Outline" data-name="Building Outline"><polygon points="-78.18 525.62 -78.18 391.61 -88.41 391.61 -88.41 304.67 -78.18 304.67 -78.18 199.38 -88.41 199.38 -88.41 76.87 -84.43 76.87 -84.43 -55.64 -75.33 -55.64 -75.33 -86.05 125.06 -86.05 125.06 -55.64 134.15 -55.64 134.15 85.87 231.96 85.87 231.96 -55.07 241.06 -55.07 241.06 -85.48 441.45 -85.48 441.45 -55.07 450.55 -55.07 450.55 83.69 453.89 83.69 453.89 199.38 442.89 199.38 442.89 304.67 451.68 304.67 451.68 391.61 441.45 391.61 441.45 525.62 -78.18 525.62"/><path class="cls-1" d="M124.56-85.55v30.41h9.09V86.37h98.81V-54.57h9.1V-85H441v30.41h9.1V84.19h3.34V198.88h-11V305.17h8.79v85.94H441v134H-77.68v-134H-87.91V305.17h10.23V198.88H-87.91V77.37h4V-55.14h9.09V-85.55h199.4m1-1H-75.84v30.41h-9.09V76.37h-4V199.88h10.23V304.17H-88.91v87.94h10.23v134H442v-134h10.23V304.17h-8.79V199.88h11V83.19h-3.34V-55.57H442V-86H240.56v30.41h-9.1V85.37H134.65V-56.14h-9.09V-86.55Z"/></g><g id="Puzzle_Building_Base" data-name="Puzzle Building Base"><g id="Illustrated_Cathedral" data-name="Illustrated Cathedral"><path class="cls-2" d="M-7-43.82c9.93,0,19.11,7.27,23.06,18.81a46.49,46.49,0,0,1,2.49,14q0,.9,0,1.8V93H-32.58V-9.25c0-.6,0-1.2,0-1.8a47.12,47.12,0,0,1,2.49-14c4-11.54,13.13-18.81,23.07-18.81Z"/><path class="cls-2" d="M-7.31-26.31C-8.23-25.6-22-14.83-22.62-1.4V93.05H8V-2.16C6.9-15.24-6.4-25.62-7.31-26.31Z"/><path class="cls-2" d="M57-43.82c9.93,0,19.1,7.27,23.06,18.81A46.49,46.49,0,0,1,82.5-11q0,.9,0,1.8V93H31.37V-9.25c0-.6,0-1.2,0-1.8a47.12,47.12,0,0,1,2.49-14C37.84-36.55,47-43.82,57-43.82Z"/><path class="cls-2" d="M56.64-26.31C55.72-25.6,42-14.83,41.33-1.4V93.05H72V-2.16C70.85-15.24,57.55-25.62,56.64-26.31Z"/><path class="cls-2" d="M94.6-39h5.34a5.2,5.2,0,0,1,5.2,5.2V93a0,0,0,0,1,0,0H89.4a0,0,0,0,1,0,0V-33.83A5.2,5.2,0,0,1,94.6-39Z"/></g><g id="GRID"><rect class="cls-3" x="-91.49" y="-85.96" width="549.5" height="612.5"/><line class="cls-3" x1="-91.49" y1="1.54" x2="458.01" y2="1.54"/><line class="cls-3" x1="91.67" y1="526.54" x2="91.67" y2="-85.96"/><line class="cls-3" x1="0.09" y1="526.54" x2="0.09" y2="-85.96"/></g><polygon id="Building_Outline-2" data-name="Building Outline" class="cls-4" points="443.9 304.61 443.9 200.31 454.9 200.31 454.9 83.62 451.56 83.62 451.56 -55.13 442.47 -55.13 442.47 -85.55 241.07 -85.55 241.07 -55.13 231.98 -55.13 231.98 85.8 220.61 85.8 141.42 85.8 135.17 85.8 135.17 -55.7 126.08 -55.7 126.08 -86.12 -75.32 -86.12 -75.32 -55.7 -84.41 -55.7 -84.41 76.8 -88.39 76.8 -88.39 200.31 -78.16 200.31 -78.16 304.61 -88.39 304.61 -88.39 392.54 -78.16 392.54 -78.16 526.55 98 526.55 100.28 526.55 264.03 526.55 267.44 526.55 442.47 526.55 442.47 392.54 452.7 392.54 452.7 304.61 443.9 304.61"/></g></g></svg>