<svg xmlns="http://www.w3.org/2000/svg" viewBox="0 0 91.6 88"><defs><style>.cls-1{fill:#fff;}.cls-2{stroke:#5e5e5e;}.cls-2,.cls-3,.cls-4{stroke-miterlimit:10;}.cls-3,.cls-4{fill:none;stroke:#fff;}.cls-3{stroke-width:0.5px;}</style></defs><g id="Layer_1" data-name="Layer 1"><g id="Building_Outline" data-name="Building Outline"><polygon points="13.42 525.62 13.42 391.61 3.19 391.61 3.19 304.67 13.42 304.67 13.42 199.38 3.19 199.38 3.19 76.87 7.17 76.87 7.17 -55.64 16.27 -55.64 16.27 -86.05 216.66 -86.05 216.66 -55.64 225.75 -55.64 225.75 85.87 323.56 85.87 323.56 -55.07 332.66 -55.07 332.66 -85.48 533.05 -85.48 533.05 -55.07 542.15 -55.07 542.15 83.69 545.49 83.69 545.49 199.38 534.49 199.38 534.49 304.67 543.28 304.67 543.28 391.61 533.05 391.61 533.05 525.62 13.42 525.62"/><path class="cls-1" d="M216.16-85.55v30.41h9.09V86.37h98.82V-54.57h9.09V-85H532.55v30.41h9.1V84.19H545V198.88H534V305.17h8.79v85.94H532.55v134H13.92v-134H3.7V305.17H13.92V198.88H3.7V77.37h4V-55.14h9.1V-85.55H216.16m1-1H15.77v30.41H6.67V76.37h-4V199.88H12.92V304.17H2.7v87.94H12.92v134H533.55v-134h10.23V304.17H535V199.88h11V83.19h-3.34V-55.57h-9.1V-86H332.16v30.41h-9.09V85.37H226.25V-56.14h-9.09V-86.55Z"/></g><g id="Puzzle_Building_Base" data-name="Puzzle Building Base"><g id="Illustrated_Cathedral" data-name="Illustrated Cathedral"><path class="cls-2" d="M84.6-43.82c9.93,0,19.11,7.27,23.06,18.81a46.81,46.81,0,0,1,2.5,14c0,.6,0,1.2,0,1.8V93H59V-9.25c0-.6,0-1.2,0-1.8a47.12,47.12,0,0,1,2.49-14c4-11.54,13.13-18.81,23.07-18.81Z"/><path class="cls-2" d="M84.29-26.31C83.37-25.6,69.61-14.83,69-1.4V93.05H99.6V-2.16C98.5-15.24,85.2-25.62,84.29-26.31Z"/><path class="cls-2" d="M37.25-39h5.34a5.2,5.2,0,0,1,5.2,5.2V93a0,0,0,0,1,0,0H32a0,0,0,0,1,0,0V-33.83A5.2,5.2,0,0,1,37.25-39Z"/></g><g id="GRID"><rect class="cls-3" x="0.11" y="-85.96" width="549.5" height="612.5"/><line class="cls-3" x1="0.11" y1="1.54" x2="549.61" y2="1.54"/><line class="cls-3" x1="91.69" y1="526.54" x2="91.69" y2="-85.96"/></g><polygon id="Building_Outline-2" data-name="Building Outline" class="cls-4" points="535.5 304.61 535.5 200.31 546.5 200.31 546.5 83.62 543.16 83.62 543.16 -55.13 534.07 -55.13 534.07 -85.55 332.67 -85.55 332.67 -55.13 323.58 -55.13 323.58 85.8 312.21 85.8 233.02 85.8 226.77 85.8 226.77 -55.7 217.68 -55.7 217.68 -86.12 16.28 -86.12 16.28 -55.7 7.19 -55.7 7.19 76.8 3.21 76.8 3.21 200.31 13.44 200.31 13.44 304.61 3.21 304.61 3.21 392.54 13.44 392.54 13.44 526.55 189.6 526.55 191.88 526.55 355.63 526.55 359.04 526.55 534.07 526.55 534.07 392.54 544.3 392.54 544.3 304.61 535.5 304.61"/></g></g></svg>