<svg xmlns="http://www.w3.org/2000/svg" viewBox="0 0 91.6 88"><defs><style>.cls-1{fill:#fff;}.cls-2{stroke:#5e5e5e;}.cls-2,.cls-3,.cls-4{stroke-miterlimit:10;}.cls-3,.cls-4{fill:none;stroke:#fff;}.cls-3{stroke-width:0.5px;}</style></defs><g id="Layer_1" data-name="Layer 1"><g id="Building_Outline" data-name="Building Outline"><polygon points="-169.78 437.62 -169.78 303.61 -180.01 303.61 -180.01 216.67 -169.78 216.67 -169.78 111.38 -180.01 111.38 -180.01 -11.13 -176.03 -11.13 -176.03 -143.64 -166.94 -143.64 -166.94 -174.05 33.46 -174.05 33.46 -143.64 42.55 -143.64 42.55 -2.13 140.36 -2.13 140.36 -143.07 149.46 -143.07 149.46 -173.48 349.85 -173.48 349.85 -143.07 358.94 -143.07 358.94 -4.31 362.29 -4.31 362.29 111.38 351.29 111.38 351.29 216.67 360.08 216.67 360.08 303.61 349.85 303.61 349.85 437.62 -169.78 437.62"/><path class="cls-1" d="M33-173.55v30.41h9.09V-1.63h98.81V-142.57H150V-173H349.35v30.41h9.09V-3.81h3.35V110.88h-11V217.17h8.79v85.94H349.35v134H-169.28v-134h-10.23V217.17h10.23V110.88h-10.23V-10.63h4V-143.14h9.09v-30.41H33m1-1h-201.4v30.41h-9.09V-11.63h-4V111.88h10.23V216.17h-10.23v87.94h10.23v134H350.35v-134h10.23V216.17h-8.79V111.88h11V-4.81h-3.35V-143.57h-9.09V-174H149v30.41h-9.1V-2.63H43.05V-144.14H34v-30.41Z"/></g><g id="Puzzle_Building_Base" data-name="Puzzle Building Base"><g id="Illustrated_Cathedral" data-name="Illustrated Cathedral"><path class="cls-2" d="M46.72,21.46c-.84.64-13.39,10.47-14,22.72V98.39H60.69V43.49C59.68,31.56,47.55,22.09,46.72,21.46Z"/><path class="cls-2" d="M40.16,41.27c2,0,3.81,1.55,4.6,4a10.62,10.62,0,0,1,.5,3V98.39H35.06V48.25a10.62,10.62,0,0,1,.5-3c.79-2.46,2.62-4,4.6-4Z"/><path class="cls-2" d="M53.28,41.27c2,0,3.82,1.55,4.61,4a10.61,10.61,0,0,1,.49,3c0,.13,0,.25,0,.38V98.39H48.18V48.25a10.62,10.62,0,0,1,.5-3c.79-2.46,2.62-4,4.6-4Z"/><path class="cls-2" d="M76,21.46c-.85.64-13.39,10.47-14,22.72V98.39H90V43.49C89,31.56,76.85,22.09,76,21.46Z"/><path class="cls-2" d="M69.45,41.27c2,0,3.82,1.55,4.61,4a10.61,10.61,0,0,1,.49,3c0,.13,0,.25,0,.38V98.39H64.35V48.63c0-.13,0-.25,0-.38a10.26,10.26,0,0,1,.49-3c.79-2.46,2.62-4,4.6-4Z"/><path class="cls-2" d="M82.58,41.27c2,0,3.81,1.55,4.6,4a10.62,10.62,0,0,1,.5,3V98.39H77.48V48.25a10.62,10.62,0,0,1,.5-3c.79-2.46,2.62-4,4.6-4Z"/><path class="cls-2" d="M105.31,21.46c-.84.64-13.39,10.47-14,22.72V98.39h27.93V43.49C118.27,31.56,106.14,22.09,105.31,21.46Z"/><rect class="cls-2" x="-0.99" y="21.92" width="27.85" height="76.29"/><path class="cls-2" d="M6.49,40.72c2,0,3.81,1.55,4.6,4a10.68,10.68,0,0,1,.5,3V97.84H1.39V47.7a10.68,10.68,0,0,1,.5-3c.79-2.46,2.62-4,4.6-4Z"/><path class="cls-2" d="M19.61,40.72c2,0,3.82,1.55,4.61,4a10.67,10.67,0,0,1,.49,3c0,.13,0,.26,0,.38V97.84H14.51V47.7a10.68,10.68,0,0,1,.5-3c.79-2.46,2.62-4,4.6-4Z"/><circle class="cls-2" cx="13.54" cy="31.61" r="4.84"/><path class="cls-2" d="M3-127H8.34a5.2,5.2,0,0,1,5.2,5.2V5a0,0,0,0,1,0,0H-2.2a0,0,0,0,1,0,0v-126.8A5.2,5.2,0,0,1,3-127Z"/><rect class="cls-2" x="-160.84" y="9.81" width="505" height="12.11"/><rect class="cls-2" x="-169.32" y="4.97" width="521.95" height="9.69"/></g><g id="GRID"><rect class="cls-3" x="-183.1" y="-173.96" width="549.5" height="612.5"/><line class="cls-3" x1="-183.1" y1="1.04" x2="366.4" y2="1.04"/><line class="cls-3" x1="91.65" y1="438.54" x2="91.65" y2="-173.96"/><line class="cls-3" x1="0.07" y1="438.54" x2="0.07" y2="-173.96"/></g><polygon id="Building_Outline-2" data-name="Building Outline" class="cls-4" points="352.3 216.61 352.3 112.31 363.3 112.31 363.3 -4.38 359.96 -4.38 359.96 -143.13 350.87 -143.13 350.87 -173.55 149.47 -173.55 149.47 -143.13 140.38 -143.13 140.38 -2.2 129.01 -2.2 49.82 -2.2 43.57 -2.2 43.57 -143.7 34.47 -143.7 34.47 -174.12 -166.92 -174.12 -166.92 -143.7 -176.01 -143.7 -176.01 -11.2 -179.99 -11.2 -179.99 112.31 -169.76 112.31 -169.76 216.61 -179.99 216.61 -179.99 304.54 -169.76 304.54 -169.76 438.55 6.4 438.55 8.67 438.55 172.43 438.55 175.84 438.55 350.87 438.55 350.87 304.54 361.1 304.54 361.1 216.61 352.3 216.61"/></g></g></svg>