<svg xmlns="http://www.w3.org/2000/svg" viewBox="0 0 91.6 88"><defs><style>.cls-1{fill:#fff;}.cls-2{stroke:#5e5e5e;}.cls-2,.cls-3,.cls-4{stroke-miterlimit:10;}.cls-3,.cls-4{fill:none;stroke:#fff;}.cls-3{stroke-width:0.5px;}</style></defs><g id="Layer_1" data-name="Layer 1"><g id="Building_Outline" data-name="Building Outline"><polygon points="-169.78 85.62 -169.78 -48.4 -180.01 -48.4 -180.01 -135.33 -169.78 -135.33 -169.78 -240.62 -180.01 -240.62 -180.01 -363.13 -176.03 -363.13 -176.03 -495.64 -166.94 -495.64 -166.94 -526.05 33.46 -526.05 33.46 -495.64 42.55 -495.64 42.55 -354.13 140.36 -354.13 140.36 -495.07 149.46 -495.07 149.46 -525.48 349.85 -525.48 349.85 -495.07 358.94 -495.07 358.94 -356.31 362.29 -356.31 362.29 -240.62 351.29 -240.62 351.29 -135.33 360.08 -135.33 360.08 -48.4 349.85 -48.4 349.85 85.62 -169.78 85.62"/><path class="cls-1" d="M33-525.55v30.41h9.09v141.51h98.81V-494.57H150V-525H349.35v30.41h9.09v138.76h3.35v114.69h-11v106.29h8.79v85.94H349.35v134H-169.28v-134h-10.23v-85.94h10.23V-241.12h-10.23V-362.63h4V-495.14h9.09v-30.41H33m1-1h-201.4v30.41h-9.09v132.51h-4v123.51h10.23v104.29h-10.23v87.94h10.23v134H350.35v-134h10.23v-87.94h-8.79V-240.12h11V-356.81h-3.35V-495.57h-9.09V-526H149v30.41h-9.1v140.94H43.05V-496.14H34v-30.41Z"/></g><g id="Puzzle_Building_Base" data-name="Puzzle Building Base"><g id="Illustrated_Cathedral" data-name="Illustrated Cathedral"><rect class="cls-2" x="0.22" y="19.91" width="27.85" height="56.92"/><rect class="cls-2" x="0.22" y="-15.21" width="27.85" height="38.75"/><path class="cls-2" d="M11.48-7.95h5.34A5.2,5.2,0,0,1,22-2.75v19a0,0,0,0,1,0,0H6.28a0,0,0,0,1,0,0v-19A5.2,5.2,0,0,1,11.48-7.95Z"/><path class="cls-2" d="M36.41,77.11V16.25C36.41-31.3,91-57.89,91-57.89S146.3-37.27,146.3,14.83V77.11Z"/><path class="cls-2" d="M46.09,73.48V18.67C46.09-23.46,91-47.4,91-47.4s45.59,18.52,45.59,64.65V73.48Z"/><path class="cls-2" d="M55.78,69.85V22.31c0-46,36.42-59,36.42-59s34.72,17.4,34.72,57.58v49Z"/><path class="cls-2" d="M92.1-25.68s-26.63,8.33-26.63,48v43.9h51.76V20.89C117.23-13.71,92.1-25.68,92.1-25.68Z"/></g><g id="GRID"><rect class="cls-3" x="-183.1" y="-525.96" width="549.5" height="612.5"/><line class="cls-3" x1="91.65" y1="86.54" x2="91.65" y2="-525.96"/><line class="cls-3" x1="0.07" y1="86.54" x2="0.07" y2="-525.96"/></g><polygon id="Building_Outline-2" data-name="Building Outline" class="cls-4" points="352.3 -135.39 352.3 -239.69 363.3 -239.69 363.3 -356.38 359.96 -356.38 359.96 -495.13 350.87 -495.13 350.87 -525.55 149.47 -525.55 149.47 -495.13 140.38 -495.13 140.38 -354.2 129.01 -354.2 49.82 -354.2 43.57 -354.2 43.57 -495.7 34.47 -495.7 34.47 -526.12 -166.92 -526.12 -166.92 -495.7 -176.01 -495.7 -176.01 -363.2 -179.99 -363.2 -179.99 -239.69 -169.76 -239.69 -169.76 -135.39 -179.99 -135.39 -179.99 -47.46 -169.76 -47.46 -169.76 86.55 6.4 86.55 8.67 86.55 172.43 86.55 175.84 86.55 350.87 86.55 350.87 -47.46 361.1 -47.46 361.1 -135.39 352.3 -135.39"/></g></g></svg>