<svg xmlns="http://www.w3.org/2000/svg" viewBox="0 0 91.6 88"><defs><style>.cls-1{fill:#fff;}.cls-2{stroke:#5e5e5e;}.cls-2,.cls-3,.cls-4{stroke-miterlimit:10;}.cls-3,.cls-4{fill:none;stroke:#fff;}.cls-3{stroke-width:0.5px;}</style></defs><g id="Layer_1" data-name="Layer 1"><g id="Building_Outline" data-name="Building Outline"><polygon points="-444.58 261.62 -444.58 127.61 -454.81 127.61 -454.81 40.67 -444.58 40.67 -444.58 -64.62 -454.81 -64.62 -454.81 -187.13 -450.83 -187.13 -450.83 -319.64 -441.74 -319.64 -441.74 -350.05 -241.34 -350.05 -241.34 -319.64 -232.25 -319.64 -232.25 -178.13 -134.44 -178.13 -134.44 -319.07 -125.35 -319.07 -125.35 -349.48 75.05 -349.48 75.05 -319.07 84.14 -319.07 84.14 -180.31 87.48 -180.31 87.48 -64.62 76.48 -64.62 76.48 40.67 85.28 40.67 85.28 127.61 75.05 127.61 75.05 261.62 -444.58 261.62"/><path class="cls-1" d="M-241.84-349.55v30.41h9.09v141.51h98.81V-318.57h9.09V-349H74.55v30.41h9.09v138.76H87V-65.12H76V41.17h8.8v85.94H74.55v134H-444.08v-134h-10.23V41.17h10.23V-65.12h-10.23V-186.63h4V-319.14h9.09v-30.41h199.4m1-1h-201.4v30.41h-9.09v132.51h-4V-64.12h10.23V40.17h-10.23v87.94h10.23v134H75.55v-134H85.78V40.17H77V-64.12H88V-180.81H84.64V-319.57H75.55V-350h-201.4v30.41h-9.09v140.94h-96.81V-320.14h-9.09v-30.41Z"/></g><g id="Puzzle_Building_Base" data-name="Puzzle Building Base"><g id="Illustrated_Cathedral" data-name="Illustrated Cathedral"><path class="cls-2" d="M-23.73-54.78C-38.49-54.89-65-32.48-73.55-17.59A39.7,39.7,0,0,0-78.66,2.16V49.57H31.2V3.1a39.89,39.89,0,0,0-5.51-20.44C16.9-32-9-54.66-23.73-54.78Z"/><rect class="cls-2" x="-78.4" y="9.11" width="108.99" height="39.75"/><path class="cls-2" d="M-.37-9.92c-.84.76-13.39,5.18-14,19.54V49H13.59V8.81C12.59-5.17.46-9.17-.37-9.92Z"/><path class="cls-2" d="M14.89,114.16H-.85V76.78a5.2,5.2,0,0,1,5.2-5.21H9.69a5.2,5.2,0,0,1,5.2,5.21Z"/><path class="cls-2" d="M31.43,114.16H15.69V76.78a5.2,5.2,0,0,1,5.2-5.21h5.34a5.2,5.2,0,0,1,5.2,5.21Z"/><path class="cls-2" d="M48,114.16H32.22V76.78a5.21,5.21,0,0,1,5.21-5.21h5.34A5.2,5.2,0,0,1,48,76.78Z"/><path class="cls-2" d="M64.5,114.16H48.76V76.78A5.2,5.2,0,0,1,54,71.57H59.3a5.2,5.2,0,0,1,5.2,5.21Z"/><rect class="cls-2" x="-435.65" y="51.79" width="505" height="12.11"/><rect class="cls-2" x="-444.12" y="46.95" width="521.95" height="9.69"/></g><g id="GRID"><rect class="cls-3" x="-457.9" y="-349.96" width="549.5" height="612.5"/><line class="cls-3" x1="-457.9" y1="0.04" x2="91.6" y2="0.04"/><line class="cls-3" x1="-457.9" y1="87.54" x2="91.6" y2="87.54"/><line class="cls-3" x1="0.02" y1="262.54" x2="0.02" y2="-349.96"/></g><polygon id="Building_Outline-2" data-name="Building Outline" class="cls-4" points="77.5 40.61 77.5 -63.69 88.5 -63.69 88.5 -180.38 85.16 -180.38 85.16 -319.13 76.06 -319.13 76.06 -349.55 -125.33 -349.55 -125.33 -319.13 -134.43 -319.13 -134.43 -178.2 -145.79 -178.2 -224.99 -178.2 -231.24 -178.2 -231.24 -319.7 -240.33 -319.7 -240.33 -350.12 -441.73 -350.12 -441.73 -319.7 -450.82 -319.7 -450.82 -187.2 -454.8 -187.2 -454.8 -63.69 -444.57 -63.69 -444.57 40.61 -454.8 40.61 -454.8 128.54 -444.57 128.54 -444.57 262.55 -268.4 262.55 -266.13 262.55 -102.37 262.55 -98.97 262.55 76.06 262.55 76.06 128.54 86.29 128.54 86.29 40.61 77.5 40.61"/></g></g></svg>