<svg xmlns="http://www.w3.org/2000/svg" viewBox="0 0 91.6 88"><defs><style>.cls-1{fill:#fff;}.cls-2{stroke:#5e5e5e;}.cls-2,.cls-3,.cls-4{stroke-miterlimit:10;}.cls-3,.cls-4{fill:none;stroke:#fff;}.cls-3{stroke-width:0.5px;}</style></defs><g id="Layer_1" data-name="Layer 1"><g id="Building_Outline" data-name="Building Outline"><polygon points="13.42 613.62 13.42 479.61 3.19 479.61 3.19 392.67 13.42 392.67 13.42 287.38 3.19 287.38 3.19 164.87 7.17 164.87 7.17 32.36 16.27 32.36 16.27 1.95 216.66 1.95 216.66 32.36 225.75 32.36 225.75 173.87 323.56 173.87 323.56 32.93 332.66 32.93 332.66 2.52 533.05 2.52 533.05 32.93 542.15 32.93 542.15 171.69 545.49 171.69 545.49 287.38 534.49 287.38 534.49 392.67 543.28 392.67 543.28 479.61 533.05 479.61 533.05 613.62 13.42 613.62"/><path class="cls-1" d="M216.16,2.45V32.86h9.09V174.37h98.82V33.43h9.09V3H532.55V33.43h9.1V172.19H545V286.88H534V393.17h8.79v85.94H532.55v134H13.92v-134H3.7V393.17H13.92V286.88H3.7V165.37h4V32.86h9.1V2.45H216.16m1-1H15.77V31.86H6.67V164.37h-4V287.88H12.92V392.17H2.7v87.94H12.92v134H533.55v-134h10.23V392.17H535V287.88h11V171.19h-3.34V32.43h-9.1V2H332.16V32.43h-9.09V173.37H226.25V31.86h-9.09V1.45Z"/></g><g id="Puzzle_Building_Base" data-name="Puzzle Building Base"><g id="Illustrated_Cathedral" data-name="Illustrated Cathedral"><path class="cls-2" d="M84.6,44.18c9.93,0,19.11,7.27,23.06,18.81a46.81,46.81,0,0,1,2.5,14c0,.6,0,1.2,0,1.8V181H59V78.75c0-.6,0-1.2,0-1.8a47.12,47.12,0,0,1,2.49-14c4-11.54,13.13-18.81,23.07-18.81Z"/><path class="cls-2" d="M84.29,61.69C83.37,62.4,69.61,73.17,69,86.6v94.45H99.6V85.84C98.5,72.76,85.2,62.38,84.29,61.69Z"/><path class="cls-2" d="M37.25,49h5.34a5.2,5.2,0,0,1,5.2,5.2V181a0,0,0,0,1,0,0H32a0,0,0,0,1,0,0V54.17A5.2,5.2,0,0,1,37.25,49Z"/><rect class="cls-2" x="26.65" y="14.16" width="183.37" height="9.88"/><rect class="cls-2" x="23.57" y="10.21" width="189.52" height="7.9"/></g><g id="GRID"><rect class="cls-3" x="0.11" y="2.04" width="549.5" height="612.5"/><line class="cls-3" x1="91.69" y1="614.54" x2="91.69" y2="2.04"/></g><polygon id="Building_Outline-2" data-name="Building Outline" class="cls-4" points="535.5 392.61 535.5 288.31 546.5 288.31 546.5 171.62 543.16 171.62 543.16 32.87 534.07 32.87 534.07 2.45 332.67 2.45 332.67 32.87 323.58 32.87 323.58 173.8 312.21 173.8 233.02 173.8 226.77 173.8 226.77 32.3 217.68 32.3 217.68 1.88 16.28 1.88 16.28 32.3 7.19 32.3 7.19 164.8 3.21 164.8 3.21 288.31 13.44 288.31 13.44 392.61 3.21 392.61 3.21 480.54 13.44 480.54 13.44 614.55 189.6 614.55 191.88 614.55 355.63 614.55 359.04 614.55 534.07 614.55 534.07 480.54 544.3 480.54 544.3 392.61 535.5 392.61"/></g></g></svg>