<svg xmlns="http://www.w3.org/2000/svg" viewBox="0 0 91.6 88"><defs><style>.cls-1{fill:#fff;}.cls-2{stroke:#5e5e5e;}.cls-2,.cls-3,.cls-4{stroke-miterlimit:10;}.cls-3,.cls-4{fill:none;stroke:#fff;}.cls-3{stroke-width:0.5px;}</style></defs><g id="Layer_1" data-name="Layer 1"><g id="Building_Outline" data-name="Building Outline"><polygon points="13.42 173.62 13.42 39.6 3.19 39.6 3.19 -47.33 13.42 -47.33 13.42 -152.62 3.19 -152.62 3.19 -275.13 7.17 -275.13 7.17 -407.64 16.27 -407.64 16.27 -438.05 216.66 -438.05 216.66 -407.64 225.75 -407.64 225.75 -266.13 323.56 -266.13 323.56 -407.07 332.66 -407.07 332.66 -437.48 533.05 -437.48 533.05 -407.07 542.15 -407.07 542.15 -268.31 545.49 -268.31 545.49 -152.62 534.49 -152.62 534.49 -47.33 543.28 -47.33 543.28 39.6 533.05 39.6 533.05 173.62 13.42 173.62"/><path class="cls-1" d="M216.16-437.55v30.41h9.09v141.51h98.82V-406.57h9.09V-437H532.55v30.41h9.1v138.76H545v114.69H534V-46.83h8.79V39.11H532.55v134H13.92v-134H3.7V-46.83H13.92V-153.12H3.7V-274.63h4V-407.14h9.1v-30.41H216.16m1-1H15.77v30.41H6.67v132.51h-4v123.51H12.92V-47.83H2.7V40.11H12.92v134H533.55v-134h10.23V-47.83H535V-152.12h11V-268.81h-3.34V-407.57h-9.1V-438H332.16v30.41h-9.09v140.94H226.25V-408.14h-9.09v-30.41Z"/></g><g id="Puzzle_Building_Base" data-name="Puzzle Building Base"><g id="Illustrated_Cathedral" data-name="Illustrated Cathedral"><rect class="cls-2" x="22.36" y="72.79" width="27.85" height="38.75"/><path class="cls-2" d="M61,164.82V104c0-47.55,54.62-74.14,54.62-74.14s55.27,20.62,55.27,72.72v62.28Z"/><path class="cls-2" d="M70.68,161.19v-54.8c0-42.14,44.93-66.08,44.93-66.08S161.19,58.83,161.19,105v56.23Z"/><path class="cls-2" d="M80.36,157.56V110c0-46,36.42-59,36.42-59s34.72,17.4,34.72,57.58v49Z"/><path class="cls-2" d="M116.68,62s-26.63,8.33-26.63,48v43.9h51.76V108.6C141.81,74,116.68,62,116.68,62Z"/><path class="cls-2" d="M33.62,80.05H39a5.2,5.2,0,0,1,5.2,5.2v19a0,0,0,0,1,0,0H28.41a0,0,0,0,1,0,0v-19A5.2,5.2,0,0,1,33.62,80.05Z"/><path class="cls-2" d="M43,26.16H27.2V-11.22a5.21,5.21,0,0,1,5.21-5.21h5.33A5.21,5.21,0,0,1,43-11.22Z"/><path class="cls-2" d="M59.48,26.16H43.74V-11.22a5.2,5.2,0,0,1,5.2-5.21h5.34a5.2,5.2,0,0,1,5.2,5.21Z"/><path class="cls-2" d="M76,26.16H60.28V-11.22a5.2,5.2,0,0,1,5.2-5.21h5.34A5.2,5.2,0,0,1,76-11.22Z"/><path class="cls-2" d="M92.56,26.16H76.81V-11.22A5.21,5.21,0,0,1,82-16.43h5.33a5.21,5.21,0,0,1,5.21,5.21Z"/></g><g id="GRID"><rect class="cls-3" x="0.11" y="-437.96" width="549.5" height="612.5"/><line class="cls-3" x1="0.11" y1="87.04" x2="549.61" y2="87.04"/><line class="cls-3" x1="91.69" y1="174.54" x2="91.69" y2="-437.96"/></g><polygon id="Building_Outline-2" data-name="Building Outline" class="cls-4" points="535.5 -47.39 535.5 -151.69 546.5 -151.69 546.5 -268.38 543.16 -268.38 543.16 -407.13 534.07 -407.13 534.07 -437.55 332.67 -437.55 332.67 -407.13 323.58 -407.13 323.58 -266.2 312.21 -266.2 233.02 -266.2 226.77 -266.2 226.77 -407.7 217.68 -407.7 217.68 -438.12 16.28 -438.12 16.28 -407.7 7.19 -407.7 7.19 -275.2 3.21 -275.2 3.21 -151.69 13.44 -151.69 13.44 -47.39 3.21 -47.39 3.21 40.54 13.44 40.54 13.44 174.55 189.6 174.55 191.88 174.55 355.63 174.55 359.04 174.55 534.07 174.55 534.07 40.54 544.3 40.54 544.3 -47.39 535.5 -47.39"/></g></g></svg>