<?xml version="1.0" standalone="no"?>
<!DOCTYPE svg PUBLIC "-//W3C//DTD SVG 20010904//EN"
 "http://www.w3.org/TR/2001/REC-SVG-20010904/DTD/svg10.dtd">
<svg version="1.0" xmlns="http://www.w3.org/2000/svg"
 width="523.000000pt" height="523.000000pt" viewBox="0 0 523.000000 523.000000"
 preserveAspectRatio="xMidYMid meet">
<metadata>
Created by potrace 1.11, written by Peter Selinger 2001-2013
</metadata>
<g transform="translate(0.000000,523.000000) scale(0.100000,-0.100000)"
fill="#000000" stroke="none">
<path d="M2009 4793 c-16 -42 -1623 -4277 -1653 -4356 l-25 -67 706 2 705 3
72 197 71 198 670 0 670 0 27 -72 c15 -40 48 -130 74 -200 l46 -128 705 0
c429 0 703 4 701 9 -1 5 -381 1007 -843 2225 l-840 2216 -538 0 -537 0 -11
-27z m752 -723 c405 -1062 1199 -3152 1199 -3156 0 -2 -39 -4 -87 -4 l-88 0
-61 163 -62 162 -1105 3 -1105 2 -62 -165 -63 -165 -90 0 c-81 0 -89 2 -82 18
4 9 115 301 246 647 132 347 258 675 279 730 21 55 196 514 388 1020 193 506
353 928 357 938 7 16 20 17 132 15 l126 -3 78 -205z"/>
<path d="M2267 3378 c-158 -414 -393 -1027 -521 -1363 -128 -335 -231 -613
-229 -618 5 -9 2071 -9 2077 1 2 4 -24 81 -59 172 -35 91 -266 698 -515 1350
-248 651 -455 1190 -459 1198 -4 7 -128 -304 -294 -740z m436 -1243 l143 -370
-284 -3 c-157 -1 -287 0 -290 3 -3 2 60 173 139 379 79 207 145 372 147 368 1
-4 67 -173 145 -377z"/>
</g>
</svg>
